<svg width="70" height="73" viewBox="0 0 70 73" fill="none" xmlns="http://www.w3.org/2000/svg">
<path d="M27.0117 56.8945L26.2547 56.2412L27.0117 56.8945ZM9.66797 59.9414L9.33411 60.8841L9.34289 60.8871L9.66797 59.9414ZM2.8125 52.5L1.85567 52.7907L1.85672 52.7941L2.8125 52.5ZM3.22266 18.8379L2.27917 18.5064L2.27656 18.514L3.22266 18.8379ZM7.70508 13.623L7.20167 12.759L7.19839 12.7609L7.70508 13.623ZM22.8223 13.0371L22.4137 13.9499L22.421 13.9531L22.8223 13.0371ZM29.4727 20.7715L28.4948 20.981L28.4973 20.9921L29.4727 20.7715ZM17.8125 19.9219L16.8727 20.2636L16.879 20.2811L16.886 20.2983L17.8125 19.9219ZM14.3555 19.9805L13.4363 19.5865L13.4335 19.5931L13.4308 19.5997L14.3555 19.9805ZM14.3262 52.7637L13.4137 53.1727L13.4195 53.1857L13.4256 53.1984L14.3262 52.7637ZM29.0293 28.623V44.4434H31.0293V28.623H29.0293ZM29.0293 44.4434C29.0293 48.0263 28.8323 50.5439 28.4706 52.0633L30.4162 52.5265C30.8357 50.7647 31.0293 48.048 31.0293 44.4434H29.0293ZM28.4706 52.0633C28.1212 53.5306 27.3929 54.9223 26.2547 56.2412L27.7688 57.5479C29.0915 56.0152 29.9843 54.3404 30.4162 52.5265L28.4706 52.0633ZM26.2547 56.2412C25.1344 57.5393 23.7932 58.4641 22.2202 59.0297L22.8969 60.9117C24.8005 60.2273 26.4281 59.1013 27.7688 57.5479L26.2547 56.2412ZM22.2202 59.0297C20.6066 59.6099 18.7801 59.9082 16.7285 59.9082V61.9082C18.9738 61.9082 21.034 61.5815 22.8969 60.9117L22.2202 59.0297ZM16.7285 59.9082C13.9638 59.9082 11.7291 59.5925 9.99305 58.9957L9.34289 60.8871C11.3568 61.5794 13.8292 61.9082 16.7285 61.9082V59.9082ZM10.0018 58.9988C8.28063 58.3892 6.94886 57.4643 5.96534 56.2392L4.40575 57.4913C5.64879 59.0396 7.30531 60.1655 9.33412 60.884L10.0018 58.9988ZM5.96534 56.2392C4.92204 54.9396 4.19581 53.5954 3.76828 52.2059L1.85672 52.7941C2.36669 54.4515 3.22249 56.0174 4.40575 57.4913L5.96534 56.2392ZM3.76932 52.2093C3.34594 50.8157 3.10938 48.499 3.10938 45.1758H1.10938C1.10938 48.5322 1.34156 51.0984 1.85568 52.7907L3.76932 52.2093ZM3.10938 45.1758V28.623H1.10938V45.1758H3.10938ZM3.10938 28.623C3.10938 24.2972 3.48134 21.1697 4.16875 19.1618L2.27656 18.514C1.47959 20.842 1.10938 24.238 1.10938 28.623H3.10938ZM4.16612 19.1694C4.83976 17.2521 6.16203 15.6898 8.21177 14.4852L7.19839 12.7609C4.795 14.1734 3.12899 16.0878 2.2792 18.5064L4.16612 19.1694ZM8.20848 14.4871C10.2709 13.2855 12.8033 12.6602 15.8496 12.6602V10.6602C12.5287 10.6602 9.63149 11.3434 7.20167 12.759L8.20848 14.4871ZM15.8496 12.6602C18.3283 12.6602 20.51 13.0977 22.4137 13.9498L23.2308 12.1244C21.033 11.1406 18.5662 10.6602 15.8496 10.6602V12.6602ZM22.421 13.9531C24.3704 14.8071 25.7482 15.8222 26.6319 16.9608L28.2119 15.7345C27.0643 14.256 25.3757 13.064 23.2235 12.1212L22.421 13.9531ZM26.6319 16.9608C27.5542 18.1491 28.1744 19.4854 28.4949 20.981L30.4505 20.562C30.0678 18.7764 29.3208 17.1634 28.2119 15.7345L26.6319 16.9608ZM28.4973 20.9921C28.8422 22.517 29.0293 25.0394 29.0293 28.623H31.0293C31.0293 25.0191 30.8453 22.3072 30.448 20.5509L28.4973 20.9921ZM19.1934 24.6387C19.1934 23.3658 19.1614 22.3132 19.0949 21.4893C19.0312 20.7009 18.9293 20.014 18.739 19.5455L16.886 20.2983C16.9496 20.4548 17.0381 20.8665 17.1014 21.6503C17.1618 22.3988 17.1934 23.392 17.1934 24.6387H19.1934ZM18.7523 19.5801C18.5586 19.0475 18.2074 18.6126 17.7064 18.3276C17.2261 18.0543 16.6732 17.9551 16.1133 17.9551V19.9551C16.4518 19.9551 16.6313 20.017 16.7174 20.0659C16.7828 20.1032 16.832 20.1517 16.8727 20.2636L18.7523 19.5801ZM16.1133 17.9551C15.5479 17.9551 14.9955 18.0649 14.5108 18.3476C14.0146 18.6371 13.6587 19.0677 13.4363 19.5865L15.2746 20.3744C15.3452 20.2096 15.4288 20.1276 15.5185 20.0752C15.6197 20.0162 15.7997 19.9551 16.1133 19.9551V17.9551ZM13.4308 19.5997C13.232 20.0825 13.1211 20.7677 13.0517 21.5554C12.9798 22.3724 12.9453 23.4031 12.9453 24.6387H14.9453C14.9453 23.4329 14.9792 22.4665 15.044 21.7308C15.1114 20.9657 15.2055 20.5425 15.2801 20.3612L13.4308 19.5997ZM12.9453 24.6387V47.7832H14.9453V24.6387H12.9453ZM12.9453 47.7832C12.9453 49.1715 12.9772 50.3036 13.0434 51.17C13.1056 51.9835 13.2056 52.7086 13.4137 53.1727L15.2387 52.3546C15.1928 52.2523 15.1024 51.8641 15.0376 51.0175C14.9769 50.2238 14.9453 49.1488 14.9453 47.7832H12.9453ZM13.4256 53.1984C13.9309 54.245 14.9684 54.6133 16.0547 54.6133V52.6133C15.3832 52.6133 15.2683 52.4151 15.2267 52.3289L13.4256 53.1984ZM16.0547 54.6133C16.6147 54.6133 17.1641 54.508 17.6453 54.2307C18.1407 53.9452 18.4941 53.517 18.7079 52.9979L16.8585 52.2364C16.7988 52.3814 16.7275 52.4513 16.6467 52.4978C16.5517 52.5526 16.3735 52.6133 16.0547 52.6133V54.6133ZM18.7079 52.9979C18.9051 52.5189 19.0169 51.8524 19.0867 51.0897C19.1589 50.3006 19.1934 49.3128 19.1934 48.1348H17.1934C17.1934 49.281 17.1595 50.2023 17.095 50.9074C17.0281 51.6388 16.9347 52.0514 16.8585 52.2364L18.7079 52.9979ZM19.1934 48.1348V24.6387H17.1934V48.1348H19.1934ZM62.5137 33.1348L62.0401 32.254L60.0089 33.346L62.1944 34.0824L62.5137 33.1348ZM66.5273 36.123L65.6827 36.6584L65.6862 36.6638L66.5273 36.123ZM66.5566 54.5801L67.4802 54.9635L67.4815 54.9604L66.5566 54.5801ZM62.1035 59.3262L62.5573 60.2173L62.5638 60.2139L62.1035 59.3262ZM45.1406 59.0625L44.6284 59.9214L44.6377 59.9268L45.1406 59.0625ZM40.9219 54.4336L39.9814 54.7738L39.986 54.7858L40.9219 54.4336ZM39.9258 41.1621V40.1621H38.9258V41.1621H39.9258ZM51.7617 41.1621H52.7617V40.1621H51.7617V41.1621ZM52.1133 52.793L51.1893 53.1753L51.1974 53.1949L51.2063 53.2141L52.1133 52.793ZM53.5781 38.1445L53.255 39.0909L53.2654 39.0944L53.2759 39.0978L53.5781 38.1445ZM48.9199 37.6758H47.9199V38.659L48.903 38.6756L48.9199 37.6758ZM48.9199 30.791V29.791H47.9199V30.791H48.9199ZM54.1348 30.4688L53.8269 29.5173L54.1348 30.4688ZM55.4824 19.7461L54.6362 20.2789L54.6431 20.2899L54.6504 20.3008L55.4824 19.7461ZM52.2012 19.8047L51.3255 19.3216L51.3197 19.3325L52.2012 19.8047ZM51.7617 27.2461V28.2461H52.7617V27.2461H51.7617ZM39.9258 27.2461H38.9258V28.2461H39.9258V27.2461ZM43.0312 14.0332L43.6384 14.8278L43.6431 14.8242L43.0312 14.0332ZM66.3223 29.9121L67.1735 30.437L67.1773 30.4307L66.3223 29.9121ZM62.1944 34.0824C63.8094 34.6266 64.9451 35.4946 65.6827 36.6584L67.372 35.5877C66.3518 33.9781 64.8117 32.8539 62.833 32.1871L62.1944 34.0824ZM65.6862 36.6638C66.0014 37.1542 66.3094 38.1175 66.5253 39.7005C66.7365 41.2496 66.8457 43.2751 66.8457 45.791H68.8457C68.8457 43.2288 68.7352 41.104 68.5069 39.4303C68.2834 37.7908 67.9322 36.4591 67.3685 35.5823L65.6862 36.6638ZM66.8457 45.791C66.8457 49.5057 66.4192 52.2849 65.6318 54.1998L67.4815 54.9604C68.4128 52.6955 68.8457 49.6154 68.8457 45.791H66.8457ZM65.633 54.1967C64.8696 56.0359 63.5572 57.446 61.6432 58.4384L62.5638 60.2139C64.8686 59.0189 66.5249 57.2649 67.4802 54.9635L65.633 54.1967ZM61.6497 58.4351C59.7252 59.4152 57.1899 59.9375 53.9883 59.9375V61.9375C57.3882 61.9375 60.2631 61.3856 62.5573 60.2173L61.6497 58.4351ZM53.9883 59.9375C50.3319 59.9375 47.5807 59.3252 45.6435 58.1982L44.6377 59.9268C46.9975 61.2998 50.1447 61.9375 53.9883 61.9375V59.9375ZM45.6528 58.2036C43.6637 57.0175 42.4417 55.6329 41.8578 54.0814L39.986 54.7858C40.7692 56.8671 42.3597 58.5685 44.6284 59.9214L45.6528 58.2036ZM41.8623 54.0935C41.2632 52.4373 40.9258 49.4201 40.9258 44.9121H38.9258C38.9258 49.4275 39.2524 52.758 39.9815 54.7737L41.8623 54.0935ZM40.9258 44.9121V41.1621H38.9258V44.9121H40.9258ZM39.9258 42.1621H51.7617V40.1621H39.9258V42.1621ZM50.7617 41.1621V48.8672H52.7617V41.1621H50.7617ZM50.7617 48.8672C50.7617 49.9079 50.7913 50.7804 50.8536 51.4759C50.9133 52.143 51.01 52.7421 51.1893 53.1753L53.0373 52.4106C52.9822 52.2775 52.9031 51.9391 52.8456 51.2975C52.7907 50.6845 52.7617 49.8773 52.7617 48.8672H50.7617ZM51.2063 53.2141C51.6878 54.2513 52.7032 54.6133 53.7539 54.6133V52.6133C53.1249 52.6133 53.0465 52.4284 53.0203 52.3719L51.2063 53.2141ZM53.7539 54.6133C54.3359 54.6133 54.903 54.5022 55.3986 54.2144C55.9073 53.919 56.2707 53.4777 56.4934 52.9432L54.6472 52.174C54.577 52.3426 54.4912 52.4286 54.3943 52.4848C54.2845 52.5486 54.0899 52.6133 53.7539 52.6133V54.6133ZM56.4934 52.9432C56.7074 52.4295 56.8236 51.6499 56.8967 50.7338C56.973 49.7784 57.0098 48.5478 57.0098 47.0508H55.0098C55.0098 48.5225 54.9733 49.6942 54.9031 50.5748C54.8297 51.4947 54.7262 51.9846 54.6472 52.174L56.4934 52.9432ZM57.0098 47.0508V43.7695H55.0098V47.0508H57.0098ZM57.0098 43.7695C57.0098 41.9183 56.8073 40.3991 56.2931 39.3463L54.496 40.224C54.8021 40.8509 55.0098 41.9879 55.0098 43.7695H57.0098ZM56.2931 39.3463C55.7778 38.2912 54.9726 37.5376 53.8804 37.1913L53.2759 39.0978C53.7852 39.2592 54.1909 39.5994 54.496 40.224L56.2931 39.3463ZM53.9013 37.1982C52.9305 36.8667 51.2251 36.7147 48.9369 36.6759L48.903 38.6756C51.2241 38.715 52.6242 38.8755 53.255 39.0909L53.9013 37.1982ZM49.9199 37.6758V30.791H47.9199V37.6758H49.9199ZM48.9199 31.791C50.3359 31.791 51.4965 31.7641 52.3947 31.7085C53.2597 31.6551 53.9766 31.571 54.4426 31.4202L53.8269 29.5173C53.6289 29.5814 53.1446 29.6584 52.2713 29.7124C51.4313 29.7643 50.3164 29.791 48.9199 29.791V31.791ZM54.4426 31.4202C55.423 31.103 56.1077 30.3986 56.4971 29.4382L54.6436 28.6868C54.447 29.1717 54.1746 29.4048 53.8269 29.5173L54.4426 31.4202ZM56.4971 29.4382C56.8657 28.5289 57.0098 27.2347 57.0098 25.6641H55.0098C55.0098 27.1794 54.8609 28.1508 54.6436 28.6868L56.4971 29.4382ZM57.0098 25.6641V23.0273H55.0098V25.6641H57.0098ZM57.0098 23.0273C57.0098 22.1676 56.9646 21.4215 56.8653 20.8032C56.7692 20.2053 56.6085 19.6324 56.3145 19.1914L54.6504 20.3008C54.7079 20.3871 54.8109 20.6248 54.8906 21.1206C54.967 21.5961 55.0098 22.227 55.0098 23.0273H57.0098ZM56.3287 19.2133C55.7817 18.3445 54.9023 17.9551 53.9004 17.9551V19.9551C54.3438 19.9551 54.5191 20.093 54.6362 20.2789L56.3287 19.2133ZM53.9004 17.9551C52.83 17.9551 51.863 18.3475 51.3256 19.3216L53.0767 20.2878C53.1643 20.1291 53.3302 19.9551 53.9004 19.9551V17.9551ZM51.3197 19.3325C51.0834 19.7735 50.9563 20.3562 50.8792 20.978C50.799 21.6249 50.7617 22.4192 50.7617 23.3496H52.7617C52.7617 22.4636 52.7977 21.7588 52.864 21.2241C52.9334 20.6643 53.0259 20.3828 53.0827 20.2769L51.3197 19.3325ZM50.7617 23.3496V27.2461H52.7617V23.3496H50.7617ZM51.7617 26.2461H39.9258V28.2461H51.7617V26.2461ZM40.9258 27.2461V23.2031H38.9258V27.2461H40.9258ZM40.9258 23.2031C40.9258 18.7604 41.951 16.1172 43.6384 14.8278L42.4241 13.2386C39.9709 15.1132 38.9258 18.5834 38.9258 23.2031H40.9258ZM43.6431 14.8242C45.4509 13.4257 48.4698 12.6309 52.9043 12.6309V10.6309C48.3154 10.6309 44.7523 11.4376 42.4194 13.2422L43.6431 14.8242ZM52.9043 12.6309C58.4941 12.6309 61.9394 13.7388 63.6496 15.6151L65.1277 14.2678C62.8145 11.7299 58.6036 10.6309 52.9043 10.6309V12.6309ZM63.6496 15.6151C65.4462 17.5861 66.4062 20.3838 66.4062 24.1406H68.4062C68.4062 20.0459 67.3545 16.7108 65.1277 14.2678L63.6496 15.6151ZM66.4062 24.1406C66.4062 26.753 66.0424 28.4453 65.4673 29.3935L67.1773 30.4307C68.0474 28.9961 68.4062 26.8408 68.4062 24.1406H66.4062ZM65.4711 29.3872C64.8757 30.3527 63.773 31.3223 62.0401 32.254L62.9872 34.0155C64.8871 32.9941 66.3235 31.8152 67.1734 30.437L65.4711 29.3872Z" fill="white" fill-opacity="0.8"/>
</svg>
