<svg width="70" height="73" viewBox="0 0 70 73" fill="none" xmlns="http://www.w3.org/2000/svg">
<path d="M27.0117 56.8945L26.2547 56.2412L27.0117 56.8945ZM9.66797 59.9414L9.33411 60.8841L9.34289 60.8871L9.66797 59.9414ZM2.8125 52.5L1.85567 52.7907L1.85672 52.7941L2.8125 52.5ZM3.22266 18.8379L2.27917 18.5064L2.27656 18.514L3.22266 18.8379ZM7.70508 13.623L7.20167 12.759L7.19839 12.7609L7.70508 13.623ZM22.8223 13.0371L22.4137 13.9499L22.421 13.9531L22.8223 13.0371ZM29.4727 20.7715L28.4948 20.981L28.4973 20.9921L29.4727 20.7715ZM17.8125 19.9219L16.8727 20.2636L16.879 20.2811L16.886 20.2983L17.8125 19.9219ZM14.3555 19.9805L13.4363 19.5865L13.4335 19.5931L13.4308 19.5997L14.3555 19.9805ZM14.3262 52.7637L13.4137 53.1727L13.4195 53.1857L13.4256 53.1984L14.3262 52.7637ZM29.0293 28.623V44.4434H31.0293V28.623H29.0293ZM29.0293 44.4434C29.0293 48.0263 28.8323 50.5439 28.4706 52.0633L30.4162 52.5265C30.8357 50.7647 31.0293 48.048 31.0293 44.4434H29.0293ZM28.4706 52.0633C28.1212 53.5306 27.3929 54.9223 26.2547 56.2412L27.7688 57.5479C29.0915 56.0152 29.9843 54.3404 30.4162 52.5265L28.4706 52.0633ZM26.2547 56.2412C25.1344 57.5393 23.7932 58.4641 22.2202 59.0297L22.8969 60.9117C24.8005 60.2273 26.4281 59.1013 27.7688 57.5479L26.2547 56.2412ZM22.2202 59.0297C20.6066 59.6099 18.7801 59.9082 16.7285 59.9082V61.9082C18.9738 61.9082 21.034 61.5815 22.8969 60.9117L22.2202 59.0297ZM16.7285 59.9082C13.9638 59.9082 11.7291 59.5925 9.99305 58.9957L9.34289 60.8871C11.3568 61.5794 13.8292 61.9082 16.7285 61.9082V59.9082ZM10.0018 58.9988C8.28063 58.3892 6.94886 57.4643 5.96534 56.2392L4.40575 57.4913C5.64879 59.0396 7.30531 60.1655 9.33412 60.884L10.0018 58.9988ZM5.96534 56.2392C4.92204 54.9396 4.19581 53.5954 3.76828 52.2059L1.85672 52.7941C2.36669 54.4515 3.22249 56.0174 4.40575 57.4913L5.96534 56.2392ZM3.76932 52.2093C3.34594 50.8157 3.10938 48.499 3.10938 45.1758H1.10938C1.10938 48.5322 1.34156 51.0984 1.85568 52.7907L3.76932 52.2093ZM3.10938 45.1758V28.623H1.10938V45.1758H3.10938ZM3.10938 28.623C3.10938 24.2972 3.48134 21.1697 4.16875 19.1618L2.27656 18.514C1.47959 20.842 1.10938 24.238 1.10938 28.623H3.10938ZM4.16612 19.1694C4.83976 17.2521 6.16203 15.6898 8.21177 14.4852L7.19839 12.7609C4.795 14.1734 3.12899 16.0878 2.2792 18.5064L4.16612 19.1694ZM8.20848 14.4871C10.2709 13.2855 12.8033 12.6602 15.8496 12.6602V10.6602C12.5287 10.6602 9.63149 11.3434 7.20167 12.759L8.20848 14.4871ZM15.8496 12.6602C18.3283 12.6602 20.51 13.0977 22.4137 13.9498L23.2308 12.1244C21.033 11.1406 18.5662 10.6602 15.8496 10.6602V12.6602ZM22.421 13.9531C24.3704 14.8071 25.7482 15.8222 26.6319 16.9608L28.2119 15.7345C27.0643 14.256 25.3757 13.064 23.2235 12.1212L22.421 13.9531ZM26.6319 16.9608C27.5542 18.1491 28.1744 19.4854 28.4949 20.981L30.4505 20.562C30.0678 18.7764 29.3208 17.1634 28.2119 15.7345L26.6319 16.9608ZM28.4973 20.9921C28.8422 22.517 29.0293 25.0394 29.0293 28.623H31.0293C31.0293 25.0191 30.8453 22.3072 30.448 20.5509L28.4973 20.9921ZM19.1934 24.6387C19.1934 23.3658 19.1614 22.3132 19.0949 21.4893C19.0312 20.7009 18.9293 20.014 18.739 19.5455L16.886 20.2983C16.9496 20.4548 17.0381 20.8665 17.1014 21.6503C17.1618 22.3988 17.1934 23.392 17.1934 24.6387H19.1934ZM18.7523 19.5801C18.5586 19.0475 18.2074 18.6126 17.7064 18.3276C17.2261 18.0543 16.6732 17.9551 16.1133 17.9551V19.9551C16.4518 19.9551 16.6313 20.017 16.7174 20.0659C16.7828 20.1032 16.832 20.1517 16.8727 20.2636L18.7523 19.5801ZM16.1133 17.9551C15.5479 17.9551 14.9955 18.0649 14.5108 18.3476C14.0146 18.6371 13.6587 19.0677 13.4363 19.5865L15.2746 20.3744C15.3452 20.2096 15.4288 20.1276 15.5185 20.0752C15.6197 20.0162 15.7997 19.9551 16.1133 19.9551V17.9551ZM13.4308 19.5997C13.232 20.0825 13.1211 20.7677 13.0517 21.5554C12.9798 22.3724 12.9453 23.4031 12.9453 24.6387H14.9453C14.9453 23.4329 14.9792 22.4665 15.044 21.7308C15.1114 20.9657 15.2055 20.5425 15.2801 20.3612L13.4308 19.5997ZM12.9453 24.6387V47.7832H14.9453V24.6387H12.9453ZM12.9453 47.7832C12.9453 49.1715 12.9772 50.3036 13.0434 51.17C13.1056 51.9835 13.2056 52.7086 13.4137 53.1727L15.2387 52.3546C15.1928 52.2523 15.1024 51.8641 15.0376 51.0175C14.9769 50.2238 14.9453 49.1488 14.9453 47.7832H12.9453ZM13.4256 53.1984C13.9309 54.245 14.9684 54.6133 16.0547 54.6133V52.6133C15.3832 52.6133 15.2683 52.4151 15.2267 52.3289L13.4256 53.1984ZM16.0547 54.6133C16.6147 54.6133 17.1641 54.508 17.6453 54.2307C18.1407 53.9452 18.4941 53.517 18.7079 52.9979L16.8585 52.2364C16.7988 52.3814 16.7275 52.4513 16.6467 52.4978C16.5517 52.5526 16.3735 52.6133 16.0547 52.6133V54.6133ZM18.7079 52.9979C18.9051 52.5189 19.0169 51.8524 19.0867 51.0897C19.1589 50.3006 19.1934 49.3128 19.1934 48.1348H17.1934C17.1934 49.281 17.1595 50.2023 17.095 50.9074C17.0281 51.6388 16.9347 52.0514 16.8585 52.2364L18.7079 52.9979ZM19.1934 48.1348V24.6387H17.1934V48.1348H19.1934ZM64.418 12.5684H65.418V11.5684H64.418V12.5684ZM64.418 43.5645H63.418V44.5645H64.418V43.5645ZM67.7871 43.5645H68.7871V42.5645H67.7871V43.5645ZM67.7871 51.6504V52.6504H68.7871V51.6504H67.7871ZM64.418 51.6504V50.6504H63.418V51.6504H64.418ZM64.418 60V61H65.418V60H64.418ZM52.582 60H51.582V61H52.582V60ZM52.582 51.6504H53.582V50.6504H52.582V51.6504ZM38.5195 51.6504H37.5195V52.6504H38.5195V51.6504ZM38.5195 43.5645L37.5699 43.2512L37.5195 43.4038V43.5645H38.5195ZM48.7441 12.5684V11.5684H48.021L47.7945 12.2551L48.7441 12.5684ZM52.582 43.5645V44.5645H53.582V43.5645H52.582ZM52.582 23.3789H53.582L51.6138 23.1288L52.582 23.3789ZM47.3672 43.5645L46.399 43.3143L46.076 44.5645H47.3672V43.5645ZM63.418 12.5684V43.5645H65.418V12.5684H63.418ZM64.418 44.5645H67.7871V42.5645H64.418V44.5645ZM66.7871 43.5645V51.6504H68.7871V43.5645H66.7871ZM67.7871 50.6504H64.418V52.6504H67.7871V50.6504ZM63.418 51.6504V60H65.418V51.6504H63.418ZM64.418 59H52.582V61H64.418V59ZM53.582 60V51.6504H51.582V60H53.582ZM52.582 50.6504H38.5195V52.6504H52.582V50.6504ZM39.5195 51.6504V43.5645H37.5195V51.6504H39.5195ZM39.4692 43.8777L49.6938 12.8816L47.7945 12.2551L37.5699 43.2512L39.4692 43.8777ZM48.7441 13.5684H64.418V11.5684H48.7441V13.5684ZM53.582 43.5645V23.3789H51.582V43.5645H53.582ZM51.6138 23.1288L46.399 43.3143L48.3354 43.8146L53.5502 23.629L51.6138 23.1288ZM47.3672 44.5645H52.582V42.5645H47.3672V44.5645Z" fill="white" fill-opacity="0.8"/>
</svg>
