<svg width="115" height="73" viewBox="0 0 117 73" fill="none" xmlns="http://www.w3.org/2000/svg">
<g filter="url(#filter0_d_803_3)">
<path d="M29.0117 56.8945L28.2547 56.2412L29.0117 56.8945ZM11.668 59.9414L11.3341 60.8841L11.3429 60.8871L11.668 59.9414ZM4.8125 52.5L3.85567 52.7907L3.85672 52.7941L4.8125 52.5ZM5.22266 18.8379L4.27917 18.5064L4.27656 18.514L5.22266 18.8379ZM9.70508 13.623L9.20167 12.759L9.19839 12.7609L9.70508 13.623ZM24.8223 13.0371L24.4137 13.9499L24.421 13.9531L24.8223 13.0371ZM31.4727 20.7715L30.4948 20.981L30.4973 20.9921L31.4727 20.7715ZM19.8125 19.9219L18.8727 20.2636L18.879 20.2811L18.886 20.2983L19.8125 19.9219ZM16.3555 19.9805L15.4363 19.5865L15.4335 19.5931L15.4308 19.5997L16.3555 19.9805ZM16.3262 52.7637L15.4137 53.1727L15.4195 53.1857L15.4256 53.1984L16.3262 52.7637ZM31.0293 28.623V44.4434H33.0293V28.623H31.0293ZM31.0293 44.4434C31.0293 48.0263 30.8323 50.5439 30.4706 52.0633L32.4162 52.5265C32.8357 50.7647 33.0293 48.048 33.0293 44.4434H31.0293ZM30.4706 52.0633C30.1212 53.5306 29.3929 54.9223 28.2547 56.2412L29.7688 57.5479C31.0915 56.0152 31.9843 54.3404 32.4162 52.5265L30.4706 52.0633ZM28.2547 56.2412C27.1344 57.5393 25.7932 58.4641 24.2202 59.0297L24.8969 60.9117C26.8005 60.2273 28.4281 59.1013 29.7688 57.5479L28.2547 56.2412ZM24.2202 59.0297C22.6066 59.6099 20.7801 59.9082 18.7285 59.9082V61.9082C20.9738 61.9082 23.034 61.5815 24.8969 60.9117L24.2202 59.0297ZM18.7285 59.9082C15.9638 59.9082 13.7291 59.5925 11.993 58.9957L11.3429 60.8871C13.3568 61.5794 15.8292 61.9082 18.7285 61.9082V59.9082ZM12.0018 58.9988C10.2806 58.3892 8.94886 57.4643 7.96534 56.2392L6.40575 57.4913C7.64879 59.0396 9.30531 60.1655 11.3341 60.884L12.0018 58.9988ZM7.96534 56.2392C6.92204 54.9396 6.19581 53.5954 5.76828 52.2059L3.85672 52.7941C4.36669 54.4515 5.22249 56.0174 6.40575 57.4913L7.96534 56.2392ZM5.76932 52.2093C5.34594 50.8157 5.10938 48.499 5.10938 45.1758H3.10938C3.10938 48.5322 3.34156 51.0984 3.85568 52.7907L5.76932 52.2093ZM5.10938 45.1758V28.623H3.10938V45.1758H5.10938ZM5.10938 28.623C5.10938 24.2972 5.48134 21.1697 6.16875 19.1618L4.27656 18.514C3.47959 20.842 3.10938 24.238 3.10938 28.623H5.10938ZM6.16612 19.1694C6.83976 17.2521 8.16203 15.6898 10.2118 14.4852L9.19839 12.7609C6.795 14.1734 5.12899 16.0878 4.2792 18.5064L6.16612 19.1694ZM10.2085 14.4871C12.2709 13.2855 14.8033 12.6602 17.8496 12.6602V10.6602C14.5287 10.6602 11.6315 11.3434 9.20167 12.759L10.2085 14.4871ZM17.8496 12.6602C20.3283 12.6602 22.51 13.0977 24.4137 13.9498L25.2308 12.1244C23.033 11.1406 20.5662 10.6602 17.8496 10.6602V12.6602ZM24.421 13.9531C26.3704 14.8071 27.7482 15.8222 28.6319 16.9608L30.2119 15.7345C29.0643 14.256 27.3757 13.064 25.2235 12.1212L24.421 13.9531ZM28.6319 16.9608C29.5542 18.1491 30.1744 19.4854 30.4949 20.981L32.4505 20.562C32.0678 18.7764 31.3208 17.1634 30.2119 15.7345L28.6319 16.9608ZM30.4973 20.9921C30.8422 22.517 31.0293 25.0394 31.0293 28.623H33.0293C33.0293 25.0191 32.8453 22.3072 32.448 20.5509L30.4973 20.9921ZM21.1934 24.6387C21.1934 23.3658 21.1614 22.3132 21.0949 21.4893C21.0312 20.7009 20.9293 20.014 20.739 19.5455L18.886 20.2983C18.9496 20.4547 19.0381 20.8665 19.1014 21.6503C19.1618 22.3988 19.1934 23.392 19.1934 24.6387H21.1934ZM20.7523 19.5801C20.5586 19.0475 20.2074 18.6126 19.7064 18.3276C19.2261 18.0543 18.6732 17.9551 18.1133 17.9551V19.9551C18.4518 19.9551 18.6313 20.017 18.7174 20.0659C18.7828 20.1032 18.832 20.1517 18.8727 20.2636L20.7523 19.5801ZM18.1133 17.9551C17.5479 17.9551 16.9955 18.0649 16.5108 18.3476C16.0146 18.6371 15.6587 19.0677 15.4363 19.5865L17.2746 20.3744C17.3452 20.2096 17.4288 20.1276 17.5185 20.0752C17.6197 20.0162 17.7997 19.9551 18.1133 19.9551V17.9551ZM15.4308 19.5997C15.232 20.0825 15.1211 20.7677 15.0517 21.5554C14.9798 22.3724 14.9453 23.4031 14.9453 24.6387H16.9453C16.9453 23.4329 16.9792 22.4665 17.044 21.7308C17.1114 20.9657 17.2055 20.5425 17.2801 20.3612L15.4308 19.5997ZM14.9453 24.6387V47.7832H16.9453V24.6387H14.9453ZM14.9453 47.7832C14.9453 49.1715 14.9772 50.3036 15.0434 51.17C15.1056 51.9835 15.2056 52.7086 15.4137 53.1727L17.2387 52.3546C17.1928 52.2523 17.1024 51.8641 17.0376 51.0175C16.9769 50.2238 16.9453 49.1488 16.9453 47.7832H14.9453ZM15.4256 53.1984C15.9309 54.245 16.9684 54.6133 18.0547 54.6133V52.6133C17.3832 52.6133 17.2683 52.4151 17.2267 52.3289L15.4256 53.1984ZM18.0547 54.6133C18.6147 54.6133 19.1641 54.508 19.6453 54.2307C20.1407 53.9452 20.4941 53.517 20.7079 52.9979L18.8585 52.2364C18.7988 52.3814 18.7275 52.4513 18.6467 52.4978C18.5517 52.5526 18.3735 52.6133 18.0547 52.6133V54.6133ZM20.7079 52.9979C20.9051 52.5189 21.0169 51.8524 21.0867 51.0897C21.1589 50.3006 21.1934 49.3128 21.1934 48.1348H19.1934C19.1934 49.281 19.1595 50.2023 19.095 50.9074C19.0281 51.6388 18.9347 52.0514 18.8585 52.2364L20.7079 52.9979ZM21.1934 48.1348V24.6387H19.1934V48.1348H21.1934ZM70.6953 25.166V26.166H71.6953V25.166H70.6953ZM58.8594 25.166H57.8594V26.166H58.8594V25.166ZM58.7715 21.0059L57.7737 21.0724L57.7749 21.0906L57.7768 21.1088L58.7715 21.0059ZM58.0684 19.541L57.3787 20.2652L57.3871 20.2732L57.3957 20.281L58.0684 19.541ZM54.875 19.5117L54.1863 18.7867L54.875 19.5117ZM54.1133 32.0508H53.1133L55.0159 32.4813L54.1133 32.0508ZM56.7793 29.209L57.2499 30.0914L57.2612 30.0852L56.7793 29.209ZM70.0215 34.2188L70.986 33.9547L70.0215 34.2188ZM70.3145 52.0605L69.3265 51.9058L70.3145 52.0605ZM68.2637 56.5723L67.4839 55.9462L67.4828 55.9476L68.2637 56.5723ZM63.7227 59.7656L63.3561 58.8352L63.3529 58.8365L63.7227 59.7656ZM44.4746 55.8105L43.6395 56.3608L43.6471 56.372L44.4746 55.8105ZM42.541 50.5957L41.5456 50.692L41.5467 50.7026L42.541 50.5957ZM42.5117 22.1484L41.5159 22.057L41.5151 22.0662L42.5117 22.1484ZM49.4258 12.9199L49.8048 13.8453L49.8092 13.8435L49.4258 12.9199ZM69.3184 17.7832L70.2234 17.3578L69.3184 17.7832ZM54.6699 36.4746L53.8296 35.9325L53.8251 35.9396L54.6699 36.4746ZM54.6406 52.6465L53.7627 53.1253L53.7683 53.1355L53.774 53.1454L54.6406 52.6465ZM58.0391 52.8809L58.7051 53.6268L58.7124 53.6203L58.7195 53.6137L58.0391 52.8809ZM70.6953 24.166H58.8594V26.166H70.6953V24.166ZM59.8594 25.166C59.8594 22.9772 59.8313 21.532 59.7662 20.903L57.7768 21.1088C57.8289 21.6125 57.8594 22.9408 57.8594 25.166H59.8594ZM59.7693 20.9393C59.7132 20.0986 59.3645 19.3679 58.741 18.8011L57.3957 20.281C57.6316 20.4954 57.7516 20.7413 57.7737 21.0724L59.7693 20.9393ZM58.758 18.8169C58.1146 18.2041 57.2748 17.9551 56.3691 17.9551V19.9551C56.9088 19.9551 57.2018 20.0967 57.3787 20.2652L58.758 18.8169ZM56.3691 17.9551C55.5417 17.9551 54.7862 18.2167 54.1863 18.7867L55.5637 20.2367C55.745 20.0645 55.9857 19.9551 56.3691 19.9551V17.9551ZM54.1863 18.7867C53.6052 19.3387 53.2862 20.0472 53.2061 20.8478L55.1962 21.0468C55.2333 20.6754 55.3635 20.427 55.5637 20.2367L54.1863 18.7867ZM53.2061 20.8478C53.1417 21.4917 53.1133 22.7234 53.1133 24.4922H55.1133C55.1133 22.7062 55.1434 21.5747 55.1962 21.0468L53.2061 20.8478ZM53.1133 24.4922V32.0508H55.1133V24.4922H53.1133ZM55.0159 32.4813C55.5351 31.3925 56.2781 30.6096 57.2499 30.0913L56.3087 28.3266C54.9367 29.0584 53.9024 30.17 53.2107 31.6203L55.0159 32.4813ZM57.2612 30.0852C58.2492 29.5418 59.5181 29.2422 61.1152 29.2422V27.2422C59.2748 27.2422 57.6531 27.5871 56.2974 28.3328L57.2612 30.0852ZM61.1152 29.2422C63.0913 29.2422 64.8008 29.7723 66.2807 30.817L67.4341 29.183C65.5937 27.8839 63.4751 27.2422 61.1152 27.2422V29.2422ZM66.2807 30.817C67.7899 31.8822 68.6804 33.1074 69.057 34.4828L70.986 33.9547C70.4641 32.0488 69.2453 30.4615 67.4341 29.183L66.2807 30.817ZM69.057 34.4828C69.4725 36.0002 69.6953 38.1161 69.6953 40.8691H71.6953C71.6953 38.0362 71.469 35.7186 70.986 33.9547L69.057 34.4828ZM69.6953 40.8691V44.6484H71.6953V40.8691H69.6953ZM69.6953 44.6484C69.6953 47.9581 69.5679 50.3648 69.3265 51.9058L71.3024 52.2153C71.5689 50.5141 71.6953 47.9794 71.6953 44.6484H69.6953ZM69.3265 51.9058C69.1019 53.34 68.4972 54.684 67.4839 55.9462L69.0435 57.1983C70.2567 55.6871 71.0192 54.0233 71.3024 52.2153L69.3265 51.9058ZM67.4828 55.9476C66.5169 57.1549 65.1578 58.1255 63.3561 58.8352L64.0892 60.696C66.1547 59.8823 67.8229 58.724 69.0445 57.197L67.4828 55.9476ZM63.3529 58.8365C61.5812 59.5416 59.4752 59.9082 57.0137 59.9082V61.9082C59.6693 61.9082 62.036 61.5131 64.0924 60.6948L63.3529 58.8365ZM57.0137 59.9082C53.9115 59.9082 51.4521 59.4784 49.5885 58.6721L48.7943 60.5076C50.9932 61.4591 53.7487 61.9082 57.0137 61.9082V59.9082ZM49.5885 58.6721C47.7107 57.8596 46.2966 56.7146 45.3021 55.249L43.6471 56.372C44.8792 58.1878 46.6096 59.5623 48.7943 60.5076L49.5885 58.6721ZM45.3097 55.2604C44.2956 53.7212 43.7121 52.1332 43.5353 50.4888L41.5467 50.7026C41.7606 52.691 42.4661 54.5796 43.6395 56.3607L45.3097 55.2604ZM43.5364 50.4994C43.366 48.7385 43.2773 45.2604 43.2773 40.0195H41.2773C41.2773 45.2474 41.3645 48.8201 41.5457 50.692L43.5364 50.4994ZM43.2773 40.0195V33.457H41.2773V40.0195H43.2773ZM43.2773 33.457C43.2773 27.8059 43.356 24.0774 43.5083 22.2306L41.5151 22.0662C41.3549 24.0085 41.2773 27.8191 41.2773 33.457H43.2773ZM43.5075 22.2399C43.6661 20.5131 44.2817 18.8709 45.3813 17.3026L43.7437 16.1544C42.4605 17.9846 41.7089 19.9556 41.5159 22.057L43.5075 22.2399ZM45.3813 17.3026C46.4552 15.771 47.9186 14.6177 49.8048 13.8453L49.0468 11.9945C46.8314 12.9018 45.0526 14.2876 43.7437 16.1544L45.3813 17.3026ZM49.8092 13.8435C51.736 13.0437 53.9844 12.6309 56.5742 12.6309V10.6309C53.7734 10.6309 51.2562 11.0774 49.0424 11.9963L49.8092 13.8435ZM56.5742 12.6309C59.7959 12.6309 62.3522 13.1534 64.2976 14.135L65.1985 12.3494C62.8861 11.1826 59.9932 10.6309 56.5742 10.6309V12.6309ZM64.2976 14.135C66.2492 15.1197 67.6005 16.479 68.4133 18.2086L70.2234 17.3578C69.2003 15.1811 67.5047 13.5131 65.1985 12.3494L64.2976 14.135ZM68.4133 18.2086C69.2499 19.9884 69.6953 22.2923 69.6953 25.166H71.6953C71.6953 22.1022 71.2228 19.4842 70.2234 17.3578L68.4133 18.2086ZM59.8594 39.9609C59.8594 39.0888 59.8115 38.324 59.7075 37.6779C59.6054 37.0437 59.4394 36.4596 59.1626 35.9934L57.4429 37.0144C57.5371 37.1732 57.6495 37.4778 57.7329 37.9959C57.8145 38.5022 57.8594 39.1533 57.8594 39.9609H59.8594ZM59.1626 35.9934C58.5804 35.0128 57.6139 34.5664 56.4863 34.5664V36.5664C57.0385 36.5664 57.2829 36.745 57.4429 37.0144L59.1626 35.9934ZM56.4863 34.5664C55.3816 34.5664 54.4325 34.998 53.8296 35.9325L55.5102 37.0167C55.6886 36.7402 55.9504 36.5664 56.4863 36.5664V34.5664ZM53.8251 35.9396C53.5331 36.4005 53.3663 36.9934 53.2649 37.628C53.1609 38.2794 53.1133 39.0614 53.1133 39.9609H55.1133C55.1133 39.1222 55.1584 38.454 55.2399 37.9433C55.3242 37.4158 55.4356 37.1346 55.5147 37.0097L53.8251 35.9396ZM53.1133 39.9609V48.5449H55.1133V39.9609H53.1133ZM53.1133 48.5449C53.1133 49.6131 53.1579 50.5237 53.2533 51.2652C53.3456 51.9833 53.496 52.6363 53.7627 53.1253L55.5185 52.1676C55.4337 52.0121 55.3204 51.6593 55.237 51.0102C55.1565 50.3845 55.1133 49.5665 55.1133 48.5449H53.1133ZM53.774 53.1454C54.3497 54.1454 55.3151 54.6133 56.457 54.6133V52.6133C55.9192 52.6133 55.6737 52.4367 55.5072 52.1475L53.774 53.1454ZM56.457 54.6133C57.3002 54.6133 58.0552 54.2071 58.7051 53.6268L57.373 52.1349C56.9292 52.5312 56.6295 52.6133 56.457 52.6133V54.6133ZM58.7195 53.6137C59.2292 53.1404 59.4864 52.4174 59.6343 51.6881C59.7897 50.9222 59.8594 49.9642 59.8594 48.8379H57.8594C57.8594 49.899 57.7923 50.7087 57.6743 51.2904C57.5488 51.9088 57.3958 52.1135 57.3586 52.1481L58.7195 53.6137ZM59.8594 48.8379V39.9609H57.8594V48.8379H59.8594Z" fill="#7E92FF"/>
</g>
<defs>
<filter id="filter0_d_803_3" x="-2" y="0" width="123" height="81" filterUnits="userSpaceOnUse" color-interpolation-filters="sRGB">
<feFlood flood-opacity="0" result="BackgroundImageFix"/>
<feColorMatrix in="SourceAlpha" type="matrix" values="0 0 0 0 0 0 0 0 0 0 0 0 0 0 0 0 0 0 127 0" result="hardAlpha"/>
<feOffset dy="4"/>
<feGaussianBlur stdDeviation="2"/>
<feComposite in2="hardAlpha" operator="out"/>
<feColorMatrix type="matrix" values="0 0 0 0 0 0 0 0 0 0 0 0 0 0 0 0 0 0 0.25 0"/>
<feBlend mode="normal" in2="BackgroundImageFix" result="effect1_dropShadow_803_3"/>
<feBlend mode="normal" in="SourceGraphic" in2="effect1_dropShadow_803_3" result="shape"/>
</filter>
</defs>
</svg>
