<svg width="70" height="73" viewBox="0 0 70 73" fill="none" xmlns="http://www.w3.org/2000/svg">
<path d="M27.0117 56.8945L26.2547 56.2412L27.0117 56.8945ZM9.66797 59.9414L9.33411 60.8841L9.34289 60.8871L9.66797 59.9414ZM2.8125 52.5L1.85567 52.7907L1.85672 52.7941L2.8125 52.5ZM3.22266 18.8379L2.27917 18.5064L2.27656 18.514L3.22266 18.8379ZM7.70508 13.623L7.20167 12.759L7.19839 12.7609L7.70508 13.623ZM22.8223 13.0371L22.4137 13.9499L22.421 13.9531L22.8223 13.0371ZM29.4727 20.7715L28.4948 20.981L28.4973 20.9921L29.4727 20.7715ZM17.8125 19.9219L16.8727 20.2636L16.879 20.2811L16.886 20.2983L17.8125 19.9219ZM14.3555 19.9805L13.4363 19.5865L13.4335 19.5931L13.4308 19.5997L14.3555 19.9805ZM14.3262 52.7637L13.4137 53.1727L13.4195 53.1857L13.4256 53.1984L14.3262 52.7637ZM29.0293 28.623V44.4434H31.0293V28.623H29.0293ZM29.0293 44.4434C29.0293 48.0263 28.8323 50.5439 28.4706 52.0633L30.4162 52.5265C30.8357 50.7647 31.0293 48.048 31.0293 44.4434H29.0293ZM28.4706 52.0633C28.1212 53.5306 27.3929 54.9223 26.2547 56.2412L27.7688 57.5479C29.0915 56.0152 29.9843 54.3404 30.4162 52.5265L28.4706 52.0633ZM26.2547 56.2412C25.1344 57.5393 23.7932 58.4641 22.2202 59.0297L22.8969 60.9117C24.8005 60.2273 26.4281 59.1013 27.7688 57.5479L26.2547 56.2412ZM22.2202 59.0297C20.6066 59.6099 18.7801 59.9082 16.7285 59.9082V61.9082C18.9738 61.9082 21.034 61.5815 22.8969 60.9117L22.2202 59.0297ZM16.7285 59.9082C13.9638 59.9082 11.7291 59.5925 9.99305 58.9957L9.34289 60.8871C11.3568 61.5794 13.8292 61.9082 16.7285 61.9082V59.9082ZM10.0018 58.9988C8.28063 58.3892 6.94886 57.4643 5.96534 56.2392L4.40575 57.4913C5.64879 59.0396 7.30531 60.1655 9.33412 60.884L10.0018 58.9988ZM5.96534 56.2392C4.92204 54.9396 4.19581 53.5954 3.76828 52.2059L1.85672 52.7941C2.36669 54.4515 3.22249 56.0174 4.40575 57.4913L5.96534 56.2392ZM3.76932 52.2093C3.34594 50.8157 3.10938 48.499 3.10938 45.1758H1.10938C1.10938 48.5322 1.34156 51.0984 1.85568 52.7907L3.76932 52.2093ZM3.10938 45.1758V28.623H1.10938V45.1758H3.10938ZM3.10938 28.623C3.10938 24.2972 3.48134 21.1697 4.16875 19.1618L2.27656 18.514C1.47959 20.842 1.10938 24.238 1.10938 28.623H3.10938ZM4.16612 19.1694C4.83976 17.2521 6.16203 15.6898 8.21177 14.4852L7.19839 12.7609C4.795 14.1734 3.12899 16.0878 2.2792 18.5064L4.16612 19.1694ZM8.20848 14.4871C10.2709 13.2855 12.8033 12.6602 15.8496 12.6602V10.6602C12.5287 10.6602 9.63149 11.3434 7.20167 12.759L8.20848 14.4871ZM15.8496 12.6602C18.3283 12.6602 20.51 13.0977 22.4137 13.9498L23.2308 12.1244C21.033 11.1406 18.5662 10.6602 15.8496 10.6602V12.6602ZM22.421 13.9531C24.3704 14.8071 25.7482 15.8222 26.6319 16.9608L28.2119 15.7345C27.0643 14.256 25.3757 13.064 23.2235 12.1212L22.421 13.9531ZM26.6319 16.9608C27.5542 18.1491 28.1744 19.4854 28.4949 20.981L30.4505 20.562C30.0678 18.7764 29.3208 17.1634 28.2119 15.7345L26.6319 16.9608ZM28.4973 20.9921C28.8422 22.517 29.0293 25.0394 29.0293 28.623H31.0293C31.0293 25.0191 30.8453 22.3072 30.448 20.5509L28.4973 20.9921ZM19.1934 24.6387C19.1934 23.3658 19.1614 22.3132 19.0949 21.4893C19.0312 20.7009 18.9293 20.014 18.739 19.5455L16.886 20.2983C16.9496 20.4547 17.0381 20.8665 17.1014 21.6503C17.1618 22.3988 17.1934 23.392 17.1934 24.6387H19.1934ZM18.7523 19.5801C18.5586 19.0475 18.2074 18.6126 17.7064 18.3276C17.2261 18.0543 16.6732 17.9551 16.1133 17.9551V19.9551C16.4518 19.9551 16.6313 20.017 16.7174 20.0659C16.7828 20.1032 16.832 20.1517 16.8727 20.2636L18.7523 19.5801ZM16.1133 17.9551C15.5479 17.9551 14.9955 18.0649 14.5108 18.3476C14.0146 18.6371 13.6587 19.0677 13.4363 19.5865L15.2746 20.3744C15.3452 20.2096 15.4288 20.1276 15.5185 20.0752C15.6197 20.0162 15.7997 19.9551 16.1133 19.9551V17.9551ZM13.4308 19.5997C13.232 20.0825 13.1211 20.7677 13.0517 21.5554C12.9798 22.3724 12.9453 23.4031 12.9453 24.6387H14.9453C14.9453 23.4329 14.9792 22.4665 15.044 21.7308C15.1114 20.9657 15.2055 20.5425 15.2801 20.3612L13.4308 19.5997ZM12.9453 24.6387V47.7832H14.9453V24.6387H12.9453ZM12.9453 47.7832C12.9453 49.1715 12.9772 50.3036 13.0434 51.17C13.1056 51.9835 13.2056 52.7086 13.4137 53.1727L15.2387 52.3546C15.1928 52.2523 15.1024 51.8641 15.0376 51.0175C14.9769 50.2238 14.9453 49.1488 14.9453 47.7832H12.9453ZM13.4256 53.1984C13.9309 54.245 14.9684 54.6133 16.0547 54.6133V52.6133C15.3832 52.6133 15.2683 52.4151 15.2267 52.3289L13.4256 53.1984ZM16.0547 54.6133C16.6147 54.6133 17.1641 54.508 17.6453 54.2307C18.1407 53.9452 18.4941 53.517 18.7079 52.9979L16.8585 52.2364C16.7988 52.3814 16.7275 52.4513 16.6467 52.4978C16.5517 52.5526 16.3735 52.6133 16.0547 52.6133V54.6133ZM18.7079 52.9979C18.9051 52.5189 19.0169 51.8524 19.0867 51.0897C19.1589 50.3006 19.1934 49.3128 19.1934 48.1348H17.1934C17.1934 49.281 17.1595 50.2023 17.095 50.9074C17.0281 51.6388 16.9347 52.0514 16.8585 52.2364L18.7079 52.9979ZM19.1934 48.1348V24.6387H17.1934V48.1348H19.1934ZM66.1172 12.5684H67.1172V11.5684H66.1172V12.5684ZM66.1172 20.1562V21.1562H67.1172V20.1562H66.1172ZM51.4395 20.1562V19.1562H50.4395V20.1562H51.4395ZM51.4395 28.2129H50.4395V30.9411L52.2026 28.8591L51.4395 28.2129ZM65.9121 27.7148L65.1703 28.3856L65.1779 28.3938L65.9121 27.7148ZM67.9336 52.4121L66.9549 52.2067L66.953 52.216L67.9336 52.4121ZM65.8828 56.7773L66.6659 57.3992L66.6703 57.3937L65.8828 56.7773ZM61.459 59.8535L61.8101 60.7899L61.8154 60.7879L61.459 59.8535ZM46.5176 59.3262L46.098 60.2339L46.1044 60.2368L46.5176 59.3262ZM40.1016 42.1875V41.1875H39.1016V42.1875H40.1016ZM51.9375 42.1875H52.9375V41.1875H51.9375V42.1875ZM55.8926 53.0566L55.1855 52.3495L55.1759 52.3591L55.1666 52.3689L55.8926 53.0566ZM56.4785 51.8555L55.4826 51.7649L55.4806 51.7875L55.4795 51.8101L56.4785 51.8555ZM56.5957 46.2598L57.5957 46.2716V46.2598H56.5957ZM52.8164 32.7539L53.4832 33.4991L52.8164 32.7539ZM52.084 33.8379L51.1262 33.5505L51.1213 33.5669L51.1169 33.5834L52.084 33.8379ZM51.9375 36.4746V37.4746H52.9375V36.4746H51.9375ZM40.2188 36.4746L39.219 36.4538L39.1977 37.4746H40.2188V36.4746ZM40.7168 12.5684V11.5684H39.7374L39.717 12.5475L40.7168 12.5684ZM65.1172 12.5684V20.1562H67.1172V12.5684H65.1172ZM66.1172 19.1562H51.4395V21.1562H66.1172V19.1562ZM50.4395 20.1562V28.2129H52.4395V20.1562H50.4395ZM52.2026 28.8591C53.8447 26.92 55.9267 25.9609 58.5293 25.9609V23.9609C55.3506 23.9609 52.7061 25.1698 50.6763 27.5666L52.2026 28.8591ZM58.5293 25.9609C61.603 25.9609 63.7552 26.8205 65.1704 28.3856L66.6538 27.0441C64.7487 24.9373 61.979 23.9609 58.5293 23.9609V25.9609ZM65.1779 28.3938C65.8602 29.1316 66.4322 30.2821 66.8293 31.9395C67.2248 33.5908 67.4316 35.682 67.4316 38.2324H69.4316C69.4316 35.5875 69.2185 33.3282 68.7742 31.4736C68.3314 29.6252 67.6437 28.1145 66.6463 27.0359L65.1779 28.3938ZM67.4316 38.2324V45H69.4316V38.2324H67.4316ZM67.4316 45C67.4316 48.3476 67.2645 50.7315 66.9549 52.2067L68.9123 52.6175C69.2667 50.9286 69.4316 48.3712 69.4316 45H67.4316ZM66.953 52.216C66.6734 53.6141 66.061 54.9271 65.0953 56.161L66.6703 57.3937C67.814 55.9323 68.5688 54.3351 68.9142 52.6082L66.953 52.216ZM65.0997 56.1555C64.1767 57.3178 62.8624 58.2479 61.1026 58.9192L61.8154 60.7879C63.8447 60.0138 65.4796 58.8932 66.6659 57.3992L65.0997 56.1555ZM61.1079 58.9172C59.3772 59.5662 57.209 59.9082 54.5742 59.9082V61.9082C57.3691 61.9082 59.7907 61.5471 61.8101 60.7898L61.1079 58.9172ZM54.5742 59.9082C51.6427 59.9082 49.1025 59.401 46.9308 58.4155L46.1044 60.2368C48.581 61.3607 51.412 61.9082 54.5742 61.9082V59.9082ZM46.9371 58.4184C44.8048 57.4329 43.3404 56.0024 42.4739 54.1307L40.6589 54.9709C41.7455 57.3179 43.5819 59.071 46.098 60.2339L46.9371 58.4184ZM42.4739 54.1307C41.5913 52.2243 41.1016 49.142 41.1016 44.7656H39.1016C39.1016 49.2173 39.5884 52.6585 40.6589 54.9709L42.4739 54.1307ZM41.1016 44.7656V42.1875H39.1016V44.7656H41.1016ZM40.1016 43.1875H51.9375V41.1875H40.1016V43.1875ZM50.9375 42.1875V45.1465H52.9375V42.1875H50.9375ZM50.9375 45.1465C50.9375 48.2145 51.0436 50.4656 51.2734 51.8441L53.2462 51.5153C53.0462 50.3156 52.9375 48.2113 52.9375 45.1465H50.9375ZM51.2734 51.8441C51.4063 52.6419 51.7247 53.3663 52.3219 53.8849C52.9226 54.4066 53.6825 54.6133 54.4863 54.6133V52.6133C54.0206 52.6133 53.7746 52.4976 53.6332 52.3748C53.4882 52.2489 53.328 52.0065 53.2462 51.5153L51.2734 51.8441ZM54.4863 54.6133C55.3029 54.6133 56.0499 54.3446 56.6185 53.7444L55.1666 52.3689C55.0322 52.5108 54.8416 52.6133 54.4863 52.6133V54.6133ZM56.5997 53.7637C57.1064 53.257 57.4443 52.632 57.4775 51.9009L55.4795 51.8101C55.4737 51.9383 55.4209 52.1141 55.1855 52.3495L56.5997 53.7637ZM57.4744 51.946C57.5181 51.4654 57.5569 49.5427 57.5956 46.2716L55.5958 46.2479C55.5564 49.5784 55.5171 51.3862 55.4826 51.7649L57.4744 51.946ZM57.5957 46.2598V36.8555H55.5957V46.2598H57.5957ZM57.5957 36.8555C57.5957 35.9365 57.548 35.1352 57.445 34.4628C57.344 33.8038 57.1802 33.2005 56.9057 32.7237L55.1724 33.7216C55.269 33.8894 55.3835 34.2138 55.4681 34.7657C55.5506 35.3043 55.5957 35.997 55.5957 36.8555H57.5957ZM56.9057 32.7237C56.3252 31.7156 55.3439 31.2559 54.1934 31.2559V33.2559C54.7615 33.2559 55.0107 33.4407 55.1724 33.7216L56.9057 32.7237ZM54.1934 31.2559C53.4266 31.2559 52.7226 31.496 52.1496 32.0087L53.4832 33.4991C53.6524 33.3478 53.8664 33.2559 54.1934 33.2559V31.2559ZM52.1496 32.0087C51.6715 32.4364 51.3069 32.948 51.1262 33.5505L53.0418 34.1252C53.0954 33.9465 53.2191 33.7355 53.4832 33.4991L52.1496 32.0087ZM51.1169 33.5834C51.0401 33.8755 51.0003 34.2769 50.9757 34.7199C50.9498 35.1852 50.9375 35.7719 50.9375 36.4746H52.9375C52.9375 35.7906 52.9496 35.2445 52.9726 34.8309C52.9968 34.395 53.0303 34.1714 53.0511 34.0924L51.1169 33.5834ZM51.9375 35.4746H40.2188V37.4746H51.9375V35.4746ZM41.2185 36.4954L41.7166 12.5892L39.717 12.5475L39.219 36.4538L41.2185 36.4954ZM40.7168 13.5684H66.1172V11.5684H40.7168V13.5684Z" fill="#7E92FF" fill-opacity="0.8"/>
</svg>
