<svg width="71" height="73" viewBox="0 0 71 73" fill="none" xmlns="http://www.w3.org/2000/svg">
<path d="M27.0117 56.8945L26.2547 56.2412L27.0117 56.8945ZM9.66797 59.9414L9.33411 60.8841L9.34289 60.8871L9.66797 59.9414ZM2.8125 52.5L1.85567 52.7907L1.85672 52.7941L2.8125 52.5ZM3.22266 18.8379L2.27917 18.5064L2.27656 18.514L3.22266 18.8379ZM7.70508 13.623L7.20167 12.759L7.19839 12.7609L7.70508 13.623ZM22.8223 13.0371L22.4137 13.9499L22.421 13.9531L22.8223 13.0371ZM29.4727 20.7715L28.4948 20.981L28.4973 20.9921L29.4727 20.7715ZM17.8125 19.9219L16.8727 20.2636L16.879 20.2811L16.886 20.2983L17.8125 19.9219ZM14.3555 19.9805L13.4363 19.5865L13.4335 19.5931L13.4308 19.5997L14.3555 19.9805ZM14.3262 52.7637L13.4137 53.1727L13.4195 53.1857L13.4256 53.1984L14.3262 52.7637ZM29.0293 28.623V44.4434H31.0293V28.623H29.0293ZM29.0293 44.4434C29.0293 48.0263 28.8323 50.5439 28.4706 52.0633L30.4162 52.5265C30.8357 50.7647 31.0293 48.048 31.0293 44.4434H29.0293ZM28.4706 52.0633C28.1212 53.5306 27.3929 54.9223 26.2547 56.2412L27.7688 57.5479C29.0915 56.0152 29.9843 54.3404 30.4162 52.5265L28.4706 52.0633ZM26.2547 56.2412C25.1344 57.5393 23.7932 58.4641 22.2202 59.0297L22.8969 60.9117C24.8005 60.2273 26.4281 59.1013 27.7688 57.5479L26.2547 56.2412ZM22.2202 59.0297C20.6066 59.6099 18.7801 59.9082 16.7285 59.9082V61.9082C18.9738 61.9082 21.034 61.5815 22.8969 60.9117L22.2202 59.0297ZM16.7285 59.9082C13.9638 59.9082 11.7291 59.5925 9.99305 58.9957L9.34289 60.8871C11.3568 61.5794 13.8292 61.9082 16.7285 61.9082V59.9082ZM10.0018 58.9988C8.28063 58.3892 6.94886 57.4643 5.96534 56.2392L4.40575 57.4913C5.64879 59.0396 7.30531 60.1655 9.33412 60.884L10.0018 58.9988ZM5.96534 56.2392C4.92204 54.9396 4.19581 53.5954 3.76828 52.2059L1.85672 52.7941C2.36669 54.4515 3.22249 56.0174 4.40575 57.4913L5.96534 56.2392ZM3.76932 52.2093C3.34594 50.8157 3.10938 48.499 3.10938 45.1758H1.10938C1.10938 48.5322 1.34156 51.0984 1.85568 52.7907L3.76932 52.2093ZM3.10938 45.1758V28.623H1.10938V45.1758H3.10938ZM3.10938 28.623C3.10938 24.2972 3.48134 21.1697 4.16875 19.1618L2.27656 18.514C1.47959 20.842 1.10938 24.238 1.10938 28.623H3.10938ZM4.16612 19.1694C4.83976 17.2521 6.16203 15.6898 8.21177 14.4852L7.19839 12.7609C4.795 14.1734 3.12899 16.0878 2.2792 18.5064L4.16612 19.1694ZM8.20848 14.4871C10.2709 13.2855 12.8033 12.6602 15.8496 12.6602V10.6602C12.5287 10.6602 9.63149 11.3434 7.20167 12.759L8.20848 14.4871ZM15.8496 12.6602C18.3283 12.6602 20.51 13.0977 22.4137 13.9498L23.2308 12.1244C21.033 11.1406 18.5662 10.6602 15.8496 10.6602V12.6602ZM22.421 13.9531C24.3704 14.8071 25.7482 15.8222 26.6319 16.9608L28.2119 15.7345C27.0643 14.256 25.3757 13.064 23.2235 12.1212L22.421 13.9531ZM26.6319 16.9608C27.5542 18.1491 28.1744 19.4854 28.4949 20.981L30.4505 20.562C30.0678 18.7764 29.3208 17.1634 28.2119 15.7345L26.6319 16.9608ZM28.4973 20.9921C28.8422 22.517 29.0293 25.0394 29.0293 28.623H31.0293C31.0293 25.0191 30.8453 22.3072 30.448 20.5509L28.4973 20.9921ZM19.1934 24.6387C19.1934 23.3658 19.1614 22.3132 19.0949 21.4893C19.0312 20.7009 18.9293 20.014 18.739 19.5455L16.886 20.2983C16.9496 20.4547 17.0381 20.8665 17.1014 21.6503C17.1618 22.3988 17.1934 23.392 17.1934 24.6387H19.1934ZM18.7523 19.5801C18.5586 19.0475 18.2074 18.6126 17.7064 18.3276C17.2261 18.0543 16.6732 17.9551 16.1133 17.9551V19.9551C16.4518 19.9551 16.6313 20.017 16.7174 20.0659C16.7828 20.1032 16.832 20.1517 16.8727 20.2636L18.7523 19.5801ZM16.1133 17.9551C15.5479 17.9551 14.9955 18.0649 14.5108 18.3476C14.0146 18.6371 13.6587 19.0677 13.4363 19.5865L15.2746 20.3744C15.3452 20.2096 15.4288 20.1276 15.5185 20.0752C15.6197 20.0162 15.7997 19.9551 16.1133 19.9551V17.9551ZM13.4308 19.5997C13.232 20.0825 13.1211 20.7677 13.0517 21.5554C12.9798 22.3724 12.9453 23.4031 12.9453 24.6387H14.9453C14.9453 23.4329 14.9792 22.4665 15.044 21.7308C15.1114 20.9657 15.2055 20.5425 15.2801 20.3612L13.4308 19.5997ZM12.9453 24.6387V47.7832H14.9453V24.6387H12.9453ZM12.9453 47.7832C12.9453 49.1715 12.9772 50.3036 13.0434 51.17C13.1056 51.9835 13.2056 52.7086 13.4137 53.1727L15.2387 52.3546C15.1928 52.2523 15.1024 51.8641 15.0376 51.0175C14.9769 50.2238 14.9453 49.1488 14.9453 47.7832H12.9453ZM13.4256 53.1984C13.9309 54.245 14.9684 54.6133 16.0547 54.6133V52.6133C15.3832 52.6133 15.2683 52.4151 15.2267 52.3289L13.4256 53.1984ZM16.0547 54.6133C16.6147 54.6133 17.1641 54.508 17.6453 54.2307C18.1407 53.9452 18.4941 53.517 18.7079 52.9979L16.8585 52.2364C16.7988 52.3814 16.7275 52.4513 16.6467 52.4978C16.5517 52.5526 16.3735 52.6133 16.0547 52.6133V54.6133ZM18.7079 52.9979C18.9051 52.5189 19.0169 51.8524 19.0867 51.0897C19.1589 50.3006 19.1934 49.3128 19.1934 48.1348H17.1934C17.1934 49.281 17.1595 50.2023 17.095 50.9074C17.0281 51.6388 16.9347 52.0514 16.8585 52.2364L18.7079 52.9979ZM19.1934 48.1348V24.6387H17.1934V48.1348H19.1934ZM68.6953 25.166V26.166H69.6953V25.166H68.6953ZM56.8594 25.166H55.8594V26.166H56.8594V25.166ZM56.7715 21.0059L55.7737 21.0724L55.7749 21.0906L55.7768 21.1088L56.7715 21.0059ZM56.0684 19.541L55.3787 20.2652L55.3871 20.2732L55.3957 20.281L56.0684 19.541ZM52.875 19.5117L52.1863 18.7867L52.875 19.5117ZM52.1133 32.0508H51.1133L53.0159 32.4813L52.1133 32.0508ZM54.7793 29.209L55.2499 30.0914L55.2612 30.0852L54.7793 29.209ZM68.0215 34.2188L68.986 33.9547L68.0215 34.2188ZM68.3145 52.0605L67.3265 51.9058L68.3145 52.0605ZM66.2637 56.5723L65.4839 55.9462L65.4828 55.9476L66.2637 56.5723ZM61.7227 59.7656L61.3561 58.8352L61.3529 58.8365L61.7227 59.7656ZM42.4746 55.8105L41.6395 56.3608L41.6471 56.372L42.4746 55.8105ZM40.541 50.5957L39.5456 50.692L39.5467 50.7026L40.541 50.5957ZM40.5117 22.1484L39.5159 22.057L39.5151 22.0662L40.5117 22.1484ZM47.4258 12.9199L47.8048 13.8453L47.8092 13.8435L47.4258 12.9199ZM67.3184 17.7832L68.2234 17.3578L67.3184 17.7832ZM52.6699 36.4746L51.8296 35.9325L51.8251 35.9396L52.6699 36.4746ZM52.6406 52.6465L51.7627 53.1253L51.7683 53.1355L51.774 53.1454L52.6406 52.6465ZM56.0391 52.8809L56.7051 53.6268L56.7124 53.6203L56.7195 53.6137L56.0391 52.8809ZM68.6953 24.166H56.8594V26.166H68.6953V24.166ZM57.8594 25.166C57.8594 22.9772 57.8313 21.532 57.7662 20.903L55.7768 21.1088C55.8289 21.6125 55.8594 22.9408 55.8594 25.166H57.8594ZM57.7693 20.9393C57.7132 20.0986 57.3645 19.3679 56.741 18.8011L55.3957 20.281C55.6316 20.4954 55.7516 20.7413 55.7737 21.0724L57.7693 20.9393ZM56.758 18.8169C56.1146 18.2041 55.2748 17.9551 54.3691 17.9551V19.9551C54.9088 19.9551 55.2018 20.0967 55.3787 20.2652L56.758 18.8169ZM54.3691 17.9551C53.5417 17.9551 52.7862 18.2167 52.1863 18.7867L53.5637 20.2367C53.745 20.0645 53.9857 19.9551 54.3691 19.9551V17.9551ZM52.1863 18.7867C51.6052 19.3387 51.2862 20.0472 51.2061 20.8478L53.1962 21.0468C53.2333 20.6754 53.3635 20.427 53.5637 20.2367L52.1863 18.7867ZM51.2061 20.8478C51.1417 21.4917 51.1133 22.7234 51.1133 24.4922H53.1133C53.1133 22.7062 53.1434 21.5747 53.1962 21.0468L51.2061 20.8478ZM51.1133 24.4922V32.0508H53.1133V24.4922H51.1133ZM53.0159 32.4813C53.5351 31.3925 54.2781 30.6096 55.2499 30.0913L54.3087 28.3266C52.9367 29.0584 51.9024 30.17 51.2107 31.6203L53.0159 32.4813ZM55.2612 30.0852C56.2492 29.5418 57.5181 29.2422 59.1152 29.2422V27.2422C57.2748 27.2422 55.6531 27.5871 54.2974 28.3328L55.2612 30.0852ZM59.1152 29.2422C61.0913 29.2422 62.8008 29.7723 64.2807 30.817L65.4341 29.183C63.5937 27.8839 61.4751 27.2422 59.1152 27.2422V29.2422ZM64.2807 30.817C65.7899 31.8822 66.6804 33.1074 67.057 34.4828L68.986 33.9547C68.4641 32.0488 67.2453 30.4615 65.4341 29.183L64.2807 30.817ZM67.057 34.4828C67.4725 36.0002 67.6953 38.1161 67.6953 40.8691H69.6953C69.6953 38.0362 69.469 35.7186 68.986 33.9547L67.057 34.4828ZM67.6953 40.8691V44.6484H69.6953V40.8691H67.6953ZM67.6953 44.6484C67.6953 47.9581 67.5679 50.3648 67.3265 51.9058L69.3024 52.2153C69.5689 50.5141 69.6953 47.9794 69.6953 44.6484H67.6953ZM67.3265 51.9058C67.1019 53.34 66.4972 54.684 65.4839 55.9462L67.0435 57.1983C68.2567 55.6871 69.0192 54.0233 69.3024 52.2153L67.3265 51.9058ZM65.4828 55.9476C64.5169 57.1549 63.1578 58.1255 61.3561 58.8352L62.0892 60.696C64.1547 59.8823 65.8229 58.724 67.0445 57.197L65.4828 55.9476ZM61.3529 58.8365C59.5812 59.5416 57.4752 59.9082 55.0137 59.9082V61.9082C57.6693 61.9082 60.036 61.5131 62.0924 60.6948L61.3529 58.8365ZM55.0137 59.9082C51.9115 59.9082 49.4521 59.4784 47.5885 58.6721L46.7943 60.5076C48.9932 61.4591 51.7487 61.9082 55.0137 61.9082V59.9082ZM47.5885 58.6721C45.7107 57.8596 44.2966 56.7146 43.3021 55.249L41.6471 56.372C42.8792 58.1878 44.6096 59.5623 46.7943 60.5076L47.5885 58.6721ZM43.3097 55.2604C42.2956 53.7212 41.7121 52.1332 41.5353 50.4888L39.5467 50.7026C39.7606 52.691 40.4661 54.5796 41.6395 56.3607L43.3097 55.2604ZM41.5364 50.4994C41.366 48.7385 41.2773 45.2604 41.2773 40.0195H39.2773C39.2773 45.2474 39.3645 48.8201 39.5457 50.692L41.5364 50.4994ZM41.2773 40.0195V33.457H39.2773V40.0195H41.2773ZM41.2773 33.457C41.2773 27.8059 41.356 24.0774 41.5083 22.2306L39.5151 22.0662C39.3549 24.0085 39.2773 27.8191 39.2773 33.457H41.2773ZM41.5075 22.2399C41.6661 20.5131 42.2817 18.8709 43.3813 17.3026L41.7437 16.1544C40.4605 17.9846 39.7089 19.9556 39.5159 22.057L41.5075 22.2399ZM43.3813 17.3026C44.4552 15.771 45.9186 14.6177 47.8048 13.8453L47.0468 11.9945C44.8314 12.9018 43.0526 14.2876 41.7437 16.1544L43.3813 17.3026ZM47.8092 13.8435C49.736 13.0437 51.9844 12.6309 54.5742 12.6309V10.6309C51.7734 10.6309 49.2562 11.0774 47.0424 11.9963L47.8092 13.8435ZM54.5742 12.6309C57.7959 12.6309 60.3522 13.1534 62.2976 14.135L63.1985 12.3494C60.8861 11.1826 57.9932 10.6309 54.5742 10.6309V12.6309ZM62.2976 14.135C64.2492 15.1197 65.6005 16.479 66.4133 18.2086L68.2234 17.3578C67.2003 15.1811 65.5047 13.5131 63.1985 12.3494L62.2976 14.135ZM66.4133 18.2086C67.2499 19.9884 67.6953 22.2923 67.6953 25.166H69.6953C69.6953 22.1022 69.2228 19.4842 68.2234 17.3578L66.4133 18.2086ZM57.8594 39.9609C57.8594 39.0888 57.8115 38.324 57.7075 37.6779C57.6054 37.0437 57.4394 36.4596 57.1626 35.9934L55.4429 37.0144C55.5371 37.1732 55.6495 37.4778 55.7329 37.9959C55.8145 38.5022 55.8594 39.1533 55.8594 39.9609H57.8594ZM57.1626 35.9934C56.5804 35.0128 55.6139 34.5664 54.4863 34.5664V36.5664C55.0385 36.5664 55.2829 36.745 55.4429 37.0144L57.1626 35.9934ZM54.4863 34.5664C53.3816 34.5664 52.4325 34.998 51.8296 35.9325L53.5102 37.0167C53.6886 36.7402 53.9504 36.5664 54.4863 36.5664V34.5664ZM51.8251 35.9396C51.5331 36.4005 51.3663 36.9934 51.2649 37.628C51.1609 38.2794 51.1133 39.0614 51.1133 39.9609H53.1133C53.1133 39.1222 53.1584 38.454 53.2399 37.9433C53.3242 37.4158 53.4356 37.1346 53.5147 37.0097L51.8251 35.9396ZM51.1133 39.9609V48.5449H53.1133V39.9609H51.1133ZM51.1133 48.5449C51.1133 49.6131 51.1579 50.5237 51.2533 51.2652C51.3456 51.9833 51.496 52.6363 51.7627 53.1253L53.5185 52.1676C53.4337 52.0121 53.3204 51.6593 53.237 51.0102C53.1565 50.3845 53.1133 49.5665 53.1133 48.5449H51.1133ZM51.774 53.1454C52.3497 54.1454 53.3151 54.6133 54.457 54.6133V52.6133C53.9192 52.6133 53.6737 52.4367 53.5072 52.1475L51.774 53.1454ZM54.457 54.6133C55.3002 54.6133 56.0552 54.2071 56.7051 53.6268L55.373 52.1349C54.9292 52.5312 54.6295 52.6133 54.457 52.6133V54.6133ZM56.7195 53.6137C57.2292 53.1404 57.4864 52.4174 57.6343 51.6881C57.7897 50.9222 57.8594 49.9642 57.8594 48.8379H55.8594C55.8594 49.899 55.7923 50.7087 55.6743 51.2904C55.5488 51.9088 55.3958 52.1135 55.3586 52.1481L56.7195 53.6137ZM57.8594 48.8379V39.9609H55.8594V48.8379H57.8594Z" fill="#7E92FF"/>
</svg>
