<svg width="84" height="80" viewBox="0 0 84 80" fill="none" xmlns="http://www.w3.org/2000/svg">
<path d="M31.1963 60.7197C30.4599 60.6527 29.8574 60.5188 29.3888 60.3849C28.8532 60.251 28.3846 60.1171 27.849 59.8494V57.0376C28.7193 57.3724 29.121 57.5063 29.9913 57.7071C30.9955 57.9079 31.6649 57.9749 32.4013 57.9749C33.6063 57.9749 34.5436 57.6402 35.28 56.9707C36.0164 56.3012 36.3511 55.4979 36.3511 54.4937C36.3511 53.8912 36.2172 53.2887 36.0164 52.8201C35.8155 52.3515 35.5478 51.9498 35.1461 51.6151C34.8114 51.3473 33.9411 50.8787 32.6691 50.2761L30.8616 49.4059C29.3218 48.6694 28.2507 47.8661 27.6482 46.8619C27.0457 45.8577 26.7109 44.7197 26.7109 43.3138C26.7109 41.9079 27.1796 40.636 28.0498 39.6318C28.9201 38.5607 29.8574 38.159 31.1293 37.7573V35.2134H34.1419V37.6234C35.5478 37.6904 36.6189 38.092 37.4222 38.5607V41.4393C37.0206 41.1715 36.418 40.8368 35.5478 40.569C34.7444 40.3012 33.9411 40.1674 33.2047 40.1674C32.1335 40.1674 31.3302 40.4351 30.7277 41.0376C30.1252 41.6402 29.8574 42.3766 29.8574 43.3138C29.8574 43.9163 29.9913 44.3849 30.1921 44.8535C30.3929 45.3222 30.7277 45.7238 31.1293 46.0586C31.531 46.3933 32.3344 46.795 33.4724 47.3975L34.8783 48.0669C36.485 48.8033 37.6231 49.7406 38.3595 50.8117C39.0959 51.8828 39.4306 53.2887 39.4306 54.9623C39.4306 56.3682 38.962 57.5732 37.9578 58.5774C36.9536 59.6485 35.9494 60.1841 34.2088 60.5188V63.1297H31.2632L31.1963 60.7197Z" fill="#7E92FF" fill-opacity="0.6"/>
<path d="M54.9621 31.4646L45.9244 19.3474H33.1378H20.3512L7.49763 36.6194C3.347 42.1089 1.00391 48.8035 1.00391 55.6319C1.00391 66.2763 6.56039 78.9959 33.1378 78.9959C43.7822 78.9959 48.1336 78.7951 48.1336 78.7951" stroke="#6EBE81" stroke-opacity="0.6" stroke-width="3" stroke-miterlimit="10" stroke-linecap="round" stroke-linejoin="round"/>
<path d="M46.9946 14.1926H19.2122C18.3419 14.1926 17.6055 14.929 17.6055 15.7993V17.6738C17.6055 18.5441 18.3419 19.2805 19.2122 19.2805H46.9946C47.8649 19.2805 48.6013 18.5441 48.6013 17.6738V15.7993C48.6013 14.929 47.8649 14.1926 46.9946 14.1926Z" stroke="#6EBE81" stroke-opacity="0.6" stroke-width="3" stroke-miterlimit="10" stroke-linecap="round" stroke-linejoin="round"/>
<path d="M42.0416 2.74487L39.5646 5.22186L38.4935 4.15073C35.6148 1.27207 30.9956 1.27207 28.1169 4.15073L27.0458 5.22186L24.5688 2.74487C22.2257 0.401775 18.4767 0.401775 16.2006 2.74487L13.1211 5.82437L21.6901 14.1926H33.3387H44.9872L53.4893 5.82437L50.4098 2.74487C48.0667 0.401775 44.3177 0.401775 42.0416 2.74487Z" stroke="#6EBE81" stroke-opacity="0.6" stroke-width="3" stroke-miterlimit="10" stroke-linecap="round" stroke-linejoin="round"/>
<path d="M82.342 31.4646H48.1328V78.7951H82.342V31.4646Z" stroke="#6EBE81" stroke-opacity="0.6" stroke-width="3" stroke-miterlimit="10" stroke-linecap="round" stroke-linejoin="round"/>
<path d="M77.5891 36.2847H52.9531V41.7073H77.5891V36.2847Z" stroke="#6EBE81" stroke-opacity="0.6" stroke-width="3" stroke-miterlimit="10" stroke-linecap="round" stroke-linejoin="round"/>
<path d="M77.5891 50.0754H52.9531V73.6403H77.5891V50.0754Z" stroke="#6EBE81" stroke-opacity="0.6" stroke-width="3" stroke-miterlimit="10" stroke-linecap="round" stroke-linejoin="round"/>
<path d="M59.1113 55.8997V73.6402" stroke="#6EBE81" stroke-opacity="0.6" stroke-width="3" stroke-miterlimit="10" stroke-linecap="round" stroke-linejoin="round"/>
<path d="M65.2031 50.0754V73.8411" stroke="#6EBE81" stroke-opacity="0.6" stroke-width="3" stroke-miterlimit="10" stroke-linecap="round" stroke-linejoin="round"/>
<path d="M71.3633 50.2764V73.9751" stroke="#6EBE81" stroke-opacity="0.6" stroke-width="3" stroke-miterlimit="10" stroke-linecap="round" stroke-linejoin="round"/>
<path d="M77.5222 55.8328H52.9531" stroke="#6EBE81" stroke-opacity="0.6" stroke-width="3" stroke-miterlimit="10" stroke-linecap="round" stroke-linejoin="round"/>
<path d="M77.5222 61.9917H52.9531" stroke="#6EBE81" stroke-opacity="0.6" stroke-width="3" stroke-miterlimit="10" stroke-linecap="round" stroke-linejoin="round"/>
<path d="M77.5222 68.0837H52.9531" stroke="#6EBE81" stroke-opacity="0.6" stroke-width="3" stroke-miterlimit="10" stroke-linecap="round" stroke-linejoin="round"/>
</svg>
