<svg width="74" height="80" viewBox="0 0 74 80" fill="none" xmlns="http://www.w3.org/2000/svg">
<path d="M46.7347 46.6718C46.114 46.6097 45.5555 46.4856 45.121 46.3614C44.6866 46.2373 44.2521 46.1132 43.7556 45.927V43.4445C44.5004 43.7548 44.8728 43.8168 45.6175 44.003C46.4864 44.1892 47.107 44.2513 47.7277 44.2513C48.7828 44.2513 49.5896 43.941 50.2723 43.3824C50.8929 42.8238 51.2032 42.0791 51.2032 41.2102C51.2032 40.6516 51.1412 40.1551 50.955 39.7206C50.7688 39.2862 50.5205 38.9759 50.2102 38.6656C49.8999 38.4173 49.1551 37.9829 48.038 37.4863L46.4864 36.7416C45.121 36.1209 44.1901 35.3762 43.6935 34.5073C43.135 33.6384 42.8867 32.6454 42.8867 31.4041C42.8867 30.1628 43.2591 29.1078 44.0659 28.1768C44.8728 27.2458 45.6175 26.8735 46.7347 26.5631V24.3289H49.2793V26.439C50.5205 26.439 51.4515 26.8735 52.1342 27.2458V29.7284C51.7618 29.4801 51.2032 29.2319 50.5205 28.9836C49.7758 28.7354 49.0931 28.6112 48.4724 28.6112C47.5415 28.6112 46.8588 28.8595 46.3002 29.4181C45.8037 29.9146 45.4934 30.5973 45.4934 31.4041C45.4934 31.9006 45.6175 32.3351 45.8037 32.7695C45.9899 33.204 46.2382 33.5143 46.6105 33.8246C46.9829 34.1349 47.6656 34.5073 48.6586 35.0038L49.8999 35.5624C51.2653 36.2451 52.3204 36.9898 52.941 37.9829C53.5617 38.9138 53.934 40.1551 53.934 41.5825C53.934 42.8238 53.4996 43.8789 52.6307 44.7478C51.7618 45.6787 50.8309 46.1753 49.3413 46.4235V48.7199H46.7347V46.6718Z" fill="#7E92FF" fill-opacity="0.6"/>
<path d="M66.2213 54.1816C70.8761 50.706 72.1794 45.803 72.1794 41.3965C72.1794 36.3073 70.4416 31.4043 67.4005 27.3081L57.9048 14.5229H48.409H38.9133L29.4176 27.3081C26.3765 31.4043 24.6387 36.3073 24.6387 41.3965C24.6387 46.2995 26.2523 51.7611 32.2104 55.2367" stroke="#6EBE81" stroke-opacity="0.6" stroke-width="3" stroke-miterlimit="10"/>
<path d="M58.4017 10.6748H38.4173C37.6104 10.6748 36.9277 11.3575 36.9277 12.1643V13.0332C36.9277 13.84 37.6104 14.5227 38.4173 14.5227H58.4638C59.2706 14.5227 59.9533 13.84 59.9533 13.0332V12.1643C59.8913 11.3575 59.2086 10.6748 58.4017 10.6748Z" stroke="#6EBE81" stroke-opacity="0.6" stroke-width="3" stroke-miterlimit="10"/>
<path d="M54.9877 2.23424L53.1258 4.09615L52.319 3.28933C50.2088 1.17916 46.7953 1.17916 44.6231 3.28933L43.8162 4.09615L41.9543 2.23424C40.2165 0.496463 37.4857 0.496463 35.748 2.23424L33.5137 4.5306L39.9062 10.6749H48.5331H57.1599L63.5525 4.5306L61.2561 2.23424C59.5183 0.496463 56.7255 0.496463 54.9877 2.23424Z" stroke="#6EBE81" stroke-opacity="0.6" stroke-width="3" stroke-miterlimit="10"/>
<path d="M40.2167 65.1667H43.5681C46.7334 65.1667 49.8366 64.2357 52.4432 62.4359L54.8637 60.7602C55.2361 60.5119 55.4223 59.9533 55.112 59.5189C54.7396 58.9603 54.2431 58.5259 53.7466 58.2155C52.5674 57.5328 51.0778 57.5949 49.8986 58.2155C45.43 60.3878 41.3959 58.5879 41.3959 58.5879C39.9684 57.657 38.541 56.9743 37.2376 56.4157C31.714 54.1193 25.3214 54.9882 20.4805 58.4638" stroke="#6EBE81" stroke-opacity="0.6" stroke-width="3" stroke-miterlimit="10"/>
<path d="M20.418 70.1319C20.418 70.1319 27.9277 68.7045 41.0852 69.4492C44.5607 69.6354 47.9742 68.8907 51.0774 67.277L71.0619 56.7262C71.4963 56.4779 71.6205 55.9194 71.3101 55.547C70.5654 54.616 68.9517 53.3748 65.7244 54.2437C65.352 54.3678 64.9796 54.4919 64.6693 54.616L54.615 58.8984" stroke="#6EBE81" stroke-opacity="0.6" stroke-width="3" stroke-miterlimit="10"/>
<path d="M12.8477 74.9107H20.2332V55.8572H12.8477" stroke="#6EBE81" stroke-opacity="0.6" stroke-width="3" stroke-miterlimit="10"/>
<path d="M12.8472 50.3335H0V79.9999H12.8472V50.3335Z" fill="#7E92FF" fill-opacity="0.6"/>
</svg>
