<svg width="67" height="82" viewBox="0 0 67 82" fill="none" xmlns="http://www.w3.org/2000/svg">
<path d="M17.1699 3.00969V10.5948C17.1699 11.3079 17.7534 11.8914 18.4665 11.8914H18.9852C19.6335 11.8914 20.2169 11.4376 20.2818 10.7893V10.6596C20.6059 8.39056 22.486 6.70499 24.8198 6.70499C27.0889 6.70499 29.0338 8.39056 29.3579 10.6596V10.7893C29.4228 11.4376 30.0062 11.8914 30.6545 11.8914C31.3677 11.8914 31.9511 11.3079 31.9511 10.5948V3.00969C31.9511 2.42622 31.4973 1.97241 30.9138 1.97241H18.1424C17.6237 1.97241 17.1699 2.42622 17.1699 3.00969Z" stroke="#6EBE81" stroke-opacity="0.6" stroke-width="3" stroke-miterlimit="10"/>
<path d="M64.1062 33.4797H32.3396C31.821 33.4797 31.3672 33.9335 31.3672 34.4522V79.0551C31.3672 79.5737 31.821 80.0275 32.3396 80.0275H64.1062C64.6249 80.0275 65.0787 79.5737 65.0787 79.0551V34.4522C65.0787 33.9335 64.6897 33.4797 64.1062 33.4797Z" stroke="#6EBE81" stroke-opacity="0.6" stroke-width="3" stroke-miterlimit="10"/>
<path d="M60.4104 38.2124H36.1641V43.5284H60.4104V38.2124Z" stroke="#7E92FF" stroke-opacity="0.6" stroke-width="3" stroke-miterlimit="10"/>
<path d="M60.4104 51.8267H36.1641V75.0357H60.4104V51.8267Z" stroke="#6EBE81" stroke-opacity="0.6" stroke-width="3" stroke-miterlimit="10"/>
<path d="M42.1934 57.5315V75.0355" stroke="#6EBE81" stroke-opacity="0.6" stroke-width="3" stroke-miterlimit="10"/>
<path d="M48.2871 51.8267V75.1654" stroke="#6EBE81" stroke-opacity="0.6" stroke-width="3" stroke-miterlimit="10"/>
<path d="M54.3164 51.9563V75.3599" stroke="#6EBE81" stroke-opacity="0.6" stroke-width="3" stroke-miterlimit="10"/>
<path d="M60.4104 57.4668H36.1641" stroke="#6EBE81" stroke-opacity="0.6" stroke-width="3" stroke-miterlimit="10"/>
<path d="M60.4104 63.4958H36.1641" stroke="#6EBE81" stroke-opacity="0.6" stroke-width="3" stroke-miterlimit="10"/>
<path d="M60.4104 69.5251H36.1641" stroke="#6EBE81" stroke-opacity="0.6" stroke-width="3" stroke-miterlimit="10"/>
<path d="M31.9512 6.25122H48.2883V33.4797" stroke="#6EBE81" stroke-opacity="0.6" stroke-width="3" stroke-miterlimit="10"/>
<path d="M31.4327 69.7844H2V6.25122H17.1702" stroke="#6EBE81" stroke-opacity="0.6" stroke-width="3" stroke-miterlimit="10"/>
<path d="M13.4102 19.282H35.4523" stroke="#6EBE81" stroke-opacity="0.6" stroke-width="3" stroke-miterlimit="10" stroke-linecap="round"/>
<path d="M13.6699 25.0518H35.7121" stroke="#6EBE81" stroke-opacity="0.6" stroke-width="3" stroke-miterlimit="10" stroke-linecap="round"/>
</svg>
