<svg width="63" height="58" viewBox="0 0 63 58" fill="none" xmlns="http://www.w3.org/2000/svg">
<g opacity="0.7">
<path d="M1.79321 33.4017C1.79321 35.3583 2.58641 37.2091 3.90842 38.4782C4.7545 39.3243 5.8121 39.9588 6.97546 40.2761V26.4744C3.9613 27.3734 1.79321 30.1231 1.79321 33.4017Z" fill="#7E92FF"/>
<path d="M61.442 33.4017C61.442 35.3583 60.6488 37.2091 59.3268 38.4782C58.4807 39.3243 57.4231 39.9588 56.2598 40.2761V26.4744C59.221 27.3734 61.442 30.1231 61.442 33.4017Z" fill="#7E92FF"/>
<path d="M6.97534 26.3686C6.97534 12.7785 18.0273 1.72653 31.6175 1.72653C45.2076 1.72653 56.2596 12.7785 56.2596 26.3686" stroke="white" stroke-opacity="0.8" stroke-width="3" stroke-miterlimit="10"/>
<path d="M55.2021 40.5934H52.5581V26.21H55.2021C58.6393 26.21 61.442 29.0127 61.442 32.4499V34.3007C61.442 37.7907 58.6393 40.5934 55.2021 40.5934Z" stroke="white" stroke-opacity="0.8" stroke-width="3" stroke-miterlimit="10"/>
<path d="M50.6543 43.4489H50.0726C49.015 43.4489 48.1689 42.6028 48.1689 41.5452V25.2582C48.1689 24.2006 49.015 23.3545 50.0726 23.3545H50.6543C51.7119 23.3545 52.558 24.2006 52.558 25.2582V41.5452C52.558 42.6028 51.659 43.4489 50.6543 43.4489Z" stroke="white" stroke-opacity="0.8" stroke-width="3" stroke-miterlimit="10"/>
<path d="M12.5807 43.4489H13.1624C14.22 43.4489 15.066 42.6028 15.066 41.5452V25.2582C15.066 24.2006 14.22 23.3545 13.1624 23.3545H12.5807C11.5231 23.3545 10.677 24.2006 10.677 25.2582V41.5452C10.677 42.6028 11.5231 43.4489 12.5807 43.4489Z" stroke="white" stroke-opacity="0.8" stroke-width="3" stroke-miterlimit="10"/>
<path d="M8.03306 40.5934H10.6771V26.21H8.03306C4.59586 26.21 1.79321 29.0127 1.79321 32.4499V34.3007C1.79321 37.7907 4.59586 40.5934 8.03306 40.5934Z" stroke="white" stroke-opacity="0.8" stroke-width="3" stroke-miterlimit="10"/>
<path d="M37.0112 56.1401H39.6024C46.7412 56.1401 52.558 50.3233 52.558 43.1845V40.5934" stroke="white" stroke-opacity="0.8" stroke-width="3" stroke-miterlimit="10"/>
<path d="M37.4343 56.1401H34.05C32.9395 56.1401 32.0405 55.2412 32.0405 54.1307V53.549C32.0405 52.4385 32.9395 51.5396 34.05 51.5396H37.4343C38.5448 51.5396 39.4437 52.4385 39.4437 53.549V54.1307C39.4437 55.2412 38.5448 56.1401 37.4343 56.1401Z" stroke="white" stroke-opacity="0.8" stroke-width="3" stroke-miterlimit="10"/>
<path d="M25.3777 33.4017H26.9641" stroke="#344154" stroke-width="3" stroke-miterlimit="10"/>
<path d="M30.8242 33.4017H32.4106" stroke="#344154" stroke-width="3" stroke-miterlimit="10"/>
<path d="M36.218 33.4017H37.8044" stroke="#344154" stroke-width="3" stroke-miterlimit="10"/>
</g>
</svg>
