<svg width="63" height="58" viewBox="0 0 63 58" fill="none" xmlns="http://www.w3.org/2000/svg">
<g opacity="0.7">
<path d="M1.79321 33.4017C1.79321 35.3583 2.58641 37.2091 3.90842 38.4782C4.7545 39.3243 5.8121 39.9588 6.97546 40.2761V26.4744C3.9613 27.3734 1.79321 30.1231 1.79321 33.4017Z" fill="#7E92FF"/>
<path d="M61.4419 33.4017C61.4419 35.3583 60.6487 37.2091 59.3267 38.4782C58.4806 39.3243 57.423 39.9588 56.2596 40.2761V26.4744C59.2209 27.3734 61.4419 30.1231 61.4419 33.4017Z" fill="#7E92FF"/>
<path d="M6.97546 26.3686C6.97546 12.7785 18.0274 1.72653 31.6176 1.72653C45.2078 1.72653 56.2597 12.7785 56.2597 26.3686" stroke="#6EBE81" stroke-opacity="0.8" stroke-width="3" stroke-miterlimit="10"/>
<path d="M55.2021 40.5934H52.5581V26.21H55.2021C58.6393 26.21 61.442 29.0127 61.442 32.4499V34.3007C61.442 37.7907 58.6393 40.5934 55.2021 40.5934Z" stroke="#6EBE81" stroke-opacity="0.8" stroke-width="3" stroke-miterlimit="10"/>
<path d="M50.6544 43.4489H50.0728C49.0152 43.4489 48.1691 42.6028 48.1691 41.5452V25.2582C48.1691 24.2006 49.0152 23.3545 50.0728 23.3545H50.6544C51.712 23.3545 52.5581 24.2006 52.5581 25.2582V41.5452C52.5581 42.6028 51.6592 43.4489 50.6544 43.4489Z" stroke="#6EBE81" stroke-opacity="0.8" stroke-width="3" stroke-miterlimit="10"/>
<path d="M12.5808 43.4489H13.1625C14.2201 43.4489 15.0662 42.6028 15.0662 41.5452V25.2582C15.0662 24.2006 14.2201 23.3545 13.1625 23.3545H12.5808C11.5232 23.3545 10.6771 24.2006 10.6771 25.2582V41.5452C10.6771 42.6028 11.5232 43.4489 12.5808 43.4489Z" stroke="#6EBE81" stroke-opacity="0.8" stroke-width="3" stroke-miterlimit="10"/>
<path d="M8.03306 40.5934H10.6771V26.21H8.03306C4.59586 26.21 1.79321 29.0127 1.79321 32.4499V34.3007C1.79321 37.7907 4.59586 40.5934 8.03306 40.5934Z" stroke="#6EBE81" stroke-opacity="0.8" stroke-width="3" stroke-miterlimit="10"/>
<path d="M37.0114 56.1401H39.6025C46.7413 56.1401 52.5581 50.3233 52.5581 43.1845V40.5934" stroke="#6EBE81" stroke-opacity="0.8" stroke-width="3" stroke-miterlimit="10"/>
<path d="M37.4344 56.1401H34.0501C32.9396 56.1401 32.0406 55.2412 32.0406 54.1307V53.549C32.0406 52.4385 32.9396 51.5396 34.0501 51.5396H37.4344C38.5449 51.5396 39.4439 52.4385 39.4439 53.549V54.1307C39.4439 55.2412 38.5449 56.1401 37.4344 56.1401Z" stroke="#6EBE81" stroke-opacity="0.8" stroke-width="3" stroke-miterlimit="10"/>
<path d="M25.3777 33.4017H26.9641" stroke="#344154" stroke-width="3" stroke-miterlimit="10"/>
<path d="M30.8243 33.4017H32.4107" stroke="#344154" stroke-width="3" stroke-miterlimit="10"/>
<path d="M36.2181 33.4017H37.8045" stroke="#344154" stroke-width="3" stroke-miterlimit="10"/>
</g>
</svg>
