<svg width="77" height="67" viewBox="0 0 77 67" fill="none" xmlns="http://www.w3.org/2000/svg">
<path d="M34.0156 60.8594L33.2586 60.206L34.0156 60.8594ZM10.8906 64.9219L10.5568 65.8645L10.5655 65.8676L10.8906 64.9219ZM1.75 55L0.793174 55.2907L0.794221 55.2941L1.75 55ZM2.29688 10.1172L1.35338 9.78569L1.35078 9.7933L2.29688 10.1172ZM8.27344 3.16406L7.77003 2.3L7.76675 2.30193L8.27344 3.16406ZM28.4297 2.38281L28.0211 3.29557L28.0284 3.29877L28.4297 2.38281ZM37.2969 12.6953L36.319 12.9049L36.3215 12.9159L37.2969 12.6953ZM21.75 11.5625L20.8102 11.9042L20.8165 11.9217L20.8235 11.9389L21.75 11.5625ZM17.1406 11.6406L16.2215 11.2467L16.2187 11.2533L16.2159 11.2599L17.1406 11.6406ZM17.1016 55.3516L16.1891 55.7606L16.1949 55.7735L16.201 55.7863L17.1016 55.3516ZM37.0391 23.1641V44.2578H39.0391V23.1641H37.0391ZM37.0391 44.2578C37.0391 49.0386 36.777 52.4287 36.285 54.4949L38.2306 54.9582C38.7803 52.6495 39.0391 49.0603 39.0391 44.2578H37.0391ZM36.285 54.4949C35.8054 56.5092 34.8069 58.4119 33.2586 60.206L34.7727 61.5127C36.5056 59.5048 37.6685 57.319 38.2306 54.9582L36.285 54.4949ZM33.2586 60.206C31.7281 61.9794 29.8922 63.246 27.7398 64.0199L28.4165 65.902C30.8995 65.0092 33.0219 63.5414 34.7727 61.5127L33.2586 60.206ZM27.7398 64.0199C25.5467 64.8084 23.0724 65.2109 20.3047 65.2109V67.2109C23.2662 67.2109 25.9741 66.7801 28.4165 65.902L27.7398 64.0199ZM20.3047 65.2109C16.5959 65.2109 13.5768 64.7878 11.2157 63.9762L10.5655 65.8676C13.2045 66.7747 16.4614 67.2109 20.3047 67.2109V65.2109ZM11.2245 63.9792C8.87829 63.1483 7.04847 61.8816 5.69386 60.1943L4.13427 61.4463C5.7484 63.4569 7.90296 64.9246 10.5568 65.8645L11.2245 63.9792ZM5.69386 60.1943C4.27946 58.4325 3.28956 56.6032 2.70578 54.7059L0.794221 55.2941C1.46044 57.4593 2.57991 59.5102 4.13427 61.4463L5.69386 60.1943ZM2.70682 54.7093C2.12719 52.8014 1.8125 49.6709 1.8125 45.2344H-0.1875C-0.1875 49.7041 0.122811 53.084 0.79318 55.2907L2.70682 54.7093ZM1.8125 45.2344V23.1641H-0.1875V45.2344H1.8125ZM1.8125 23.1641C1.8125 17.3864 2.30817 13.1717 3.24297 10.4411L1.35078 9.7933C0.306417 12.8439 -0.1875 17.3272 -0.1875 23.1641H1.8125ZM3.24033 10.4487C4.16788 7.80873 5.9882 5.66706 8.78013 4.02619L7.76675 2.30193C4.62118 4.15065 2.45712 6.64439 1.35341 9.7857L3.24033 10.4487ZM8.77684 4.02811C11.5879 2.39036 15.0253 1.54688 19.1328 1.54688V-0.453125C14.7507 -0.453125 10.9485 0.448182 7.77003 2.30001L8.77684 4.02811ZM19.1328 1.54688C22.4774 1.54688 25.4338 2.13742 28.0211 3.29555L28.8382 1.47008C25.9568 0.180289 22.7153 -0.453125 19.1328 -0.453125V1.54688ZM28.0284 3.29877C30.6614 4.45228 32.5503 5.83519 33.7725 7.41L35.3525 6.18375C33.8664 4.26898 31.6667 2.70918 28.831 1.46686L28.0284 3.29877ZM33.7725 7.41C35.0333 9.0345 35.8814 10.8623 36.3191 12.9048L38.2747 12.4858C37.7749 10.1533 36.8 8.04883 35.3525 6.18375L33.7725 7.41ZM36.3215 12.9159C36.7901 14.9877 37.0391 18.3825 37.0391 23.1641H39.0391C39.0391 18.3622 38.7932 14.7779 38.2722 12.4747L36.3215 12.9159ZM23.2578 17.8516C23.2578 16.1588 23.2153 14.7651 23.1276 13.6793C23.0428 12.6288 22.9091 11.7588 22.6765 11.1861L20.8235 11.9389C20.9294 12.1995 21.0497 12.7944 21.1341 13.8402C21.2157 14.8507 21.2578 16.1849 21.2578 17.8516H23.2578ZM22.6898 11.2208C22.457 10.5807 22.0391 10.0653 21.4437 9.72654C20.869 9.39953 20.1941 9.27344 19.4844 9.27344V11.2734C19.9726 11.2734 20.2742 11.3622 20.4547 11.4649C20.6145 11.5558 20.7305 11.6849 20.8102 11.9042L22.6898 11.2208ZM19.4844 9.27344C18.7725 9.27344 18.0981 9.41172 17.5157 9.75146C16.9218 10.0979 16.4927 10.6139 16.2215 11.2467L18.0598 12.0345C18.1792 11.7559 18.336 11.5883 18.5234 11.479C18.7222 11.363 19.0243 11.2734 19.4844 11.2734V9.27344ZM16.2159 11.2599C15.9716 11.8533 15.8265 12.7233 15.7343 13.7697C15.6396 14.8455 15.5938 16.209 15.5938 17.8516H17.5938C17.5938 16.2389 17.639 14.9397 17.7266 13.9451C17.8168 12.9212 17.9451 12.3134 18.0653 12.0214L16.2159 11.2599ZM15.5938 17.8516V48.7109H17.5938V17.8516H15.5938ZM15.5938 48.7109C15.5938 50.5582 15.6362 52.0581 15.7236 53.2012C15.807 54.2915 15.9387 55.2021 16.1891 55.7606L18.0141 54.9425C17.9259 54.7458 17.8037 54.1721 17.7178 53.0488C17.6359 51.9783 17.5938 50.5355 17.5938 48.7109H15.5938ZM16.201 55.7863C16.7974 57.0217 18.027 57.4844 19.4062 57.4844V55.4844C18.4418 55.4844 18.1349 55.1918 18.0021 54.9168L16.201 55.7863ZM19.4062 57.4844C20.1128 57.4844 20.7834 57.3514 21.3606 57.0188C21.952 56.678 22.3763 56.1668 22.6356 55.537L20.7863 54.7755C20.681 55.0311 20.5389 55.184 20.362 55.2859C20.171 55.396 19.8716 55.4844 19.4062 55.4844V57.4844ZM22.6356 55.537C22.8784 54.9473 23.0244 54.101 23.1169 53.0892C23.2119 52.0511 23.2578 50.745 23.2578 49.1797H21.2578C21.2578 50.7133 21.2126 51.9528 21.1253 52.9069C21.0355 53.8873 20.908 54.4798 20.7863 54.7755L22.6356 55.537ZM23.2578 49.1797V17.8516H21.2578V49.1797H23.2578ZM76.0391 1.75781H77.0391V0.757812H76.0391V1.75781ZM76.0391 65V66H77.0391V65H76.0391ZM60.2578 65H59.2578V66H60.2578V65ZM57.9531 20.0391L57.5059 20.9335L57.5192 20.9401L57.5327 20.9464L57.9531 20.0391ZM49.3594 19.2578H48.3594V20.2578H49.3594V19.2578ZM49.3594 11.875L49.1492 10.8973L48.3594 11.0672V11.875H49.3594ZM66.7422 1.75781V0.757812H66.2522L65.952 1.14499L66.7422 1.75781ZM75.0391 1.75781V65H77.0391V1.75781H75.0391ZM76.0391 64H60.2578V66H76.0391V64ZM61.2578 65V31.0938H59.2578V65H61.2578ZM61.2578 31.0938C61.2578 28.64 61.2285 26.6654 61.1691 25.1751C61.1111 23.7176 61.0223 22.6389 60.8793 22.0352L58.9332 22.4961C59.0246 22.882 59.1116 23.7693 59.1707 25.2546C59.2285 26.707 59.2578 28.6517 59.2578 31.0938H61.2578ZM60.8793 22.0352C60.5626 20.698 59.6702 19.7326 58.3736 19.1318L57.5327 20.9464C58.3714 21.3351 58.7811 21.8541 58.9332 22.4961L60.8793 22.0352ZM58.4003 19.1446C57.7133 18.8011 56.7187 18.5919 55.5245 18.4592C54.3019 18.3234 52.7641 18.2578 50.9219 18.2578V20.2578C52.7255 20.2578 54.1825 20.3224 55.3036 20.447C56.4532 20.5747 57.1513 20.7562 57.5059 20.9335L58.4003 19.1446ZM50.9219 18.2578H49.3594V20.2578H50.9219V18.2578ZM50.3594 19.2578V11.875H48.3594V19.2578H50.3594ZM49.5696 12.8527C57.3801 11.1733 63.4012 7.69766 67.5324 2.37064L65.952 1.14499C62.1665 6.0263 56.5991 9.29549 49.1492 10.8973L49.5696 12.8527ZM66.7422 2.75781H76.0391V0.757812H66.7422V2.75781Z" fill="#7E92FF"/>
</svg>
