<svg width="57" height="64" viewBox="0 0 57 64" fill="none" xmlns="http://www.w3.org/2000/svg">
<g opacity="0.7">
<g clip-path="url(#clip0_243_85)">
<path d="M18.1697 53.4939L22.839 29.9951L24.3109 31.4162L25.7827 29.9951L30.452 53.4939L24.3616 59.6858C22.5345 57.9095 19.9461 55.2703 18.1697 53.4939Z" fill="#7E92FF" fill-opacity="0.8"/>
<path d="M0.761292 0.76123V7.56218L15.835 24.5138L24.3109 16.1903L0.761292 0.76123Z" stroke="#6EBE81" stroke-opacity="0.6" stroke-width="3" stroke-miterlimit="10" stroke-linecap="round" stroke-linejoin="round"/>
<path d="M47.8097 0.76123V7.56218L32.7867 24.5138L24.3109 16.1903L47.8097 0.76123Z" stroke="#6EBE81" stroke-opacity="0.6" stroke-width="3" stroke-miterlimit="10" stroke-linecap="round" stroke-linejoin="round"/>
<path d="M0.761292 0.76123H47.8097" stroke="#6EBE81" stroke-opacity="0.6" stroke-width="3" stroke-miterlimit="10" stroke-linecap="round" stroke-linejoin="round"/>
<path d="M30.249 22.0269L24.3109 27.8635L18.322 22.0269" stroke="#6EBE81" stroke-opacity="0.6" stroke-width="3" stroke-miterlimit="10" stroke-linecap="round" stroke-linejoin="round"/>
<path d="M21.3164 24.9707L15.429 54.3062L24.3109 63.2387" stroke="#6EBE81" stroke-opacity="0.6" stroke-width="3" stroke-miterlimit="10" stroke-linecap="round" stroke-linejoin="round"/>
<path d="M27.2545 24.9707L33.1419 54.3062L24.3109 63.2387" stroke="#6EBE81" stroke-opacity="0.6" stroke-width="3" stroke-miterlimit="10" stroke-linecap="round" stroke-linejoin="round"/>
</g>
</g>
<defs>
<clipPath id="clip0_243_85">
<rect width="48.571" height="64" fill="white"/>
</clipPath>
</defs>
</svg>
