<svg width="88" height="67" viewBox="0 0 88 67" fill="none" xmlns="http://www.w3.org/2000/svg">
<path d="M34.0156 60.8594L33.2586 60.206L34.0156 60.8594ZM10.8906 64.9219L10.5568 65.8645L10.5655 65.8676L10.8906 64.9219ZM1.75 55L0.793173 55.2907L0.794221 55.2941L1.75 55ZM2.29688 10.1172L1.35338 9.78569L1.35078 9.7933L2.29688 10.1172ZM8.27344 3.16406L7.77003 2.3L7.76675 2.30193L8.27344 3.16406ZM28.4297 2.38281L28.0211 3.29557L28.0284 3.29877L28.4297 2.38281ZM37.2969 12.6953L36.319 12.9049L36.3215 12.9159L37.2969 12.6953ZM21.75 11.5625L20.8102 11.9042L20.8165 11.9217L20.8235 11.9389L21.75 11.5625ZM17.1406 11.6406L16.2215 11.2467L16.2187 11.2533L16.2159 11.2599L17.1406 11.6406ZM17.1016 55.3516L16.1891 55.7606L16.1948 55.7735L16.201 55.7863L17.1016 55.3516ZM37.0391 23.1641V44.2578H39.0391V23.1641H37.0391ZM37.0391 44.2578C37.0391 49.0386 36.777 52.4287 36.285 54.4949L38.2306 54.9582C38.7803 52.6495 39.0391 49.0603 39.0391 44.2578H37.0391ZM36.285 54.4949C35.8054 56.5092 34.8069 58.4119 33.2586 60.206L34.7727 61.5127C36.5056 59.5048 37.6685 57.319 38.2306 54.9582L36.285 54.4949ZM33.2586 60.206C31.7281 61.9794 29.8922 63.246 27.7398 64.0199L28.4165 65.902C30.8995 65.0092 33.0219 63.5414 34.7727 61.5127L33.2586 60.206ZM27.7398 64.0199C25.5467 64.8084 23.0724 65.2109 20.3047 65.2109V67.2109C23.2662 67.2109 25.9741 66.7801 28.4165 65.902L27.7398 64.0199ZM20.3047 65.2109C16.5959 65.2109 13.5768 64.7878 11.2157 63.9762L10.5655 65.8676C13.2045 66.7747 16.4614 67.2109 20.3047 67.2109V65.2109ZM11.2245 63.9792C8.87829 63.1483 7.04847 61.8816 5.69386 60.1943L4.13427 61.4463C5.7484 63.4569 7.90296 64.9246 10.5568 65.8645L11.2245 63.9792ZM5.69386 60.1943C4.27946 58.4325 3.28956 56.6032 2.70578 54.7059L0.794221 55.2941C1.46044 57.4593 2.57991 59.5102 4.13427 61.4463L5.69386 60.1943ZM2.70682 54.7093C2.12719 52.8014 1.8125 49.6709 1.8125 45.2344H-0.1875C-0.1875 49.7041 0.122811 53.084 0.79318 55.2907L2.70682 54.7093ZM1.8125 45.2344V23.1641H-0.1875V45.2344H1.8125ZM1.8125 23.1641C1.8125 17.3864 2.30817 13.1717 3.24297 10.4411L1.35078 9.7933C0.306417 12.8439 -0.1875 17.3272 -0.1875 23.1641H1.8125ZM3.24034 10.4487C4.16788 7.80873 5.9882 5.66706 8.78013 4.02619L7.76675 2.30193C4.62118 4.15065 2.45712 6.64439 1.35341 9.7857L3.24034 10.4487ZM8.77684 4.02811C11.5879 2.39036 15.0253 1.54688 19.1328 1.54688V-0.453125C14.7507 -0.453125 10.9485 0.448182 7.77003 2.30001L8.77684 4.02811ZM19.1328 1.54688C22.4774 1.54688 25.4338 2.13742 28.0211 3.29555L28.8382 1.47008C25.9568 0.180289 22.7153 -0.453125 19.1328 -0.453125V1.54688ZM28.0284 3.29877C30.6614 4.45228 32.5503 5.83519 33.7725 7.41L35.3525 6.18375C33.8664 4.26898 31.6667 2.70918 28.831 1.46686L28.0284 3.29877ZM33.7725 7.41C35.0333 9.0345 35.8814 10.8623 36.3191 12.9048L38.2747 12.4858C37.7749 10.1533 36.8 8.04883 35.3525 6.18375L33.7725 7.41ZM36.3215 12.9159C36.7901 14.9877 37.0391 18.3825 37.0391 23.1641H39.0391C39.0391 18.3622 38.7932 14.7779 38.2722 12.4747L36.3215 12.9159ZM23.2578 17.8516C23.2578 16.1588 23.2153 14.7651 23.1276 13.6793C23.0428 12.6288 22.9091 11.7588 22.6765 11.1861L20.8235 11.9389C20.9294 12.1995 21.0497 12.7944 21.1341 13.8402C21.2157 14.8507 21.2578 16.1849 21.2578 17.8516H23.2578ZM22.6898 11.2208C22.457 10.5807 22.0391 10.0653 21.4437 9.72654C20.869 9.39953 20.1941 9.27344 19.4844 9.27344V11.2734C19.9726 11.2734 20.2742 11.3622 20.4547 11.4649C20.6145 11.5558 20.7305 11.6849 20.8102 11.9042L22.6898 11.2208ZM19.4844 9.27344C18.7725 9.27344 18.0981 9.41172 17.5157 9.75146C16.9218 10.0979 16.4927 10.6139 16.2215 11.2467L18.0598 12.0345C18.1792 11.7559 18.336 11.5883 18.5234 11.479C18.7222 11.363 19.0243 11.2734 19.4844 11.2734V9.27344ZM16.2159 11.2599C15.9716 11.8533 15.8265 12.7233 15.7343 13.7697C15.6396 14.8455 15.5938 16.209 15.5938 17.8516H17.5938C17.5938 16.2389 17.639 14.9397 17.7266 13.9451C17.8168 12.9212 17.9451 12.3134 18.0653 12.0214L16.2159 11.2599ZM15.5938 17.8516V48.7109H17.5938V17.8516H15.5938ZM15.5938 48.7109C15.5938 50.5582 15.6362 52.0581 15.7236 53.2012C15.807 54.2915 15.9387 55.2021 16.1891 55.7606L18.0141 54.9425C17.9259 54.7458 17.8037 54.1721 17.7178 53.0488C17.6359 51.9783 17.5938 50.5355 17.5938 48.7109H15.5938ZM16.201 55.7863C16.7974 57.0217 18.027 57.4844 19.4062 57.4844V55.4844C18.4418 55.4844 18.1349 55.1918 18.0021 54.9168L16.201 55.7863ZM19.4062 57.4844C20.1128 57.4844 20.7834 57.3514 21.3606 57.0188C21.952 56.678 22.3763 56.1668 22.6356 55.537L20.7863 54.7755C20.681 55.0311 20.5389 55.184 20.362 55.2859C20.171 55.396 19.8716 55.4844 19.4062 55.4844V57.4844ZM22.6356 55.537C22.8784 54.9473 23.0244 54.101 23.1169 53.0892C23.2119 52.0511 23.2578 50.745 23.2578 49.1797H21.2578C21.2578 50.7133 21.2126 51.9528 21.1253 52.9069C21.0355 53.8873 20.908 54.4798 20.7863 54.7755L22.6356 55.537ZM23.2578 49.1797V17.8516H21.2578V49.1797H23.2578ZM85.7266 54.2188H86.7266V53.2188H85.7266V54.2188ZM85.7266 65V66H86.7266V65H85.7266ZM51 65H50V66H51V65ZM51 55.9766L50.1468 55.4549L50 55.6951V55.9766H51ZM69.3203 24.7656L68.4213 24.3278L68.4201 24.3302L69.3203 24.7656ZM71.3516 11.5625L70.5195 12.1172L70.5293 12.1318L70.5395 12.1461L71.3516 11.5625ZM66 11.6797L65.1573 11.1413L65.1519 11.1497L65.1467 11.1582L66 11.6797ZM65.1406 23.2812V24.2812H66.1406V23.2812H65.1406ZM51 23.2812H50V24.2812H51V23.2812ZM51.5469 12.6172L52.5311 12.7939L52.5315 12.7917L51.5469 12.6172ZM59.8281 2.07031L59.423 1.15607L59.8281 2.07031ZM82.2891 5.23438L81.5907 5.95018L81.5967 5.95588L82.2891 5.23438ZM84.3984 28.5156L83.4871 28.104L83.4849 28.1089L84.3984 28.5156ZM68.4219 54.2188L67.5934 53.6587L66.5389 55.2188H68.4219V54.2188ZM84.7266 54.2188V65H86.7266V54.2188H84.7266ZM85.7266 64H51V66H85.7266V64ZM52 65V55.9766H50V65H52ZM51.8532 56.4982C62.1282 39.694 68.2668 29.2405 70.2205 25.201L68.4201 24.3302C66.5196 28.2595 60.4448 38.6132 50.1468 55.4549L51.8532 56.4982ZM70.2194 25.2035C72.1857 21.1659 73.25 17.8689 73.25 15.3906H71.25C71.25 17.3915 70.3612 20.3445 68.4213 24.3278L70.2194 25.2035ZM73.25 15.3906C73.25 13.5902 72.9426 12.0628 72.1636 10.9789L70.5395 12.1461C70.9584 12.7289 71.25 13.7536 71.25 15.3906H73.25ZM72.1836 11.0078C71.3933 9.82227 70.1655 9.27344 68.6953 9.27344V11.2734C69.6209 11.2734 70.164 11.584 70.5195 12.1172L72.1836 11.0078ZM68.6953 9.27344C67.1875 9.27344 65.9563 9.89076 65.1573 11.1413L66.8427 12.2181C67.2417 11.5936 67.8073 11.2734 68.6953 11.2734V9.27344ZM65.1467 11.1582C64.7587 11.7931 64.5181 12.6456 64.3671 13.6272C64.2134 14.6262 64.1406 15.8432 64.1406 17.2656H66.1406C66.1406 15.9016 66.2111 14.7944 66.3438 13.9314C66.4793 13.051 66.6683 12.5038 66.8533 12.2011L65.1467 11.1582ZM64.1406 17.2656V23.2812H66.1406V17.2656H64.1406ZM65.1406 22.2812H51V24.2812H65.1406V22.2812ZM52 23.2812V20.9766H50V23.2812H52ZM52 20.9766C52 17.4586 52.1818 14.74 52.5311 12.7939L50.5626 12.4405C50.1827 14.5569 50 17.4112 50 20.9766H52ZM52.5315 12.7917C52.8657 10.9062 53.6936 9.02623 55.0523 7.14877L53.4321 5.97623C51.9262 8.0571 50.9573 10.2136 50.5622 12.4427L52.5315 12.7917ZM55.0523 7.14877C56.3782 5.31664 58.0988 3.93051 60.2333 2.98455L59.423 1.15607C56.9741 2.24136 54.9708 3.85002 53.4321 5.97623L55.0523 7.14877ZM60.2333 2.98455C62.3672 2.03886 64.9694 1.54688 68.0703 1.54688V-0.453125C64.7649 -0.453125 61.8724 0.0705173 59.423 1.15607L60.2333 2.98455ZM68.0703 1.54688C74.1915 1.54688 78.6386 3.07004 81.5907 5.95016L82.9874 4.51859C79.5333 1.14871 74.5012 -0.453125 68.0703 -0.453125V1.54688ZM81.5967 5.95588C84.6155 8.85304 86.1328 12.5183 86.1328 17.0312H88.1328C88.1328 12.013 86.4209 7.81363 82.9815 4.51287L81.5967 5.95588ZM86.1328 17.0312C86.1328 20.4811 85.2643 24.1687 83.4871 28.104L85.3098 28.9272C87.1784 24.7897 88.1328 20.821 88.1328 17.0312H86.1328ZM83.4849 28.1089C81.7312 32.0484 76.4623 40.538 67.5934 53.6587L69.2504 54.7788C78.0898 41.7016 83.4719 33.0558 85.312 28.9223L83.4849 28.1089ZM68.4219 55.2188H85.7266V53.2188H68.4219V55.2188Z" fill="#7E92FF"/>
</svg>
