<svg width="68" height="62" viewBox="0 0 68 62" fill="none" xmlns="http://www.w3.org/2000/svg">
<g opacity="0.7" clip-path="url(#clip0_254_192)">
<path d="M5.11708 28.7985H0V61.167H5.11708V28.7985Z" fill="#7E92FF" fill-opacity="0.8"/>
<path d="M67.8906 36.593H52.4799V61.1074H67.8906V36.593Z" fill="#7E92FF" fill-opacity="0.8"/>
<path d="M63.904 26.0614H56.4664V36.5931H63.904V26.0614Z" fill="#7E92FF" fill-opacity="0.8"/>
<path d="M36.3551 24.9904H33.142V31.119H36.3551V24.9904Z" fill="#7E92FF" fill-opacity="0.8"/>
<path d="M39.4491 31.1785H29.9885V61.167H39.4491V31.1785Z" fill="#7E92FF" fill-opacity="0.8"/>
<path d="M25.1094 6.00952H9.99615V12.0786H25.1094V6.00952Z" stroke="#6EBE81" stroke-opacity="0.6" stroke-width="3" stroke-miterlimit="10"/>
<path d="M39.4491 61.1074V32.428H52.4798V61.1074" stroke="#6EBE81" stroke-opacity="0.6" stroke-width="3" stroke-miterlimit="10"/>
<path d="M49.9808 19.6947H41.9482V32.4279H49.9808V19.6947Z" stroke="#6EBE81" stroke-opacity="0.6" stroke-width="3" stroke-miterlimit="10"/>
<path d="M45.9943 19.6948V9.16309" stroke="#6EBE81" stroke-opacity="0.6" stroke-width="3" stroke-miterlimit="10"/>
<path d="M14.9942 6.00954V0.892456H20.1113V6.00954" stroke="#6EBE81" stroke-opacity="0.6" stroke-width="3" stroke-miterlimit="10"/>
<path d="M11.2457 19.9328V17.4337" stroke="#6EBE81" stroke-opacity="0.6" stroke-width="3" stroke-miterlimit="10"/>
<path d="M17.5528 19.9328V17.4337" stroke="#6EBE81" stroke-opacity="0.6" stroke-width="3" stroke-miterlimit="10"/>
<path d="M23.8599 19.9328V17.4337" stroke="#6EBE81" stroke-opacity="0.6" stroke-width="3" stroke-miterlimit="10"/>
<path d="M11.2457 27.1324V24.5739" stroke="#6EBE81" stroke-opacity="0.6" stroke-width="3" stroke-miterlimit="10"/>
<path d="M17.5528 27.1324V24.5739" stroke="#6EBE81" stroke-opacity="0.6" stroke-width="3" stroke-miterlimit="10"/>
<path d="M23.8599 27.1324V24.5739" stroke="#6EBE81" stroke-opacity="0.6" stroke-width="3" stroke-miterlimit="10"/>
<path d="M11.2457 34.2725V31.714" stroke="#6EBE81" stroke-opacity="0.6" stroke-width="3" stroke-miterlimit="10"/>
<path d="M17.5528 34.2725V31.714" stroke="#6EBE81" stroke-opacity="0.6" stroke-width="3" stroke-miterlimit="10"/>
<path d="M23.8599 34.2725V31.714" stroke="#6EBE81" stroke-opacity="0.6" stroke-width="3" stroke-miterlimit="10"/>
<path d="M11.2457 41.4721V38.9136" stroke="#6EBE81" stroke-opacity="0.6" stroke-width="3" stroke-miterlimit="10"/>
<path d="M17.5528 41.4721V38.9136" stroke="#6EBE81" stroke-opacity="0.6" stroke-width="3" stroke-miterlimit="10"/>
<path d="M23.8599 41.4721V38.9136" stroke="#6EBE81" stroke-opacity="0.6" stroke-width="3" stroke-miterlimit="10"/>
<path d="M11.2457 48.6122V46.0537" stroke="#6EBE81" stroke-opacity="0.6" stroke-width="3" stroke-miterlimit="10"/>
<path d="M17.5528 48.6122V46.0537" stroke="#6EBE81" stroke-opacity="0.6" stroke-width="3" stroke-miterlimit="10"/>
<path d="M23.8599 48.6122V46.0537" stroke="#6EBE81" stroke-opacity="0.6" stroke-width="3" stroke-miterlimit="10"/>
<path d="M11.2457 55.8118V53.2533" stroke="#6EBE81" stroke-opacity="0.6" stroke-width="3" stroke-miterlimit="10"/>
<path d="M17.5528 55.8118V53.2533" stroke="#6EBE81" stroke-opacity="0.6" stroke-width="3" stroke-miterlimit="10"/>
<path d="M23.8599 55.8118V53.2533" stroke="#6EBE81" stroke-opacity="0.6" stroke-width="3" stroke-miterlimit="10"/>
<path d="M5.1171 61.1074V12.0786H29.9885V61.1074" stroke="#6EBE81" stroke-opacity="0.6" stroke-width="3" stroke-miterlimit="10"/>
<path d="M0 61.1074H67.8906" stroke="#6EBE81" stroke-opacity="0.6" stroke-width="3" stroke-miterlimit="10"/>
</g>
<defs>
<clipPath id="clip0_254_192">
<rect width="67.8906" height="62" fill="white"/>
</clipPath>
</defs>
</svg>
