<svg width="66" height="50" viewBox="0 0 66 50" fill="none" xmlns="http://www.w3.org/2000/svg">
<path d="M25.0117 45.8945L24.2547 45.2412L25.0117 45.8945ZM7.66797 48.9414L7.33411 49.8841L7.34289 49.8871L7.66797 48.9414ZM0.8125 41.5L-0.144327 41.7907L-0.143279 41.7941L0.8125 41.5ZM1.22266 7.83789L0.279166 7.50639L0.276561 7.514L1.22266 7.83789ZM5.70508 2.62305L5.20167 1.75899L5.19839 1.76092L5.70508 2.62305ZM20.8223 2.03711L20.4137 2.94987L20.421 2.95307L20.8223 2.03711ZM27.4727 9.77148L26.4948 9.98103L26.4973 9.9921L27.4727 9.77148ZM15.8125 8.92188L14.8727 9.26362L14.879 9.28106L14.886 9.29825L15.8125 8.92188ZM12.3555 8.98047L11.4363 8.58655L11.4335 8.59311L11.4308 8.59972L12.3555 8.98047ZM12.3262 41.7637L11.4137 42.1727L11.4195 42.1857L11.4256 42.1984L12.3262 41.7637ZM27.0293 17.623V33.4434H29.0293V17.623H27.0293ZM27.0293 33.4434C27.0293 37.0263 26.8323 39.5439 26.4706 41.0633L28.4162 41.5265C28.8357 39.7647 29.0293 37.048 29.0293 33.4434H27.0293ZM26.4706 41.0633C26.1212 42.5306 25.3929 43.9223 24.2547 45.2412L25.7688 46.5479C27.0915 45.0152 27.9843 43.3404 28.4162 41.5265L26.4706 41.0633ZM24.2547 45.2412C23.1344 46.5393 21.7932 47.4641 20.2202 48.0297L20.8969 49.9117C22.8005 49.2273 24.4281 48.1013 25.7688 46.5479L24.2547 45.2412ZM20.2202 48.0297C18.6066 48.6099 16.7801 48.9082 14.7285 48.9082V50.9082C16.9738 50.9082 19.034 50.5815 20.8969 49.9117L20.2202 48.0297ZM14.7285 48.9082C11.9638 48.9082 9.7291 48.5925 7.99305 47.9957L7.34289 49.8871C9.35684 50.5794 11.8292 50.9082 14.7285 50.9082V48.9082ZM8.00182 47.9988C6.28063 47.3892 4.94886 46.4643 3.96534 45.2392L2.40575 46.4913C3.64879 48.0396 5.30531 49.1655 7.33412 49.884L8.00182 47.9988ZM3.96534 45.2392C2.92204 43.9396 2.19581 42.5954 1.76828 41.2059L-0.143279 41.7941C0.366693 43.4515 1.22249 45.0174 2.40575 46.4913L3.96534 45.2392ZM1.76932 41.2093C1.34594 39.8157 1.10938 37.499 1.10938 34.1758H-0.890625C-0.890625 37.5322 -0.65844 40.0984 -0.14432 41.7907L1.76932 41.2093ZM1.10938 34.1758V17.623H-0.890625V34.1758H1.10938ZM1.10938 17.623C1.10938 13.2972 1.48134 10.1697 2.16875 8.16178L0.276561 7.514C-0.520406 9.84199 -0.890625 13.238 -0.890625 17.623H1.10938ZM2.16612 8.16938C2.83976 6.25209 4.16203 4.68985 6.21177 3.48518L5.19839 1.76092C2.795 3.17343 1.12899 5.08775 0.279196 7.5064L2.16612 8.16938ZM6.20848 3.4871C8.27085 2.28554 10.8033 1.66016 13.8496 1.66016V-0.339844C10.5287 -0.339844 7.63149 0.343365 5.20167 1.759L6.20848 3.4871ZM13.8496 1.66016C16.3283 1.66016 18.51 2.09771 20.4137 2.94984L21.2308 1.12438C19.033 0.140575 16.5662 -0.339844 13.8496 -0.339844V1.66016ZM20.421 2.95307C22.3704 3.8071 23.7482 4.82217 24.6319 5.96078L26.2119 4.73453C25.0643 3.25595 23.3757 2.064 21.2235 1.12115L20.421 2.95307ZM24.6319 5.96078C25.5542 7.14909 26.1744 8.48536 26.4949 9.98101L28.4505 9.56195C28.0678 7.77636 27.3208 6.16341 26.2119 4.73453L24.6319 5.96078ZM26.4973 9.9921C26.8422 11.517 27.0293 14.0394 27.0293 17.623H29.0293C29.0293 14.0191 28.8453 11.3072 28.448 9.55087L26.4973 9.9921ZM17.1934 13.6387C17.1934 12.3658 17.1614 11.3132 17.0949 10.4893C17.0312 9.70092 16.9293 9.014 16.739 8.5455L14.886 9.29825C14.9496 9.45475 15.0381 9.86646 15.1014 10.6503C15.1618 11.3988 15.1934 12.392 15.1934 13.6387H17.1934ZM16.7523 8.58013C16.5586 8.04748 16.2074 7.61265 15.7064 7.32761C15.2261 7.05431 14.6732 6.95508 14.1133 6.95508V8.95508C14.4518 8.95508 14.6313 9.01698 14.7174 9.06594C14.7828 9.10317 14.832 9.15174 14.8727 9.26362L16.7523 8.58013ZM14.1133 6.95508C13.5479 6.95508 12.9955 7.06488 12.5108 7.34765C12.0146 7.63708 11.6587 8.0677 11.4363 8.58655L13.2746 9.37439C13.3452 9.20964 13.4288 9.12757 13.5185 9.0752C13.6197 9.01618 13.7997 8.95508 14.1133 8.95508V6.95508ZM11.4308 8.59972C11.232 9.08245 11.1211 9.76774 11.0517 10.5554C10.9798 11.3724 10.9453 12.4031 10.9453 13.6387H12.9453C12.9453 12.4329 12.9792 11.4665 13.044 10.7308C13.1114 9.96565 13.2055 9.54255 13.2801 9.36122L11.4308 8.59972ZM10.9453 13.6387V36.7832H12.9453V13.6387H10.9453ZM10.9453 36.7832C10.9453 38.1715 10.9772 39.3036 11.0434 40.17C11.1056 40.9835 11.2056 41.7086 11.4137 42.1727L13.2387 41.3546C13.1928 41.2523 13.1024 40.8641 13.0376 40.0175C12.9769 39.2238 12.9453 38.1488 12.9453 36.7832H10.9453ZM11.4256 42.1984C11.9309 43.245 12.9684 43.6133 14.0547 43.6133V41.6133C13.3832 41.6133 13.2683 41.4151 13.2267 41.3289L11.4256 42.1984ZM14.0547 43.6133C14.6147 43.6133 15.1641 43.508 15.6453 43.2307C16.1407 42.9452 16.4941 42.517 16.7079 41.9979L14.8585 41.2364C14.7988 41.3814 14.7275 41.4513 14.6467 41.4978C14.5517 41.5526 14.3735 41.6133 14.0547 41.6133V43.6133ZM16.7079 41.9979C16.9051 41.5189 17.0169 40.8524 17.0867 40.0897C17.1589 39.3006 17.1934 38.3128 17.1934 37.1348H15.1934C15.1934 38.281 15.1595 39.2023 15.095 39.9074C15.0281 40.6388 14.9347 41.0514 14.8585 41.2364L16.7079 41.9979ZM17.1934 37.1348V13.6387H15.1934V37.1348H17.1934ZM60.5137 22.1348L60.0401 21.254L58.0089 22.346L60.1944 23.0824L60.5137 22.1348ZM64.5273 25.123L63.6827 25.6584L63.6862 25.6638L64.5273 25.123ZM64.5566 43.5801L65.4802 43.9635L65.4815 43.9604L64.5566 43.5801ZM60.1035 48.3262L60.5573 49.2173L60.5638 49.2139L60.1035 48.3262ZM43.1406 48.0625L42.6284 48.9214L42.6377 48.9268L43.1406 48.0625ZM38.9219 43.4336L37.9814 43.7738L37.986 43.7858L38.9219 43.4336ZM37.9258 30.1621V29.1621H36.9258V30.1621H37.9258ZM49.7617 30.1621H50.7617V29.1621H49.7617V30.1621ZM50.1133 41.793L49.1893 42.1753L49.1974 42.1949L49.2063 42.2141L50.1133 41.793ZM51.5781 27.1445L51.255 28.0909L51.2654 28.0944L51.2759 28.0978L51.5781 27.1445ZM46.9199 26.6758H45.9199V27.659L46.903 27.6756L46.9199 26.6758ZM46.9199 19.791V18.791H45.9199V19.791H46.9199ZM52.1348 19.4688L51.8269 18.5173L52.1348 19.4688ZM53.4824 8.74609L52.6362 9.27891L52.6431 9.28994L52.6504 9.30079L53.4824 8.74609ZM50.2012 8.80469L49.3255 8.32157L49.3197 8.33247L50.2012 8.80469ZM49.7617 16.2461V17.2461H50.7617V16.2461H49.7617ZM37.9258 16.2461H36.9258V17.2461H37.9258V16.2461ZM41.0312 3.0332L41.6384 3.82779L41.6431 3.82416L41.0312 3.0332ZM64.3223 18.9121L65.1735 19.437L65.1773 19.4307L64.3223 18.9121ZM60.1944 23.0824C61.8094 23.6266 62.9451 24.4946 63.6827 25.6584L65.372 24.5877C64.3518 22.9781 62.8117 21.8539 60.833 21.1871L60.1944 23.0824ZM63.6862 25.6638C64.0014 26.1542 64.3094 27.1175 64.5253 28.7005C64.7365 30.2496 64.8457 32.2751 64.8457 34.791H66.8457C66.8457 32.2288 66.7352 30.104 66.5069 28.4303C66.2834 26.7908 65.9322 25.4591 65.3685 24.5823L63.6862 25.6638ZM64.8457 34.791C64.8457 38.5057 64.4192 41.2849 63.6318 43.1998L65.4815 43.9604C66.4128 41.6955 66.8457 38.6154 66.8457 34.791H64.8457ZM63.633 43.1967C62.8696 45.0359 61.5572 46.446 59.6432 47.4384L60.5638 49.2139C62.8686 48.0189 64.5249 46.2649 65.4802 43.9635L63.633 43.1967ZM59.6497 47.4351C57.7252 48.4152 55.1899 48.9375 51.9883 48.9375V50.9375C55.3882 50.9375 58.2631 50.3856 60.5573 49.2173L59.6497 47.4351ZM51.9883 48.9375C48.3319 48.9375 45.5807 48.3252 43.6435 47.1982L42.6377 48.9268C44.9975 50.2998 48.1447 50.9375 51.9883 50.9375V48.9375ZM43.6528 47.2036C41.6637 46.0175 40.4417 44.6329 39.8578 43.0814L37.986 43.7858C38.7692 45.8671 40.3597 47.5685 42.6284 48.9214L43.6528 47.2036ZM39.8623 43.0935C39.2632 41.4373 38.9258 38.4201 38.9258 33.9121H36.9258C36.9258 38.4275 37.2524 41.758 37.9815 43.7737L39.8623 43.0935ZM38.9258 33.9121V30.1621H36.9258V33.9121H38.9258ZM37.9258 31.1621H49.7617V29.1621H37.9258V31.1621ZM48.7617 30.1621V37.8672H50.7617V30.1621H48.7617ZM48.7617 37.8672C48.7617 38.9079 48.7913 39.7804 48.8536 40.4759C48.9133 41.143 49.01 41.7421 49.1893 42.1753L51.0373 41.4106C50.9822 41.2775 50.9031 40.9391 50.8456 40.2975C50.7907 39.6845 50.7617 38.8773 50.7617 37.8672H48.7617ZM49.2063 42.2141C49.6878 43.2513 50.7032 43.6133 51.7539 43.6133V41.6133C51.1249 41.6133 51.0465 41.4284 51.0203 41.3719L49.2063 42.2141ZM51.7539 43.6133C52.3359 43.6133 52.903 43.5022 53.3986 43.2144C53.9073 42.919 54.2707 42.4777 54.4934 41.9432L52.6472 41.174C52.577 41.3426 52.4912 41.4286 52.3943 41.4848C52.2845 41.5486 52.0899 41.6133 51.7539 41.6133V43.6133ZM54.4934 41.9432C54.7074 41.4295 54.8236 40.6499 54.8967 39.7338C54.973 38.7784 55.0098 37.5478 55.0098 36.0508H53.0098C53.0098 37.5225 52.9733 38.6942 52.9031 39.5748C52.8297 40.4947 52.7262 40.9846 52.6472 41.174L54.4934 41.9432ZM55.0098 36.0508V32.7695H53.0098V36.0508H55.0098ZM55.0098 32.7695C55.0098 30.9183 54.8073 29.3991 54.2931 28.3463L52.496 29.224C52.8021 29.8509 53.0098 30.9879 53.0098 32.7695H55.0098ZM54.2931 28.3463C53.7778 27.2912 52.9726 26.5376 51.8804 26.1913L51.2759 28.0978C51.7852 28.2592 52.1909 28.5994 52.496 29.224L54.2931 28.3463ZM51.9013 26.1982C50.9305 25.8667 49.2251 25.7147 46.9369 25.6759L46.903 27.6756C49.2241 27.715 50.6242 27.8755 51.255 28.0909L51.9013 26.1982ZM47.9199 26.6758V19.791H45.9199V26.6758H47.9199ZM46.9199 20.791C48.3359 20.791 49.4965 20.7641 50.3947 20.7085C51.2597 20.6551 51.9766 20.571 52.4426 20.4202L51.8269 18.5173C51.6289 18.5814 51.1446 18.6584 50.2713 18.7124C49.4313 18.7643 48.3164 18.791 46.9199 18.791V20.791ZM52.4426 20.4202C53.423 20.103 54.1077 19.3986 54.4971 18.4382L52.6436 17.6868C52.447 18.1717 52.1746 18.4048 51.8269 18.5173L52.4426 20.4202ZM54.4971 18.4382C54.8657 17.5289 55.0098 16.2347 55.0098 14.6641H53.0098C53.0098 16.1794 52.8609 17.1508 52.6436 17.6868L54.4971 18.4382ZM55.0098 14.6641V12.0273H53.0098V14.6641H55.0098ZM55.0098 12.0273C55.0098 11.1676 54.9646 10.4215 54.8653 9.80324C54.7692 9.20525 54.6085 8.63242 54.3145 8.19139L52.6504 9.30079C52.7079 9.38711 52.8109 9.62482 52.8906 10.1206C52.967 10.5961 53.0098 11.227 53.0098 12.0273H55.0098ZM54.3287 8.21328C53.7817 7.34455 52.9023 6.95508 51.9004 6.95508V8.95508C52.3438 8.95508 52.5191 9.09295 52.6362 9.27891L54.3287 8.21328ZM51.9004 6.95508C50.83 6.95508 49.863 7.3475 49.3256 8.32161L51.0767 9.28777C51.1643 9.12906 51.3302 8.95508 51.9004 8.95508V6.95508ZM49.3197 8.33247C49.0834 8.77349 48.9563 9.35624 48.8792 9.97805C48.799 10.6249 48.7617 11.4192 48.7617 12.3496H50.7617C50.7617 11.4636 50.7977 10.7588 50.864 10.2241C50.9334 9.66427 51.0259 9.38276 51.0827 9.27691L49.3197 8.33247ZM48.7617 12.3496V16.2461H50.7617V12.3496H48.7617ZM49.7617 15.2461H37.9258V17.2461H49.7617V15.2461ZM38.9258 16.2461V12.2031H36.9258V16.2461H38.9258ZM38.9258 12.2031C38.9258 7.76038 39.951 5.11724 41.6384 3.82777L40.4241 2.23863C37.9709 4.11323 36.9258 7.58337 36.9258 12.2031H38.9258ZM41.6431 3.82416C43.4509 2.42572 46.4698 1.63086 50.9043 1.63086V-0.369141C46.3154 -0.369141 42.7523 0.43756 40.4194 2.24225L41.6431 3.82416ZM50.9043 1.63086C56.4941 1.63086 59.9394 2.73882 61.6496 4.61506L63.1277 3.26776C60.8145 0.729928 56.6036 -0.369141 50.9043 -0.369141V1.63086ZM61.6496 4.61506C63.4462 6.58611 64.4062 9.38378 64.4062 13.1406H66.4062C66.4062 9.04591 65.3545 5.71076 63.1277 3.26776L61.6496 4.61506ZM64.4062 13.1406C64.4062 15.753 64.0424 17.4453 63.4673 18.3935L65.1773 19.4307C66.0474 17.9961 66.4062 15.8408 66.4062 13.1406H64.4062ZM63.4711 18.3872C62.8757 19.3527 61.773 20.3223 60.0401 21.254L60.9872 23.0155C62.8871 21.9941 64.3235 20.8152 65.1734 19.437L63.4711 18.3872Z" fill="#7E92FF" fill-opacity="0.8"/>
</svg>
