<svg width="63" height="66" viewBox="0 0 63 66" fill="none" xmlns="http://www.w3.org/2000/svg">
<g opacity="0.7" clip-path="url(#clip0_18_352)">
<path d="M49.5777 43.9309C48.956 42.325 47.9717 40.9262 46.6248 39.8383C45.5369 38.9058 44.3972 38.336 43.3093 38.0769L34.7614 35.5903C34.5542 35.5385 34.3987 35.4349 34.2433 35.3312C33.7771 35.0204 33.5181 34.5542 33.4144 33.9843L33 30.617C35.383 28.752 37.1444 26.0063 38.0251 22.7425C39.5275 22.5871 40.719 20.9294 40.719 18.7535C40.719 16.7849 39.7347 15.179 38.3878 14.8163" stroke="#6EBE81" stroke-opacity="0.6" stroke-width="3" stroke-miterlimit="10" stroke-linecap="round"/>
<path d="M14.2984 14.9199C12.9514 15.2826 12.0189 16.8885 12.0189 18.8053C12.0189 20.9294 13.1586 22.6389 14.7128 22.7943C15.5417 26.0063 17.3549 28.8038 19.7379 30.6688L19.3235 34.0361C19.2717 34.5542 18.9608 35.0722 18.4946 35.383C18.3392 35.4867 18.1838 35.5903 17.9765 35.6421L9.48046 38.1287C8.39254 38.3878 7.25283 38.9576 6.16491 39.8901C4.40353 41.3407 3.21201 43.3611 2.79757 45.5369L0.777159 55.5353C0.725354 55.6907 0.777159 55.8462 0.88077 55.9498C0.984381 56.0534 1.08799 56.1052 1.24341 56.1052H42.4805" stroke="#6EBE81" stroke-opacity="0.6" stroke-width="3" stroke-miterlimit="10" stroke-linecap="round"/>
<path d="M38.3879 14.9199C38.3879 14.9199 39.1132 0.777084 26.369 0.777084C13.6767 0.777084 14.2984 14.9199 14.2984 14.9199" stroke="#6EBE81" stroke-opacity="0.6" stroke-width="3" stroke-miterlimit="10" stroke-linecap="round"/>
<path d="M15.231 8.85872C15.749 7.82261 16.6815 7.04553 17.7694 6.68289C19.479 6.06123 21.4476 6.57928 23.1054 7.30456C25.4884 8.39247 27.6124 9.6876 30.3063 9.99843C32.8966 10.2575 35.2278 9.99843 37.5591 8.80691" stroke="#6EBE81" stroke-opacity="0.6" stroke-width="3" stroke-miterlimit="10" stroke-linecap="round"/>
<path d="M18.5464 35.383L26.369 43.5165" stroke="#6EBE81" stroke-opacity="0.6" stroke-width="3" stroke-miterlimit="10" stroke-linecap="round"/>
<path d="M34.2433 35.383L26.3689 43.5165" stroke="#6EBE81" stroke-opacity="0.6" stroke-width="3" stroke-miterlimit="10" stroke-linecap="round"/>
<path d="M52.0126 65.1711C57.2485 65.1711 61.493 60.9266 61.493 55.6907C61.493 50.4549 57.2485 46.2104 52.0126 46.2104C46.7767 46.2104 42.5322 50.4549 42.5322 55.6907C42.5322 60.9266 46.7767 65.1711 52.0126 65.1711Z" stroke="#6EBE81" stroke-opacity="0.6" stroke-width="3" stroke-miterlimit="10"/>
<path d="M52.0127 60.5086V50.9247" stroke="#6EBE81" stroke-opacity="0.6" stroke-width="3" stroke-miterlimit="10" stroke-linecap="round"/>
<path d="M47.2466 55.6907H56.7788" stroke="#6EBE81" stroke-opacity="0.6" stroke-width="3" stroke-miterlimit="10" stroke-linecap="round"/>
<path d="M35.1241 37.9215L27.8714 45.6405C27.457 46.0549 26.9389 46.2622 26.4208 46.2622C25.9028 46.2622 25.3847 46.0549 24.9703 45.6405L17.7176 37.9215L14.7646 38.8022L26.369 51.2873L26.4208 51.2355V51.2873L38.0771 38.8022L35.1241 37.9215Z" fill="#7E92FF"/>
</g>
<defs>
<clipPath id="clip0_18_352">
<rect width="62.27" height="66" fill="white"/>
</clipPath>
</defs>
</svg>
