<svg width="89" height="67" viewBox="0 0 89 67" fill="none" xmlns="http://www.w3.org/2000/svg">
<path d="M34.0156 60.8594L33.2586 60.206L34.0156 60.8594ZM10.8906 64.9219L10.5568 65.8645L10.5655 65.8676L10.8906 64.9219ZM1.75 55L0.793174 55.2907L0.794221 55.2941L1.75 55ZM2.29688 10.1172L1.35338 9.78569L1.35078 9.7933L2.29688 10.1172ZM8.27344 3.16406L7.77003 2.3L7.76675 2.30193L8.27344 3.16406ZM28.4297 2.38281L28.0211 3.29557L28.0284 3.29877L28.4297 2.38281ZM37.2969 12.6953L36.319 12.9049L36.3215 12.9159L37.2969 12.6953ZM21.75 11.5625L20.8102 11.9042L20.8165 11.9217L20.8235 11.9389L21.75 11.5625ZM17.1406 11.6406L16.2215 11.2467L16.2187 11.2533L16.2159 11.2599L17.1406 11.6406ZM17.1016 55.3516L16.1891 55.7606L16.1949 55.7735L16.201 55.7863L17.1016 55.3516ZM37.0391 23.1641V44.2578H39.0391V23.1641H37.0391ZM37.0391 44.2578C37.0391 49.0386 36.777 52.4287 36.285 54.4949L38.2306 54.9582C38.7803 52.6495 39.0391 49.0603 39.0391 44.2578H37.0391ZM36.285 54.4949C35.8054 56.5092 34.8069 58.4119 33.2586 60.206L34.7727 61.5127C36.5056 59.5048 37.6685 57.319 38.2306 54.9582L36.285 54.4949ZM33.2586 60.206C31.7281 61.9794 29.8922 63.246 27.7398 64.0199L28.4165 65.902C30.8995 65.0092 33.0219 63.5414 34.7727 61.5127L33.2586 60.206ZM27.7398 64.0199C25.5467 64.8084 23.0724 65.2109 20.3047 65.2109V67.2109C23.2662 67.2109 25.9741 66.7801 28.4165 65.902L27.7398 64.0199ZM20.3047 65.2109C16.5959 65.2109 13.5768 64.7878 11.2157 63.9762L10.5655 65.8676C13.2045 66.7747 16.4614 67.2109 20.3047 67.2109V65.2109ZM11.2245 63.9792C8.87829 63.1483 7.04847 61.8816 5.69386 60.1943L4.13427 61.4463C5.7484 63.4569 7.90296 64.9246 10.5568 65.8645L11.2245 63.9792ZM5.69386 60.1943C4.27946 58.4325 3.28956 56.6032 2.70578 54.7059L0.794221 55.2941C1.46044 57.4593 2.57991 59.5102 4.13427 61.4463L5.69386 60.1943ZM2.70682 54.7093C2.12719 52.8014 1.8125 49.6709 1.8125 45.2344H-0.1875C-0.1875 49.7041 0.122811 53.084 0.79318 55.2907L2.70682 54.7093ZM1.8125 45.2344V23.1641H-0.1875V45.2344H1.8125ZM1.8125 23.1641C1.8125 17.3864 2.30817 13.1717 3.24297 10.4411L1.35078 9.7933C0.306417 12.8439 -0.1875 17.3272 -0.1875 23.1641H1.8125ZM3.24033 10.4487C4.16788 7.80873 5.9882 5.66706 8.78013 4.02619L7.76675 2.30193C4.62118 4.15065 2.45712 6.64439 1.35341 9.7857L3.24033 10.4487ZM8.77684 4.02811C11.5879 2.39036 15.0253 1.54688 19.1328 1.54688V-0.453125C14.7507 -0.453125 10.9485 0.448182 7.77003 2.30001L8.77684 4.02811ZM19.1328 1.54688C22.4774 1.54688 25.4338 2.13742 28.0211 3.29555L28.8382 1.47008C25.9568 0.180289 22.7153 -0.453125 19.1328 -0.453125V1.54688ZM28.0284 3.29877C30.6614 4.45228 32.5503 5.83519 33.7725 7.41L35.3525 6.18375C33.8664 4.26898 31.6667 2.70918 28.831 1.46686L28.0284 3.29877ZM33.7725 7.41C35.0333 9.0345 35.8814 10.8623 36.3191 12.9048L38.2747 12.4858C37.7749 10.1533 36.8 8.04883 35.3525 6.18375L33.7725 7.41ZM36.3215 12.9159C36.7901 14.9877 37.0391 18.3825 37.0391 23.1641H39.0391C39.0391 18.3622 38.7932 14.7779 38.2722 12.4747L36.3215 12.9159ZM23.2578 17.8516C23.2578 16.1588 23.2153 14.7651 23.1276 13.6793C23.0428 12.6288 22.9091 11.7588 22.6765 11.1861L20.8235 11.9389C20.9294 12.1995 21.0497 12.7944 21.1341 13.8402C21.2157 14.8507 21.2578 16.1849 21.2578 17.8516H23.2578ZM22.6898 11.2208C22.457 10.5807 22.0391 10.0653 21.4437 9.72654C20.869 9.39953 20.1941 9.27344 19.4844 9.27344V11.2734C19.9726 11.2734 20.2742 11.3622 20.4547 11.4649C20.6145 11.5558 20.7305 11.6849 20.8102 11.9042L22.6898 11.2208ZM19.4844 9.27344C18.7725 9.27344 18.0981 9.41172 17.5157 9.75146C16.9218 10.0979 16.4927 10.6139 16.2215 11.2467L18.0598 12.0345C18.1792 11.7559 18.336 11.5883 18.5234 11.479C18.7222 11.363 19.0243 11.2734 19.4844 11.2734V9.27344ZM16.2159 11.2599C15.9716 11.8533 15.8265 12.7233 15.7343 13.7697C15.6396 14.8455 15.5938 16.209 15.5938 17.8516H17.5938C17.5938 16.2389 17.639 14.9397 17.7266 13.9451C17.8168 12.9212 17.9451 12.3134 18.0653 12.0214L16.2159 11.2599ZM15.5938 17.8516V48.7109H17.5938V17.8516H15.5938ZM15.5938 48.7109C15.5938 50.5582 15.6362 52.0581 15.7236 53.2012C15.807 54.2915 15.9387 55.2021 16.1891 55.7606L18.0141 54.9425C17.9259 54.7458 17.8037 54.1721 17.7178 53.0488C17.6359 51.9783 17.5938 50.5355 17.5938 48.7109H15.5938ZM16.201 55.7863C16.7974 57.0217 18.027 57.4844 19.4062 57.4844V55.4844C18.4418 55.4844 18.1349 55.1918 18.0021 54.9168L16.201 55.7863ZM19.4062 57.4844C20.1128 57.4844 20.7834 57.3514 21.3606 57.0188C21.952 56.678 22.3763 56.1668 22.6356 55.537L20.7863 54.7755C20.681 55.0311 20.5389 55.184 20.362 55.2859C20.171 55.396 19.8716 55.4844 19.4062 55.4844V57.4844ZM22.6356 55.537C22.8784 54.9473 23.0244 54.101 23.1169 53.0892C23.2119 52.0511 23.2578 50.745 23.2578 49.1797H21.2578C21.2578 50.7133 21.2126 51.9528 21.1253 52.9069C21.0355 53.8873 20.908 54.4798 20.7863 54.7755L22.6356 55.537ZM23.2578 49.1797V17.8516H21.2578V49.1797H23.2578ZM81.3516 29.1797L80.878 28.2989L78.8468 29.3909L81.0322 30.1273L81.3516 29.1797ZM86.7031 33.1641L85.8585 33.6994L85.8619 33.7048L86.7031 33.1641ZM86.7422 57.7734L87.6658 58.1568L87.667 58.1538L86.7422 57.7734ZM80.8047 64.1016L81.2585 64.9927L81.265 64.9893L80.8047 64.1016ZM58.1875 63.75L57.6753 64.6089L57.6846 64.6143L58.1875 63.75ZM52.5625 57.5781L51.622 57.9183L51.6266 57.9304L52.5625 57.5781ZM51.2344 39.8828V38.8828H50.2344V39.8828H51.2344ZM67.0156 39.8828H68.0156V38.8828H67.0156V39.8828ZM67.4844 55.3906L66.5604 55.773L66.5685 55.7925L66.5774 55.8117L67.4844 55.3906ZM69.4375 35.8594L69.1144 36.8057L69.1248 36.8093L69.1353 36.8126L69.4375 35.8594ZM63.2266 35.2344H62.2266V36.2176L63.2096 36.2342L63.2266 35.2344ZM63.2266 26.0547V25.0547H62.2266V26.0547H63.2266ZM71.9766 11.3281L71.1303 11.8609L71.1373 11.872L71.1445 11.8828L71.9766 11.3281ZM67.6016 11.4062L66.7259 10.9231L66.7201 10.934L67.6016 11.4062ZM67.0156 21.3281V22.3281H68.0156V21.3281H67.0156ZM51.2344 21.3281H50.2344V22.3281H51.2344V21.3281ZM55.375 3.71094L55.9822 4.50552L55.9869 4.50189L55.375 3.71094ZM86.4297 24.8828L87.2809 25.4077L87.2847 25.4014L86.4297 24.8828ZM81.0322 30.1273C83.2463 30.8734 84.8279 32.0733 85.8585 33.6994L87.5478 32.6287C86.2346 30.5569 84.2485 29.1006 81.6709 28.232L81.0322 30.1273ZM85.8619 33.7048C86.3237 34.4231 86.7415 35.7688 87.0307 37.889C87.3151 39.9751 87.4609 42.6924 87.4609 46.0547H89.4609C89.4609 42.6461 89.3138 39.8295 89.0123 37.6188C88.7155 35.4421 88.2544 33.728 87.5443 32.6233L85.8619 33.7048ZM87.4609 46.0547C87.4609 51.0258 86.8912 54.7817 85.8173 57.3931L87.667 58.1538C88.8848 55.1923 89.4609 51.1356 89.4609 46.0547H87.4609ZM85.8186 57.3901C84.7687 59.9194 82.9615 61.8568 80.3444 63.2138L81.265 64.9893C84.2729 63.4297 86.424 61.1484 87.6658 58.1568L85.8186 57.3901ZM80.3509 63.2105C77.7232 64.5486 74.2863 65.25 69.9844 65.25V67.25C74.4845 67.25 78.2611 66.5191 81.2585 64.9927L80.3509 63.2105ZM69.9844 65.25C65.078 65.25 61.3437 64.4294 58.6904 62.8857L57.6846 64.6143C60.7605 66.4039 64.8908 67.25 69.9844 67.25V65.25ZM58.6997 62.8911C56.0009 61.2818 54.3102 59.3829 53.4984 57.2259L51.6266 57.9304C52.6377 60.6171 54.697 62.8328 57.6753 64.6089L58.6997 62.8911ZM53.5029 57.238C52.6825 54.9698 52.2344 50.8947 52.2344 44.8828H50.2344C50.2344 50.9022 50.6717 55.2906 51.6221 57.9183L53.5029 57.238ZM52.2344 44.8828V39.8828H50.2344V44.8828H52.2344ZM51.2344 40.8828H67.0156V38.8828H51.2344V40.8828ZM66.0156 39.8828V50.1562H68.0156V39.8828H66.0156ZM66.0156 50.1562C66.0156 51.5387 66.055 52.6912 66.1368 53.6048C66.2161 54.49 66.342 55.2453 66.5604 55.773L68.4084 55.0083C68.3142 54.7807 68.2058 54.2861 68.1288 53.4264C68.0544 52.5953 68.0156 51.5082 68.0156 50.1562H66.0156ZM66.5774 55.8117C67.1436 57.0312 68.3412 57.4844 69.6719 57.4844V55.4844C68.763 55.4844 68.5023 55.2084 68.3914 54.9695L66.5774 55.8117ZM69.6719 57.4844C70.4068 57.4844 71.1009 57.344 71.6974 56.9976C72.307 56.6437 72.7453 56.1144 73.0168 55.4627L71.1707 54.6935C71.0516 54.9793 70.8909 55.1532 70.6932 55.268C70.4824 55.3904 70.1609 55.4844 69.6719 55.4844V57.4844ZM73.0168 55.4627C73.2797 54.8318 73.4325 53.8406 73.53 52.6186C73.6307 51.3572 73.6797 49.7262 73.6797 47.7344H71.6797C71.6797 49.7009 71.631 51.273 71.5364 52.4595C71.4386 53.6854 71.2984 54.3869 71.1707 54.6935L73.0168 55.4627ZM73.6797 47.7344V43.3594H71.6797V47.7344H73.6797ZM73.6797 43.3594C73.6797 40.9027 73.4088 38.9408 72.7579 37.608L70.9608 38.4857C71.4037 39.3925 71.6797 40.9723 71.6797 43.3594H73.6797ZM72.7579 37.608C72.1059 36.273 71.0989 35.3371 69.7397 34.9061L69.1353 36.8126C69.9115 37.0587 70.5191 37.5812 70.9608 38.4857L72.7579 37.608ZM69.7606 34.913C68.5229 34.4904 66.3 34.2863 63.2435 34.2345L63.2096 36.2342C66.299 36.2866 68.2166 36.4992 69.1144 36.8057L69.7606 34.913ZM64.2266 35.2344V26.0547H62.2266V35.2344H64.2266ZM63.2266 27.0547C65.1113 27.0547 66.6511 27.0188 67.839 26.9454C68.9938 26.874 69.9108 26.763 70.4875 26.5764L69.8719 24.6736C69.5631 24.7734 68.8786 24.8773 67.7157 24.9492C66.5859 25.019 65.0918 25.0547 63.2266 25.0547V27.0547ZM70.4875 26.5764C71.6893 26.1876 72.5335 25.327 73.0205 24.1257L71.167 23.3743C70.8728 24.1 70.4409 24.4895 69.8719 24.6736L70.4875 26.5764ZM73.0205 24.1257C73.4868 22.9755 73.6797 21.3037 73.6797 19.2188H71.6797C71.6797 21.2484 71.482 22.5974 71.167 23.3743L73.0205 24.1257ZM73.6797 19.2188V15.7031H71.6797V19.2188H73.6797ZM73.6797 15.7031C73.6797 14.5666 73.6199 13.5911 73.4912 12.7905C73.3658 12.0103 73.1612 11.3023 72.8086 10.7734L71.1445 11.8828C71.2607 12.057 71.4076 12.4298 71.5166 13.1079C71.6223 13.7656 71.6797 14.6261 71.6797 15.7031H73.6797ZM72.8228 10.7953C72.1651 9.7508 71.1099 9.27344 69.8672 9.27344V11.2734C70.5515 11.2734 70.9026 11.4992 71.1303 11.8609L72.8228 10.7953ZM69.8672 9.27344C68.5234 9.27344 67.3676 9.76026 66.726 10.9232L68.4771 11.8893C68.6689 11.5418 69.0235 11.2734 69.8672 11.2734V9.27344ZM66.7201 10.934C66.435 11.4662 66.2712 12.193 66.1697 13.0117C66.0651 13.8556 66.0156 14.8997 66.0156 16.1328H68.0156C68.0156 14.9441 68.0638 13.9895 68.1545 13.2578C68.2483 12.501 68.3775 12.0755 68.483 11.8785L66.7201 10.934ZM66.0156 16.1328V21.3281H68.0156V16.1328H66.0156ZM67.0156 20.3281H51.2344V22.3281H67.0156V20.3281ZM52.2344 21.3281V15.9375H50.2344V21.3281H52.2344ZM52.2344 15.9375C52.2344 9.98434 53.6046 6.32232 55.9822 4.50551L54.7678 2.91637C51.6245 5.31831 50.2344 9.80733 50.2344 15.9375H52.2344ZM55.9869 4.50189C58.4847 2.5696 62.6006 1.50781 68.5391 1.50781V-0.492188C62.4462 -0.492188 57.7861 0.58144 54.7631 2.91998L55.9869 4.50189ZM68.5391 1.50781C76.0104 1.50781 80.7317 2.98361 83.1125 5.59552L84.5906 4.24823C81.6068 0.97472 76.1199 -0.492188 68.5391 -0.492188V1.50781ZM83.1125 5.59552C85.5797 8.30226 86.875 12.1221 86.875 17.1875H88.875C88.875 11.7842 87.488 7.42691 84.5906 4.24823L83.1125 5.59552ZM86.875 17.1875C86.875 20.6852 86.3907 23.0188 85.5747 24.3642L87.2847 25.4014C88.3957 23.5697 88.875 20.7731 88.875 17.1875H86.875ZM85.5785 24.3579C84.7422 25.7141 83.2164 27.0417 80.878 28.2989L81.8251 30.0605C84.3305 28.7135 86.1901 27.1766 87.2809 25.4077L85.5785 24.3579Z" fill="#7E92FF"/>
</svg>
