<svg width="64" height="64" viewBox="0 0 64 64" fill="none" xmlns="http://www.w3.org/2000/svg">
<g opacity="0.7" clip-path="url(#clip0_254_225)">
<path d="M27.4286 63.1885L26.4007 51.6653L19.0972 47.0127L18.3939 55.5064L16.3922 54.0998L15.1479 56.5342L16.8791 63.1885H27.4286Z" fill="#7E92FF" fill-opacity="0.8"/>
<path d="M0.811493 63.1885L1.83939 51.6653L9.14285 47.0127L9.84615 55.5064L11.8478 54.0998L13.0921 56.5342L11.3609 63.1885H0.811493Z" fill="#7E92FF" fill-opacity="0.8"/>
<path d="M0.811493 63.1886C0.811493 62.4853 1.83939 51.6653 1.83939 51.6653L9.14285 46.9045" stroke="#6EBE81" stroke-opacity="0.6" stroke-width="3" stroke-miterlimit="10" stroke-linejoin="round"/>
<path d="M9.14285 46.9045L9.84615 55.831L14.12 52.0981L9.14285 46.9045Z" stroke="#6EBE81" stroke-opacity="0.6" stroke-width="3" stroke-miterlimit="10" stroke-linecap="round" stroke-linejoin="round"/>
<path d="M13.0921 56.3719L11.3609 63.1885" stroke="#6EBE81" stroke-opacity="0.6" stroke-width="3" stroke-miterlimit="10" stroke-linecap="round" stroke-linejoin="round"/>
<path d="M27.4286 63.1886C27.4286 62.4853 26.4007 51.6653 26.4007 51.6653L19.0972 46.9045" stroke="#6EBE81" stroke-opacity="0.6" stroke-width="3" stroke-miterlimit="10" stroke-linejoin="round"/>
<path d="M19.0972 46.9045L18.3939 55.831L14.12 52.0981L19.0972 46.9045Z" stroke="#6EBE81" stroke-opacity="0.6" stroke-width="3" stroke-miterlimit="10" stroke-linecap="round" stroke-linejoin="round"/>
<path d="M14.12 52.0981L11.8478 54.0998L13.0921 56.372H14.12H15.1479L16.3922 54.0998L14.12 52.0981Z" stroke="#6EBE81" stroke-opacity="0.6" stroke-width="3" stroke-miterlimit="10" stroke-linecap="round" stroke-linejoin="round"/>
<path d="M15.1479 56.3719L16.8791 63.1885" stroke="#6EBE81" stroke-opacity="0.6" stroke-width="3" stroke-miterlimit="10" stroke-linecap="round" stroke-linejoin="round"/>
<path d="M19.0972 58.8606H23.0465" stroke="#6EBE81" stroke-opacity="0.6" stroke-width="3" stroke-miterlimit="10" stroke-linecap="round" stroke-linejoin="round"/>
<path d="M19.4218 39.3847C19.4218 35.76 17.0414 32.8927 14.12 32.8927C11.1987 32.8927 8.81827 35.8141 8.81827 39.3847C8.81827 43.0094 11.1987 45.8766 14.12 45.8766C17.0414 45.8766 19.4218 43.0094 19.4218 39.3847Z" stroke="#6EBE81" stroke-opacity="0.6" stroke-width="3" stroke-miterlimit="10" stroke-linecap="round" stroke-linejoin="round"/>
<path d="M63.1885 31.1073L62.1606 19.5841L54.8571 14.9856L54.1538 23.4252L52.1521 22.0186L50.9078 24.5071L52.639 31.1073H63.1885Z" fill="#6EBE81" fill-opacity="0.6"/>
<path d="M36.5714 31.1073L37.5993 19.5841L44.9028 14.9856L45.6061 23.4252L47.6078 22.0186L48.8521 24.5071L47.1209 31.1073H36.5714Z" fill="#6EBE81" fill-opacity="0.6"/>
<path d="M36.5714 31.1074C36.5714 30.4041 37.5993 19.5841 37.5993 19.5841L44.9028 14.8234" stroke="#6EBE81" stroke-opacity="0.6" stroke-width="3" stroke-miterlimit="10" stroke-linejoin="round"/>
<path d="M44.9028 14.8234L45.6061 23.7498L49.8799 20.071L44.9028 14.8234Z" stroke="#6EBE81" stroke-opacity="0.6" stroke-width="3" stroke-miterlimit="10" stroke-linecap="round" stroke-linejoin="round"/>
<path d="M48.852 24.345L47.1208 31.1074" stroke="#6EBE81" stroke-opacity="0.6" stroke-width="3" stroke-miterlimit="10" stroke-linecap="round" stroke-linejoin="round"/>
<path d="M63.1885 31.1074C63.1885 30.4041 62.1606 19.5841 62.1606 19.5841L54.8571 14.8234" stroke="#6EBE81" stroke-opacity="0.6" stroke-width="3" stroke-miterlimit="10" stroke-linejoin="round"/>
<path d="M54.8571 14.8234L54.1538 23.7498L49.8799 20.071L54.8571 14.8234Z" stroke="#6EBE81" stroke-opacity="0.6" stroke-width="3" stroke-miterlimit="10" stroke-linecap="round" stroke-linejoin="round"/>
<path d="M49.8799 20.071L47.6078 22.0186L48.8521 24.3449H49.8799H50.9078L52.1521 22.0186L49.8799 20.071Z" stroke="#6EBE81" stroke-opacity="0.6" stroke-width="3" stroke-miterlimit="10" stroke-linecap="round" stroke-linejoin="round"/>
<path d="M50.9078 24.345L52.639 31.1074" stroke="#6EBE81" stroke-opacity="0.6" stroke-width="3" stroke-miterlimit="10" stroke-linecap="round" stroke-linejoin="round"/>
<path d="M54.8571 26.8335H58.8064" stroke="#6EBE81" stroke-opacity="0.6" stroke-width="3" stroke-miterlimit="10" stroke-linecap="round" stroke-linejoin="round"/>
<path d="M49.88 13.7955C52.808 13.7955 55.1817 10.8889 55.1817 7.30349C55.1817 3.71808 52.808 0.811523 49.88 0.811523C46.9519 0.811523 44.5782 3.71808 44.5782 7.30349C44.5782 10.8889 46.9519 13.7955 49.88 13.7955Z" stroke="#6EBE81" stroke-opacity="0.6" stroke-width="3" stroke-miterlimit="10" stroke-linecap="round" stroke-linejoin="round"/>
<path d="M41.4404 55.6146C45.4438 54.4785 53.8292 50.8538 57.2375 40.1962" stroke="#6EBE81" stroke-opacity="0.6" stroke-width="3" stroke-miterlimit="10"/>
<path d="M12.2265 27.2122C13.3626 23.2088 16.9873 14.8233 27.645 11.415" stroke="#6EBE81" stroke-opacity="0.6" stroke-width="3" stroke-miterlimit="10"/>
</g>
<defs>
<clipPath id="clip0_254_225">
<rect width="64" height="64" fill="white"/>
</clipPath>
</defs>
</svg>
