<svg width="61" height="56" viewBox="0 0 61 56" fill="none" xmlns="http://www.w3.org/2000/svg">
<g opacity="0.7" clip-path="url(#clip0_18_416)">
<path d="M14.6936 22.5541C14.6936 26.8697 11.7138 30.4661 7.75781 31.4422C8.47708 31.5963 9.19634 31.7505 9.96699 31.7505C15.0532 31.7505 19.1633 27.6404 19.1633 22.5541H14.6936Z" fill="#7E92FF"/>
<path d="M54.8696 22.5541C54.8696 26.8697 51.8898 30.4661 47.9338 31.4422C48.6531 31.5963 49.3724 31.7505 50.143 31.7505C55.2292 31.7505 59.3393 27.6404 59.3393 22.5541H54.8696Z" fill="#7E92FF"/>
<path d="M47.8313 55.2294H12.279C10.9946 55.2294 9.96704 54.2018 9.96704 52.9174V52.5578C9.96704 51.2734 10.9946 50.2459 12.279 50.2459H47.8313C49.1157 50.2459 50.1432 51.2734 50.1432 52.5578V52.9174C50.1432 54.2018 49.1157 55.2294 47.8313 55.2294Z" stroke="white" stroke-opacity="0.8" stroke-width="3" stroke-miterlimit="10" stroke-linecap="round" stroke-linejoin="round"/>
<path d="M32.8293 40.2275H27.2807C22.1944 40.2275 18.033 44.389 18.033 49.4752V50.2459H42.077V49.4752C42.077 44.3376 37.9155 40.2275 32.8293 40.2275Z" stroke="white" stroke-opacity="0.8" stroke-width="3" stroke-miterlimit="10" stroke-linecap="round" stroke-linejoin="round"/>
<path d="M30.0549 4.82936V0.770645" stroke="white" stroke-opacity="0.8" stroke-width="3" stroke-miterlimit="10" stroke-linecap="round" stroke-linejoin="round"/>
<path d="M30.0549 40.2275V10.5835" stroke="white" stroke-opacity="0.8" stroke-width="3" stroke-miterlimit="10" stroke-linecap="round" stroke-linejoin="round"/>
<path d="M32.9321 7.70643C32.9321 6.11376 31.6477 4.82936 30.055 4.82936C28.4624 4.82936 27.178 6.11376 27.178 7.70643C27.178 9.29909 28.4624 10.5835 30.055 10.5835C31.6477 10.5835 32.9321 9.29909 32.9321 7.70643Z" stroke="white" stroke-opacity="0.8" stroke-width="3" stroke-miterlimit="10" stroke-linecap="round" stroke-linejoin="round"/>
<path d="M19.1119 22.5541C19.1119 27.6404 15.0018 31.7505 9.91557 31.7505C4.82933 31.7505 0.719238 27.6404 0.719238 22.5541H19.1119Z" stroke="white" stroke-opacity="0.8" stroke-width="3" stroke-miterlimit="10" stroke-linecap="round" stroke-linejoin="round"/>
<path d="M4.57251 17.1596L9.96701 9.40184" stroke="white" stroke-opacity="0.8" stroke-width="3" stroke-miterlimit="10" stroke-linecap="round" stroke-linejoin="round"/>
<path d="M15.3615 17.1596L9.96704 9.40184" stroke="white" stroke-opacity="0.8" stroke-width="3" stroke-miterlimit="10" stroke-linecap="round" stroke-linejoin="round"/>
<path d="M27.1781 7.70643L9.96704 9.40184" stroke="white" stroke-opacity="0.8" stroke-width="3" stroke-miterlimit="10" stroke-linecap="round" stroke-linejoin="round"/>
<path d="M40.9468 22.5541C40.9468 27.6404 45.0569 31.7505 50.1431 31.7505C55.2293 31.7505 59.3394 27.6404 59.3394 22.5541H40.9468Z" stroke="white" stroke-opacity="0.8" stroke-width="3" stroke-miterlimit="10" stroke-linecap="round" stroke-linejoin="round"/>
<path d="M55.5376 17.1596L50.1431 9.40184" stroke="white" stroke-opacity="0.8" stroke-width="3" stroke-miterlimit="10" stroke-linecap="round" stroke-linejoin="round"/>
<path d="M44.7485 17.1596L50.143 9.40184" stroke="white" stroke-opacity="0.8" stroke-width="3" stroke-miterlimit="10" stroke-linecap="round" stroke-linejoin="round"/>
<path d="M32.9321 7.70643L50.1431 9.40184" stroke="white" stroke-opacity="0.8" stroke-width="3" stroke-miterlimit="10" stroke-linecap="round" stroke-linejoin="round"/>
</g>
<defs>
<clipPath id="clip0_18_416">
<rect width="60.0587" height="56" fill="white"/>
</clipPath>
</defs>
</svg>
