<svg width="67" height="50" viewBox="0 0 67 50" fill="none" xmlns="http://www.w3.org/2000/svg">
<path d="M25.0117 45.8945L24.2547 45.2412L25.0117 45.8945ZM7.66797 48.9414L7.33411 49.8841L7.34289 49.8871L7.66797 48.9414ZM0.8125 41.5L-0.144327 41.7907L-0.143279 41.7941L0.8125 41.5ZM1.22266 7.83789L0.279166 7.50639L0.276561 7.514L1.22266 7.83789ZM5.70508 2.62305L5.20167 1.75899L5.19839 1.76092L5.70508 2.62305ZM20.8223 2.03711L20.4137 2.94987L20.421 2.95307L20.8223 2.03711ZM27.4727 9.77148L26.4948 9.98103L26.4973 9.9921L27.4727 9.77148ZM15.8125 8.92188L14.8727 9.26362L14.879 9.28106L14.886 9.29825L15.8125 8.92188ZM12.3555 8.98047L11.4363 8.58655L11.4335 8.59311L11.4308 8.59972L12.3555 8.98047ZM12.3262 41.7637L11.4137 42.1727L11.4195 42.1857L11.4256 42.1984L12.3262 41.7637ZM27.0293 17.623V33.4434H29.0293V17.623H27.0293ZM27.0293 33.4434C27.0293 37.0263 26.8323 39.5439 26.4706 41.0633L28.4162 41.5265C28.8357 39.7647 29.0293 37.048 29.0293 33.4434H27.0293ZM26.4706 41.0633C26.1212 42.5306 25.3929 43.9223 24.2547 45.2412L25.7688 46.5479C27.0915 45.0152 27.9843 43.3404 28.4162 41.5265L26.4706 41.0633ZM24.2547 45.2412C23.1344 46.5393 21.7932 47.4641 20.2202 48.0297L20.8969 49.9117C22.8005 49.2273 24.4281 48.1013 25.7688 46.5479L24.2547 45.2412ZM20.2202 48.0297C18.6066 48.6099 16.7801 48.9082 14.7285 48.9082V50.9082C16.9738 50.9082 19.034 50.5815 20.8969 49.9117L20.2202 48.0297ZM14.7285 48.9082C11.9638 48.9082 9.7291 48.5925 7.99305 47.9957L7.34289 49.8871C9.35684 50.5794 11.8292 50.9082 14.7285 50.9082V48.9082ZM8.00182 47.9988C6.28063 47.3892 4.94886 46.4643 3.96534 45.2392L2.40575 46.4913C3.64879 48.0396 5.30531 49.1655 7.33412 49.884L8.00182 47.9988ZM3.96534 45.2392C2.92204 43.9396 2.19581 42.5954 1.76828 41.2059L-0.143279 41.7941C0.366693 43.4515 1.22249 45.0174 2.40575 46.4913L3.96534 45.2392ZM1.76932 41.2093C1.34594 39.8157 1.10938 37.499 1.10938 34.1758H-0.890625C-0.890625 37.5322 -0.658439 40.0984 -0.14432 41.7907L1.76932 41.2093ZM1.10938 34.1758V17.623H-0.890625V34.1758H1.10938ZM1.10938 17.623C1.10938 13.2972 1.48134 10.1697 2.16875 8.16178L0.276561 7.514C-0.520406 9.84199 -0.890625 13.238 -0.890625 17.623H1.10938ZM2.16612 8.16938C2.83976 6.25209 4.16203 4.68985 6.21177 3.48518L5.19839 1.76092C2.795 3.17343 1.12899 5.08775 0.279196 7.5064L2.16612 8.16938ZM6.20848 3.4871C8.27085 2.28554 10.8033 1.66016 13.8496 1.66016V-0.339844C10.5287 -0.339844 7.63149 0.343364 5.20167 1.759L6.20848 3.4871ZM13.8496 1.66016C16.3283 1.66016 18.51 2.09771 20.4137 2.94984L21.2308 1.12438C19.033 0.140576 16.5662 -0.339844 13.8496 -0.339844V1.66016ZM20.421 2.95307C22.3704 3.8071 23.7482 4.82217 24.6319 5.96078L26.2119 4.73453C25.0643 3.25596 23.3757 2.06399 21.2235 1.12115L20.421 2.95307ZM24.6319 5.96078C25.5542 7.14909 26.1744 8.48536 26.4949 9.98101L28.4505 9.56196C28.0678 7.77636 27.3208 6.16341 26.2119 4.73453L24.6319 5.96078ZM26.4973 9.9921C26.8422 11.517 27.0293 14.0394 27.0293 17.623H29.0293C29.0293 14.0191 28.8453 11.3072 28.448 9.55087L26.4973 9.9921ZM17.1934 13.6387C17.1934 12.3658 17.1614 11.3132 17.0949 10.4893C17.0312 9.70092 16.9293 9.014 16.739 8.5455L14.886 9.29825C14.9496 9.45475 15.0381 9.86646 15.1014 10.6503C15.1618 11.3988 15.1934 12.392 15.1934 13.6387H17.1934ZM16.7523 8.58013C16.5586 8.04748 16.2074 7.61265 15.7064 7.32761C15.2261 7.05431 14.6732 6.95508 14.1133 6.95508V8.95508C14.4518 8.95508 14.6313 9.01698 14.7174 9.06594C14.7828 9.10317 14.832 9.15174 14.8727 9.26362L16.7523 8.58013ZM14.1133 6.95508C13.5479 6.95508 12.9955 7.06488 12.5108 7.34765C12.0146 7.63708 11.6587 8.0677 11.4363 8.58655L13.2746 9.37439C13.3452 9.20964 13.4288 9.12756 13.5185 9.0752C13.6197 9.01618 13.7997 8.95508 14.1133 8.95508V6.95508ZM11.4308 8.59972C11.232 9.08245 11.1211 9.76774 11.0517 10.5554C10.9798 11.3724 10.9453 12.4031 10.9453 13.6387H12.9453C12.9453 12.4329 12.9792 11.4665 13.044 10.7308C13.1114 9.96565 13.2055 9.54255 13.2801 9.36122L11.4308 8.59972ZM10.9453 13.6387V36.7832H12.9453V13.6387H10.9453ZM10.9453 36.7832C10.9453 38.1715 10.9772 39.3036 11.0434 40.17C11.1056 40.9835 11.2056 41.7086 11.4137 42.1727L13.2387 41.3546C13.1928 41.2523 13.1024 40.8641 13.0376 40.0175C12.9769 39.2238 12.9453 38.1488 12.9453 36.7832H10.9453ZM11.4256 42.1984C11.9309 43.245 12.9684 43.6133 14.0547 43.6133V41.6133C13.3832 41.6133 13.2683 41.4151 13.2267 41.3289L11.4256 42.1984ZM14.0547 43.6133C14.6147 43.6133 15.1641 43.508 15.6453 43.2307C16.1407 42.9452 16.4941 42.517 16.7079 41.9979L14.8585 41.2364C14.7988 41.3814 14.7275 41.4513 14.6467 41.4978C14.5517 41.5526 14.3735 41.6133 14.0547 41.6133V43.6133ZM16.7079 41.9979C16.9051 41.5189 17.0169 40.8524 17.0867 40.0897C17.1589 39.3006 17.1934 38.3128 17.1934 37.1348H15.1934C15.1934 38.281 15.1595 39.2023 15.095 39.9074C15.0281 40.6388 14.9347 41.0514 14.8585 41.2364L16.7079 41.9979ZM17.1934 37.1348V13.6387H15.1934V37.1348H17.1934ZM66.6953 14.166V15.166H67.6953V14.166H66.6953ZM54.8594 14.166H53.8594V15.166H54.8594V14.166ZM54.7715 10.0059L53.7737 10.0724L53.7749 10.0906L53.7768 10.1088L54.7715 10.0059ZM54.0684 8.54102L53.3787 9.26515L53.3871 9.27315L53.3957 9.28096L54.0684 8.54102ZM50.875 8.51172L50.1863 7.78672L50.875 8.51172ZM50.1133 21.0508H49.1133L51.0159 21.4813L50.1133 21.0508ZM52.7793 18.209L53.2499 19.0914L53.2612 19.0852L52.7793 18.209ZM66.0215 23.2188L66.986 22.9547L66.0215 23.2188ZM66.3145 41.0605L65.3265 40.9058L66.3145 41.0605ZM64.2637 45.5723L63.4839 44.9462L63.4828 44.9476L64.2637 45.5723ZM59.7227 48.7656L59.3561 47.8352L59.3529 47.8365L59.7227 48.7656ZM40.4746 44.8105L39.6395 45.3608L39.6471 45.372L40.4746 44.8105ZM38.541 39.5957L37.5456 39.692L37.5467 39.7026L38.541 39.5957ZM38.5117 11.1484L37.5159 11.057L37.5151 11.0662L38.5117 11.1484ZM45.4258 1.91992L45.8048 2.84534L45.8092 2.84351L45.4258 1.91992ZM65.3184 6.7832L66.2234 6.35784L65.3184 6.7832ZM50.6699 25.4746L49.8296 24.9325L49.8251 24.9396L50.6699 25.4746ZM50.6406 41.6465L49.7627 42.1253L49.7683 42.1355L49.774 42.1454L50.6406 41.6465ZM54.0391 41.8809L54.7051 42.6268L54.7124 42.6203L54.7195 42.6137L54.0391 41.8809ZM66.6953 13.166H54.8594V15.166H66.6953V13.166ZM55.8594 14.166C55.8594 11.9772 55.8313 10.532 55.7662 9.90296L53.7768 10.1088C53.8289 10.6125 53.8594 11.9408 53.8594 14.166H55.8594ZM55.7693 9.93934C55.7132 9.09858 55.3645 8.36786 54.741 7.80108L53.3957 9.28096C53.6316 9.49542 53.7516 9.74127 53.7737 10.0724L55.7693 9.93934ZM54.758 7.81688C54.1146 7.20411 53.2748 6.95508 52.3691 6.95508V8.95508C52.9088 8.95508 53.2018 9.09667 53.3787 9.26515L54.758 7.81688ZM52.3691 6.95508C51.5417 6.95508 50.7862 7.21674 50.1863 7.78672L51.5637 9.23672C51.745 9.06451 51.9857 8.95508 52.3691 8.95508V6.95508ZM50.1863 7.78672C49.6052 8.33867 49.2862 9.04722 49.2061 9.84776L51.1962 10.0468C51.2333 9.67544 51.3635 9.42695 51.5637 9.23672L50.1863 7.78672ZM49.2061 9.84776C49.1417 10.4917 49.1133 11.7234 49.1133 13.4922H51.1133C51.1133 11.7062 51.1434 10.5747 51.1962 10.0468L49.2061 9.84776ZM49.1133 13.4922V21.0508H51.1133V13.4922H49.1133ZM51.0159 21.4813C51.5351 20.3925 52.2781 19.6096 53.2499 19.0913L52.3087 17.3266C50.9367 18.0584 49.9024 19.17 49.2107 20.6203L51.0159 21.4813ZM53.2612 19.0852C54.2492 18.5418 55.5181 18.2422 57.1152 18.2422V16.2422C55.2748 16.2422 53.6531 16.5871 52.2974 17.3328L53.2612 19.0852ZM57.1152 18.2422C59.0913 18.2422 60.8008 18.7723 62.2807 19.817L63.4341 18.183C61.5937 16.8839 59.4751 16.2422 57.1152 16.2422V18.2422ZM62.2807 19.817C63.7899 20.8822 64.6804 22.1074 65.057 23.4828L66.986 22.9547C66.4641 21.0488 65.2453 19.4615 63.4341 18.183L62.2807 19.817ZM65.057 23.4828C65.4725 25.0002 65.6953 27.1161 65.6953 29.8691H67.6953C67.6953 27.0362 67.469 24.7186 66.986 22.9547L65.057 23.4828ZM65.6953 29.8691V33.6484H67.6953V29.8691H65.6953ZM65.6953 33.6484C65.6953 36.9581 65.5679 39.3648 65.3265 40.9058L67.3024 41.2153C67.5689 39.5141 67.6953 36.9794 67.6953 33.6484H65.6953ZM65.3265 40.9058C65.1019 42.34 64.4972 43.684 63.4839 44.9462L65.0435 46.1983C66.2567 44.6871 67.0192 43.0233 67.3024 41.2153L65.3265 40.9058ZM63.4828 44.9476C62.5169 46.1549 61.1578 47.1255 59.3561 47.8352L60.0892 49.696C62.1547 48.8823 63.8229 47.724 65.0445 46.197L63.4828 44.9476ZM59.3529 47.8365C57.5812 48.5416 55.4752 48.9082 53.0137 48.9082V50.9082C55.6693 50.9082 58.036 50.5131 60.0924 49.6948L59.3529 47.8365ZM53.0137 48.9082C49.9115 48.9082 47.4521 48.4784 45.5885 47.6721L44.7943 49.5076C46.9932 50.4591 49.7487 50.9082 53.0137 50.9082V48.9082ZM45.5885 47.6721C43.7107 46.8596 42.2966 45.7146 41.3021 44.249L39.6471 45.372C40.8792 47.1878 42.6096 48.5623 44.7943 49.5076L45.5885 47.6721ZM41.3097 44.2604C40.2956 42.7212 39.7121 41.1332 39.5353 39.4888L37.5467 39.7026C37.7606 41.691 38.4661 43.5796 39.6395 45.3607L41.3097 44.2604ZM39.5364 39.4994C39.366 37.7385 39.2773 34.2604 39.2773 29.0195H37.2773C37.2773 34.2474 37.3645 37.8201 37.5457 39.692L39.5364 39.4994ZM39.2773 29.0195V22.457H37.2773V29.0195H39.2773ZM39.2773 22.457C39.2773 16.8059 39.356 13.0774 39.5083 11.2306L37.5151 11.0662C37.3549 13.0085 37.2773 16.8191 37.2773 22.457H39.2773ZM39.5075 11.2399C39.6661 9.51312 40.2817 7.87086 41.3813 6.30261L39.7437 5.15442C38.4605 6.98461 37.7089 8.95563 37.5159 11.057L39.5075 11.2399ZM41.3813 6.30261C42.4552 4.77096 43.9186 3.61775 45.8048 2.84533L45.0468 0.994515C42.8314 1.90178 41.0526 3.28763 39.7437 5.15442L41.3813 6.30261ZM45.8092 2.84351C47.736 2.04369 49.9844 1.63086 52.5742 1.63086V-0.369141C49.7734 -0.369141 47.2562 0.0774054 45.0424 0.99633L45.8092 2.84351ZM52.5742 1.63086C55.7959 1.63086 58.3522 2.15336 60.2976 3.13497L61.1985 1.3494C58.8861 0.182582 55.9932 -0.369141 52.5742 -0.369141V1.63086ZM60.2976 3.13497C62.2492 4.11973 63.6005 5.47904 64.4133 7.20856L66.2234 6.35784C65.2003 4.18111 63.5047 2.51308 61.1985 1.3494L60.2976 3.13497ZM64.4133 7.20856C65.2499 8.98843 65.6953 11.2923 65.6953 14.166H67.6953C67.6953 11.1022 67.2228 8.48422 66.2234 6.35784L64.4133 7.20856ZM55.8594 28.9609C55.8594 28.0888 55.8115 27.324 55.7075 26.6779C55.6054 26.0437 55.4394 25.4596 55.1626 24.9934L53.4429 26.0144C53.5371 26.1732 53.6495 26.4778 53.7329 26.9959C53.8145 27.5022 53.8594 28.1533 53.8594 28.9609H55.8594ZM55.1626 24.9934C54.5804 24.0128 53.6139 23.5664 52.4863 23.5664V25.5664C53.0385 25.5664 53.2829 25.745 53.4429 26.0144L55.1626 24.9934ZM52.4863 23.5664C51.3816 23.5664 50.4325 23.998 49.8296 24.9325L51.5102 26.0167C51.6886 25.7402 51.9504 25.5664 52.4863 25.5664V23.5664ZM49.8251 24.9396C49.5331 25.4005 49.3663 25.9934 49.2649 26.628C49.1609 27.2794 49.1133 28.0614 49.1133 28.9609H51.1133C51.1133 28.1222 51.1584 27.454 51.2399 26.9433C51.3242 26.4158 51.4356 26.1346 51.5147 26.0097L49.8251 24.9396ZM49.1133 28.9609V37.5449H51.1133V28.9609H49.1133ZM49.1133 37.5449C49.1133 38.6131 49.1579 39.5237 49.2533 40.2652C49.3456 40.9833 49.496 41.6363 49.7627 42.1253L51.5185 41.1676C51.4337 41.0121 51.3204 40.6593 51.237 40.0102C51.1565 39.3845 51.1133 38.5665 51.1133 37.5449H49.1133ZM49.774 42.1454C50.3497 43.1454 51.3151 43.6133 52.457 43.6133V41.6133C51.9192 41.6133 51.6737 41.4367 51.5072 41.1475L49.774 42.1454ZM52.457 43.6133C53.3002 43.6133 54.0552 43.2071 54.7051 42.6268L53.373 41.1349C52.9292 41.5312 52.6295 41.6133 52.457 41.6133V43.6133ZM54.7195 42.6137C55.2292 42.1404 55.4864 41.4174 55.6343 40.6881C55.7897 39.9222 55.8594 38.9642 55.8594 37.8379H53.8594C53.8594 38.899 53.7923 39.7087 53.6743 40.2904C53.5488 40.9088 53.3958 41.1135 53.3586 41.1481L54.7195 42.6137ZM55.8594 37.8379V28.9609H53.8594V37.8379H55.8594Z" fill="#7E92FF" fill-opacity="0.8"/>
</svg>
