<svg width="390" height="640" viewBox="0 0 390 640" fill="none" xmlns="http://www.w3.org/2000/svg">
<path d="M-72 108H394V640H-72V108Z" fill="#7E92FF"/>
<g filter="url(#filter0_i_401_2)">
<path fill-rule="evenodd" clip-rule="evenodd" d="M-84 44.8708L-67.9667 35.1826C-51.9333 25.4944 -19.8667 6.118 12.2 1.2739C44.2667 -3.5702 76.3333 6.118 108.4 18.2283C140.467 30.3385 172.533 44.8708 204.6 54.559C236.667 64.2472 268.733 69.0913 300.8 61.8252C332.867 54.559 364.933 35.1826 380.967 25.4944L397 15.8062V103H380.967C364.933 103 332.867 103 300.8 103C268.733 103 236.667 103 204.6 103C172.533 103 140.467 103 108.4 103C76.3333 103 44.2667 103 12.2 103C-19.8667 103 -51.9333 103 -67.9667 103H-84V44.8708Z" fill="#7E92FF" fill-opacity="0.19"/>
</g>
<defs>
<filter id="filter0_i_401_2" x="-84" y="0" width="481" height="107" filterUnits="userSpaceOnUse" color-interpolation-filters="sRGB">
<feFlood flood-opacity="0" result="BackgroundImageFix"/>
<feBlend mode="normal" in="SourceGraphic" in2="BackgroundImageFix" result="shape"/>
<feColorMatrix in="SourceAlpha" type="matrix" values="0 0 0 0 0 0 0 0 0 0 0 0 0 0 0 0 0 0 127 0" result="hardAlpha"/>
<feOffset dy="4"/>
<feGaussianBlur stdDeviation="2"/>
<feComposite in2="hardAlpha" operator="arithmetic" k2="-1" k3="1"/>
<feColorMatrix type="matrix" values="0 0 0 0 0.491667 0 0 0 0 0.491667 0 0 0 0 0.491667 0 0 0 0.05 0"/>
<feBlend mode="normal" in2="shape" result="effect1_innerShadow_401_2"/>
</filter>
</defs>
</svg>
