<svg width="390" height="994" viewBox="0 0 390 994" fill="none" xmlns="http://www.w3.org/2000/svg">
<g filter="url(#filter0_d_411_4)">
<path d="M383.887 831.048C384.356 868.917 350.352 901.86 313.447 899.29L70.0951 882.344C42.2322 880.404 21.9254 858.432 21.5715 829.841L13.3179 163.076C12.9504 133.385 34.17 105.311 63.2255 97.0474L305.515 28.1379C341.415 17.9275 374.117 41.7424 374.571 78.4284L383.887 831.048Z" fill="#6EBE81" fill-opacity="0.4" shape-rendering="crispEdges"/>
</g>
<g filter="url(#filter1_bd_411_4)">
<path d="M15 107.823C15 69.753 49.9981 41.3082 87.2645 49.0901L329.265 99.6239C357.075 105.431 377 129.947 377 158.357V851.972C377 881.524 355.481 906.676 326.284 911.249L84.2835 949.149C47.8886 954.849 15 926.71 15 889.872V107.823Z" fill="white"/>
</g>
<defs>
<filter id="filter0_d_411_4" x="-26.687" y="0.762939" width="450.579" height="953.668" filterUnits="userSpaceOnUse" color-interpolation-filters="sRGB">
<feFlood flood-opacity="0" result="BackgroundImageFix"/>
<feColorMatrix in="SourceAlpha" type="matrix" values="0 0 0 0 0 0 0 0 0 0 0 0 0 0 0 0 0 0 127 0" result="hardAlpha"/>
<feOffset dy="15"/>
<feGaussianBlur stdDeviation="20"/>
<feComposite in2="hardAlpha" operator="out"/>
<feColorMatrix type="matrix" values="0 0 0 0 0 0 0 0 0 0.580392 0 0 0 0 0.92549 0 0 0 0.14 0"/>
<feBlend mode="normal" in2="BackgroundImageFix" result="effect1_dropShadow_411_4"/>
<feBlend mode="normal" in="SourceGraphic" in2="effect1_dropShadow_411_4" result="shape"/>
</filter>
<filter id="filter1_bd_411_4" x="-25" y="11.8013" width="442" height="982.084" filterUnits="userSpaceOnUse" color-interpolation-filters="sRGB">
<feFlood flood-opacity="0" result="BackgroundImageFix"/>
<feGaussianBlur in="BackgroundImageFix" stdDeviation="10"/>
<feComposite in2="SourceAlpha" operator="in" result="effect1_backgroundBlur_411_4"/>
<feColorMatrix in="SourceAlpha" type="matrix" values="0 0 0 0 0 0 0 0 0 0 0 0 0 0 0 0 0 0 127 0" result="hardAlpha"/>
<feOffset dy="4"/>
<feGaussianBlur stdDeviation="20"/>
<feComposite in2="hardAlpha" operator="out"/>
<feColorMatrix type="matrix" values="0 0 0 0 0 0 0 0 0 0 0 0 0 0 0 0 0 0 0.1 0"/>
<feBlend mode="normal" in2="effect1_backgroundBlur_411_4" result="effect2_dropShadow_411_4"/>
<feBlend mode="normal" in="SourceGraphic" in2="effect2_dropShadow_411_4" result="shape"/>
</filter>
</defs>
</svg>
