<svg width="43" height="64" viewBox="0 0 43 64" fill="none" xmlns="http://www.w3.org/2000/svg">
<path d="M24.6232 4.27352V4.07002C24.6232 2.23854 23.1478 0.763184 21.3164 0.763184C19.4849 0.763184 18.0095 2.23854 18.0095 4.07002V4.27352" stroke="#6EBE81" stroke-opacity="0.6" stroke-width="3" stroke-miterlimit="10"/>
<path d="M14.2957 5.18918V12.2098C14.2957 12.8712 14.8553 13.4308 15.5166 13.4308H15.9745C16.585 13.4308 17.0937 12.973 17.1446 12.4133V12.2607C17.399 10.1749 19.1796 8.59776 21.3163 8.59776C23.4022 8.59776 25.1828 10.1749 25.488 12.2607V12.4133C25.5898 13.0238 26.0985 13.4308 26.6581 13.4308C27.3195 13.4308 27.8791 12.8712 27.8791 12.2098V5.18918C27.8791 4.68043 27.4721 4.27344 26.9634 4.27344H15.2114C14.7026 4.27344 14.2957 4.68043 14.2957 5.18918Z" fill="#7E92FF" fill-opacity="0.8"/>
<path d="M14.2958 7.07153H4.01915C2.23854 7.07153 0.763184 8.54689 0.763184 10.3275V60.0318C0.763184 61.8124 2.23854 63.2877 4.01915 63.2877H38.6646C40.4452 63.2877 41.9206 61.8124 41.9206 60.0318V10.3275C41.9206 8.54689 40.4452 7.07153 38.6646 7.07153H27.8792" stroke="#6EBE81" stroke-opacity="0.6" stroke-width="3" stroke-miterlimit="10"/>
<path d="M13.1766 11.9048H5.54541V58.4549H29.9651L37.0875 51.3324V11.9048H29.5073" stroke="#6EBE81" stroke-opacity="0.6" stroke-width="3" stroke-miterlimit="10"/>
<path d="M17.6534 31.6948L13.8378 35.7648L12.0063 33.8824" stroke="#6EBE81" stroke-opacity="0.6" stroke-width="3" stroke-miterlimit="10"/>
<path d="M12.21 24.5215L16.7378 19.9937" stroke="#6EBE81" stroke-opacity="0.6" stroke-width="3" stroke-miterlimit="10"/>
<path d="M16.7378 24.5215L12.21 19.9937" stroke="#6EBE81" stroke-opacity="0.6" stroke-width="3" stroke-miterlimit="10"/>
<path d="M12.21 47.9238L16.7378 43.396" stroke="#6EBE81" stroke-opacity="0.6" stroke-width="3" stroke-miterlimit="10"/>
<path d="M16.7378 47.9238L12.21 43.396" stroke="#6EBE81" stroke-opacity="0.6" stroke-width="3" stroke-miterlimit="10"/>
<path d="M19.9429 24.5215H33.1193" stroke="#6EBE81" stroke-opacity="0.6" stroke-width="3" stroke-miterlimit="10"/>
<path d="M19.9429 36.019H33.1193" stroke="#6EBE81" stroke-opacity="0.6" stroke-width="3" stroke-miterlimit="10"/>
<path d="M28.439 55.555V49.8062H34.1878" stroke="#6EBE81" stroke-opacity="0.6" stroke-width="3" stroke-miterlimit="10" stroke-linecap="round"/>
</svg>
