<svg width="41" height="25" viewBox="0 0 41 25" fill="none" xmlns="http://www.w3.org/2000/svg">
<path d="M20.4287 24.0491C20.0805 24.0491 19.7724 23.9152 19.5046 23.6473L0.781353 4.92409C0.513493 4.65623 0.379566 4.3482 0.379566 3.99998C0.379566 3.65177 0.513493 3.34373 0.781353 3.07588L2.79028 1.06695C3.05814 0.79909 3.36617 0.665162 3.71439 0.665162C4.0626 0.665162 4.37064 0.79909 4.6385 1.06695L20.4287 16.8571L36.2189 1.06695C36.4867 0.79909 36.7947 0.665161 37.143 0.665161C37.4912 0.665161 37.7992 0.79909 38.0671 1.06695L40.076 3.07588C40.3439 3.34373 40.4778 3.65177 40.4778 3.99998C40.4778 4.3482 40.3439 4.65623 40.076 4.92409L21.3528 23.6473C21.0849 23.9152 20.7769 24.0491 20.4287 24.0491Z" fill="#6EBE81"/>
</svg>
