<svg width="42" height="63" viewBox="0 0 42 63" fill="none" xmlns="http://www.w3.org/2000/svg">
<path d="M24.278 4.25124V4.04636C24.278 2.25368 22.7927 0.768311 21 0.768311C19.2073 0.768311 17.7219 2.25368 17.7219 4.04636V4.25124" stroke="#6EBE81" stroke-opacity="0.8" stroke-width="3" stroke-miterlimit="10"/>
<path d="M14.0854 5.12196V11.9854C14.0854 12.6512 14.5976 13.1634 15.2635 13.1634H15.7245C16.3391 13.1634 16.8001 12.7025 16.9025 12.139V11.9854C17.1586 9.9366 18.9001 8.40001 21.0001 8.40001C23.0489 8.40001 24.8415 9.9366 25.0976 11.9854V12.139C25.1489 12.7025 25.6611 13.1634 26.2757 13.1634C26.9415 13.1634 27.4537 12.6512 27.4537 11.9854V5.12196C27.4537 4.60977 27.044 4.20001 26.5318 4.20001H14.9562C14.4952 4.25123 14.0854 4.66099 14.0854 5.12196Z" fill="#7E92FF" fill-opacity="0.8"/>
<path d="M14.0854 6.96588H3.94392C2.20246 6.96588 0.768311 8.40003 0.768311 10.1415V59.0049C0.768311 60.7464 2.20246 62.1805 3.94392 62.1805H38.0049C39.7464 62.1805 41.1805 60.7464 41.1805 59.0049V10.1927C41.1805 8.45125 39.7464 7.0171 38.0049 7.0171H27.4537" stroke="#6EBE81" stroke-opacity="0.8" stroke-width="3" stroke-miterlimit="10"/>
<path d="M30.5269 51.5269H37.2366L30.5269 58.2366V51.5269Z" fill="#7E92FF" fill-opacity="0.8"/>
<path d="M12.9585 11.7293H5.48047V57.5196H28.0171V49.0171H36.4683V11.7293H28.9902" stroke="#6EBE81" stroke-opacity="0.8" stroke-width="3" stroke-miterlimit="10"/>
<path d="M11.9854 37.1854L16.4414 32.678" stroke="#6EBE81" stroke-opacity="0.8" stroke-width="3" stroke-miterlimit="10"/>
<path d="M16.4414 37.1854L11.9854 32.678" stroke="#6EBE81" stroke-opacity="0.8" stroke-width="3" stroke-miterlimit="10"/>
<path d="M11.9854 24.1244L16.4414 19.6683" stroke="#6EBE81" stroke-opacity="0.8" stroke-width="3" stroke-miterlimit="10"/>
<path d="M16.4414 24.1244L11.9854 19.6683" stroke="#6EBE81" stroke-opacity="0.8" stroke-width="3" stroke-miterlimit="10"/>
<path d="M16.4414 53.7806C21.717 49.8367 25.6097 46.0976 26.5317 36.0074" stroke="#6EBE81" stroke-opacity="0.8" stroke-width="3" stroke-miterlimit="10"/>
<path d="M26.7366 31.0391L29.2463 38.2098L26.4805 36.3659L23.5098 37.9025L26.7366 31.0391Z" fill="#6EBE81" fill-opacity="0.8"/>
<path d="M29.6048 21.922C29.6048 23.5098 28.3244 24.739 26.7878 24.739C25.2 24.739 23.9707 23.4585 23.9707 21.922C23.9707 20.3341 25.2512 19.1049 26.7878 19.1049C28.3244 19.0537 29.6048 20.3341 29.6048 21.922Z" fill="#7E92FF" fill-opacity="0.8"/>
</svg>
