<svg width="41" height="25" viewBox="0 0 41 25" fill="none" xmlns="http://www.w3.org/2000/svg">
<path d="M20.5713 0.95079C20.9195 0.95079 21.2276 1.08472 21.4954 1.35258L40.2186 20.0758C40.4865 20.3436 40.6204 20.6517 40.6204 20.9999C40.6204 21.3481 40.4865 21.6561 40.2186 21.924L38.2097 23.9329C37.9419 24.2008 37.6338 24.3347 37.2856 24.3347C36.9374 24.3347 36.6294 24.2008 36.3615 23.9329L20.5713 8.14275L4.78115 23.9329C4.51329 24.2008 4.20525 24.3347 3.85704 24.3347C3.50882 24.3347 3.20079 24.2008 2.93293 23.9329L0.924002 21.924C0.656145 21.6561 0.522217 21.3481 0.522217 20.9999C0.522217 20.6517 0.656145 20.3436 0.924002 20.0758L19.6472 1.35258C19.9151 1.08472 20.2231 0.95079 20.5713 0.95079Z" fill="#6EBE81"/>
</svg>
