<svg width="43" height="64" viewBox="0 0 43 64" fill="none" xmlns="http://www.w3.org/2000/svg">
<g opacity="0.8">
<g clip-path="url(#clip0_334_257)">
<path d="M24.2577 4.20671V4.00639C24.2577 2.20353 22.8042 0.751221 20.9999 0.751221C19.1956 0.751221 17.7422 2.20353 17.7422 4.00639V4.20671" stroke="#6EBE81" stroke-opacity="0.8" stroke-width="3" stroke-miterlimit="10"/>
<path d="M14.0835 5.10816V12.0191C14.0835 12.6702 14.6348 13.221 15.2864 13.221H15.7374C16.3389 13.221 16.8401 12.7703 16.8902 12.2194V12.0692C17.1408 10.0159 18.895 8.46348 21 8.46348C23.0549 8.46348 24.809 10.0159 25.1097 12.0692V12.2194C25.21 12.8204 25.7112 13.221 26.2625 13.221C26.914 13.221 27.4654 12.6702 27.4654 12.0191V5.10816C27.4654 4.60736 27.0644 4.20673 26.5632 4.20673H14.9856C14.4845 4.20673 14.0835 4.60736 14.0835 5.10816Z" stroke="#6EBE81" stroke-opacity="0.8" stroke-width="3" stroke-miterlimit="10"/>
<path d="M11.5775 6.96106H1.85433C1.2529 6.96106 0.751709 7.46185 0.751709 8.06281V61.1971C0.751709 61.7981 1.2529 62.2989 1.85433 62.2989H40.1956C40.7971 62.2989 41.2982 61.7981 41.2982 61.1971V8.06281C41.2982 7.46185 40.7971 6.96106 40.1956 6.96106H29.9713" stroke="#6EBE81" stroke-opacity="0.8" stroke-width="3" stroke-miterlimit="10"/>
<path d="M25.3602 30.0978C25.2599 29.6471 24.9592 29.3466 24.6084 29.2464L22.9544 28.8959C22.9544 28.8959 22.0523 29.7472 20.9998 29.8975C19.9473 29.7472 19.0451 28.8959 19.0451 28.8959L17.3912 29.2464C17.0404 29.3466 16.7396 29.6471 16.6394 30.0978L16.2886 31.8005H20.9998H25.711L25.3602 30.0978Z" fill="#7E92FF" fill-opacity="0.8"/>
<path d="M20.9998 28.5453C22.1624 28.5453 23.1048 27.5363 23.1048 26.2917C23.1048 25.0471 22.1624 24.0381 20.9998 24.0381C19.8372 24.0381 18.8948 25.0471 18.8948 26.2917C18.8948 27.5363 19.8372 28.5453 20.9998 28.5453Z" fill="#7E92FF" fill-opacity="0.8"/>
<path d="M27.4652 20.5326H14.5344V33.4531H27.4652V20.5326Z" stroke="#7E92FF" stroke-opacity="0.8" stroke-width="3" stroke-miterlimit="10"/>
<path d="M6.36499 42.3672H35.6347" stroke="#6EBE81" stroke-opacity="0.8" stroke-width="3" stroke-miterlimit="10"/>
<path d="M6.36499 48.2766H35.6347" stroke="#6EBE81" stroke-opacity="0.8" stroke-width="3" stroke-miterlimit="10"/>
<path d="M6.36499 54.186H35.6347" stroke="#6EBE81" stroke-opacity="0.8" stroke-width="3" stroke-miterlimit="10"/>
</g>
</g>
<defs>
<clipPath id="clip0_334_257">
<rect width="42" height="63" fill="white"/>
</clipPath>
</defs>
</svg>
