<svg width="181" height="54" viewBox="0 0 181 54" fill="none" xmlns="http://www.w3.org/2000/svg">
<path d="M29 39.5C29 47.5081 22.5081 54 14.5 54C6.49187 54 0 47.5081 0 39.5C0 31.4919 6.49187 25 14.5 25C22.5081 25 29 31.4919 29 39.5Z" fill="#6EBE81" fill-opacity="0.83"/>
<path d="M23 39.5C23 44.1944 19.1944 48 14.5 48C9.80558 48 6 44.1944 6 39.5C6 34.8056 9.80558 31 14.5 31C19.1944 31 23 34.8056 23 39.5Z" fill="#6EBE81"/>
<path fill-rule="evenodd" clip-rule="evenodd" d="M14.5 47.4333C18.8815 47.4333 22.4333 43.8815 22.4333 39.5C22.4333 35.1185 18.8815 31.5667 14.5 31.5667C10.1185 31.5667 6.56667 35.1185 6.56667 39.5C6.56667 43.8815 10.1185 47.4333 14.5 47.4333ZM14.5 48C19.1944 48 23 44.1944 23 39.5C23 34.8056 19.1944 31 14.5 31C9.80558 31 6 34.8056 6 39.5C6 44.1944 9.80558 48 14.5 48Z" fill="url(#paint0_linear_142_465)"/>
<path d="M8.53767 20.2222H0V0H14.2487V2.91778H3.17278V7.19333H8.53767C10.8259 7.19333 12.6334 7.8 13.9602 9.01333C15.287 10.2074 15.9504 11.777 15.9504 13.7222C15.9504 15.6867 15.287 17.2563 13.9602 18.4311C12.6527 19.6252 10.8451 20.2222 8.53767 20.2222ZM3.17278 10.1111V17.3044H8.24923C9.67218 17.3044 10.7682 16.9963 11.5374 16.38C12.3258 15.7444 12.72 14.8585 12.72 13.7222C12.72 12.5859 12.3258 11.7 11.5374 11.0644C10.749 10.4289 9.65295 10.1111 8.24923 10.1111H3.17278Z" fill="white"/>
<path d="M32.9791 17.7956C33.2868 17.7956 33.5656 17.7282 33.8156 17.5933V19.9622C33.3926 20.2704 32.7868 20.4244 31.9985 20.4244C30.3832 20.4244 29.3929 19.7504 29.0276 18.4022C27.7392 19.8659 25.999 20.5978 23.8069 20.5978C22.2878 20.5978 21.0187 20.1741 19.9996 19.3267C18.9997 18.4985 18.4997 17.3333 18.4997 15.8311C18.4997 14.3289 19.0477 13.1733 20.1438 12.3644C21.2206 11.5363 22.5666 11.1222 24.1819 11.1222C25.8933 11.1222 27.4027 11.4881 28.7103 12.22V11.44C28.7103 9.37926 27.3258 8.34889 24.5568 8.34889C22.9416 8.34889 21.4514 8.77259 20.0861 9.62V6.87556C21.4898 6.06667 23.2108 5.66222 25.2491 5.66222C27.2489 5.66222 28.8353 6.1437 30.0083 7.10667C31.2005 8.05037 31.7966 9.37926 31.7966 11.0933V16.38C31.7966 16.823 31.9023 17.1696 32.1138 17.42C32.3446 17.6704 32.633 17.7956 32.9791 17.7956ZM28.7103 16.2067V14.4733C27.5181 13.7993 26.2586 13.4622 24.9318 13.4622C23.8934 13.4622 23.0762 13.6548 22.4801 14.04C21.9032 14.4252 21.6148 14.9644 21.6148 15.6578C21.6148 16.3896 21.884 16.9482 22.4224 17.3333C22.9801 17.7185 23.73 17.9111 24.6722 17.9111C25.4414 17.9111 26.1913 17.757 26.922 17.4489C27.6527 17.1215 28.2488 16.7074 28.7103 16.2067Z" fill="white"/>
<path d="M40.0077 20.2222H36.8926V6.03778H40.0077V11.5844H47.1897V6.03778H50.3048V20.2222H47.1897V14.3289H40.0077V20.2222Z" fill="white"/>
<path d="M57.8659 20.2222H54.7508V6.03778H57.8659V11.4111L63.4615 6.03778H67.4419L60.7214 12.3933L68.4514 20.2222H64.1826L57.8659 13.8089V20.2222Z" fill="white"/>
<path d="M79.3914 5.66222C81.3913 5.66222 83.0353 6.38445 84.3237 7.82889C85.612 9.25408 86.2562 11.0259 86.2562 13.1444C86.2562 15.2437 85.612 17.0059 84.3237 18.4311C83.0353 19.8756 81.3913 20.5978 79.3914 20.5978C77.2186 20.5978 75.536 19.8274 74.3438 18.2867V26H71.2287V6.03778H74.3438V7.97333C75.536 6.43259 77.2186 5.66222 79.3914 5.66222ZM78.555 8.40667C77.6512 8.40667 76.8244 8.64741 76.0744 9.12889C75.3245 9.59111 74.7476 10.1978 74.3438 10.9489V15.34C74.7476 16.0719 75.3245 16.6785 76.0744 17.16C76.8436 17.6222 77.6704 17.8533 78.555 17.8533C79.8625 17.8533 80.949 17.4007 81.8143 16.4956C82.6796 15.5711 83.1122 14.4541 83.1122 13.1444C83.1122 11.8156 82.6796 10.6985 81.8143 9.79333C80.949 8.86889 79.8625 8.40667 78.555 8.40667Z" fill="white"/>
<path d="M96.4566 17.8533C97.7642 17.8533 98.8699 17.4007 99.7736 16.4956C100.658 15.6096 101.1 14.483 101.1 13.1156C101.1 11.7674 100.658 10.6504 99.7736 9.76445C98.8699 8.85926 97.7642 8.40667 96.4566 8.40667C95.1298 8.40667 94.0145 8.85926 93.1108 9.76445C92.2263 10.6504 91.784 11.7674 91.784 13.1156C91.784 14.483 92.2263 15.6096 93.1108 16.4956C94.0145 17.4007 95.1298 17.8533 96.4566 17.8533ZM96.4566 20.5978C94.1876 20.5978 92.3224 19.8756 90.861 18.4311C89.3996 16.9867 88.6689 15.2148 88.6689 13.1156C88.6689 11.0356 89.3996 9.27333 90.861 7.82889C92.3224 6.38445 94.1876 5.66222 96.4566 5.66222C98.6872 5.66222 100.543 6.38445 102.023 7.82889C103.485 9.27333 104.216 11.0356 104.216 13.1156C104.216 15.1956 103.485 16.9674 102.023 18.4311C100.543 19.8756 98.6872 20.5978 96.4566 20.5978Z" fill="white"/>
<path d="M113.514 20.2222H110.399V8.78222H105.611V6.03778H118.273V8.78222H113.514V20.2222Z" fill="white"/>
<path d="M127.494 20.5978C125.359 20.5978 123.552 19.8948 122.071 18.4889C120.591 17.0637 119.85 15.263 119.85 13.0867C119.85 10.9104 120.591 9.12889 122.071 7.74222C123.571 6.35556 125.388 5.66222 127.523 5.66222C129.138 5.66222 130.561 5.98963 131.791 6.64444V9.33111C130.503 8.71482 129.234 8.40667 127.984 8.40667C126.561 8.40667 125.369 8.84963 124.408 9.73556C123.446 10.6407 122.965 11.7674 122.965 13.1156C122.965 14.483 123.446 15.6193 124.408 16.5244C125.369 17.4104 126.561 17.8533 127.984 17.8533C129.503 17.8533 130.849 17.497 132.022 16.7844V19.4422C130.676 20.2126 129.167 20.5978 127.494 20.5978Z" fill="white"/>
<path d="M142.104 20.2222H138.989V8.78222H134.201V6.03778H146.863V8.78222H142.104V20.2222Z" fill="white"/>
<path d="M157.866 20.2222H149.703V6.03778H157.433C158.818 6.03778 159.904 6.37482 160.693 7.04889C161.481 7.7037 161.875 8.57037 161.875 9.64889C161.875 10.3422 161.702 10.9681 161.356 11.5267C161.029 12.0659 160.596 12.4607 160.058 12.7111C161.904 13.2504 162.827 14.4637 162.827 16.3511C162.827 17.5644 162.385 18.5178 161.5 19.2111C160.635 19.8852 159.424 20.2222 157.866 20.2222ZM152.818 14.2133V17.7089H157.318C158.049 17.7089 158.616 17.5548 159.02 17.2467C159.443 16.9385 159.654 16.5148 159.654 15.9756C159.654 15.417 159.443 14.9837 159.02 14.6756C158.616 14.3674 158.049 14.2133 157.318 14.2133H152.818ZM152.818 8.55111V11.7H156.683C157.356 11.7 157.876 11.5652 158.241 11.2956C158.626 11.0067 158.818 10.6215 158.818 10.14C158.818 9.08074 158.106 8.55111 156.683 8.55111H152.818Z" fill="white"/>
<path d="M173.241 17.8533C174.549 17.8533 175.654 17.4007 176.558 16.4956C177.443 15.6096 177.885 14.483 177.885 13.1156C177.885 11.7674 177.443 10.6504 176.558 9.76445C175.654 8.85926 174.549 8.40667 173.241 8.40667C171.914 8.40667 170.799 8.85926 169.895 9.76445C169.011 10.6504 168.568 11.7674 168.568 13.1156C168.568 14.483 169.011 15.6096 169.895 16.4956C170.799 17.4007 171.914 17.8533 173.241 17.8533ZM173.241 20.5978C170.972 20.5978 169.107 19.8756 167.645 18.4311C166.184 16.9867 165.453 15.2148 165.453 13.1156C165.453 11.0356 166.184 9.27333 167.645 7.82889C169.107 6.38445 170.972 5.66222 173.241 5.66222C175.472 5.66222 177.327 6.38445 178.808 7.82889C180.269 9.27333 181 11.0356 181 13.1156C181 15.1956 180.269 16.9674 178.808 18.4311C177.327 19.8756 175.472 20.5978 173.241 20.5978Z" fill="white"/>
<path d="M40.4915 45.6875C38.8024 45.6875 37.3052 45.3182 36 44.5795V41.9091C37.2476 42.6288 38.5816 42.9886 40.002 42.9886C41.2688 42.9886 42.3533 42.6761 43.2554 42.0511C44.1767 41.4072 44.7238 40.5644 44.8965 39.5227H38.9367V37.0511H44.8965C44.6662 36.0095 44.1096 35.1951 43.2266 34.608C42.3437 34.0019 41.2688 33.6989 40.002 33.6989C38.6968 33.6989 37.4588 34.0019 36.2879 34.608V31.9375C37.5163 31.3125 38.9175 31 40.4915 31C42.6028 31 44.3975 31.6818 45.8754 33.0455C47.3534 34.4091 48.0924 36.161 48.0924 38.3011C48.0924 40.4413 47.3534 42.2121 45.8754 43.6136C44.4167 44.9962 42.622 45.6875 40.4915 45.6875Z" fill="white"/>
<path d="M54.6172 45.3182H51.5077V31.3693H54.6172V36.6534L60.2027 31.3693H64.1759L57.4676 37.6193L65.1836 45.3182H60.9225L54.6172 39.0114V45.3182Z" fill="white"/>
<path d="M73.5376 45.6875C71.4071 45.6875 69.6028 44.9962 68.1248 43.6136C66.6469 42.2121 65.9079 40.4413 65.9079 38.3011C65.9079 36.161 66.6469 34.4091 68.1248 33.0455C69.622 31.6818 71.4359 31 73.5664 31C75.1787 31 76.5991 31.322 77.8275 31.9659V34.608C76.5415 34.0019 75.2747 33.6989 74.0271 33.6989C72.6067 33.6989 71.4167 34.1345 70.4569 35.0057C69.4972 35.8958 69.0174 37.0038 69.0174 38.3295C69.0174 39.6742 69.4972 40.7917 70.4569 41.6818C71.4167 42.553 72.6067 42.9886 74.0271 42.9886C75.5434 42.9886 76.887 42.6383 78.0579 41.9375V44.5511C76.7143 45.3087 75.2075 45.6875 73.5376 45.6875Z" fill="white"/>
<path d="M84.9831 45.3182H81.8736V31.3693H95.0601V45.3182H91.9506V34.0682H84.9831V45.3182Z" fill="white"/>
<path d="M98.495 38.3295C98.495 36.2273 99.1668 34.4848 100.51 33.1023C101.873 31.7008 103.62 31 105.75 31C107.209 31 108.447 31.3788 109.465 32.1364C111.461 33.5379 112.459 35.6402 112.459 38.4432V39.2386H101.633C101.825 40.4129 102.391 41.3314 103.332 41.9943C104.292 42.6572 105.501 42.9886 106.96 42.9886C108.572 42.9886 110.088 42.572 111.509 41.7386V44.3239C110.203 45.233 108.466 45.6875 106.297 45.6875C104.129 45.6875 102.276 45.0057 100.741 43.642C99.2436 42.2784 98.495 40.5076 98.495 38.3295ZM101.662 36.9091H109.321C109.282 36.0379 108.946 35.2708 108.313 34.608C107.66 33.9261 106.758 33.5852 105.606 33.5852C104.512 33.5852 103.601 33.9072 102.871 34.5511C102.161 35.1761 101.758 35.9621 101.662 36.9091Z" fill="white"/>
<path d="M124.127 31C126.123 31 127.764 31.7102 129.05 33.1307C130.336 34.5322 130.979 36.2746 130.979 38.358C130.979 40.4223 130.336 42.1553 129.05 43.5568C127.764 44.9773 126.123 45.6875 124.127 45.6875C121.958 45.6875 120.279 44.9299 119.088 43.4148V51H115.979V31.3693H119.088V33.2727C120.279 31.7576 121.958 31 124.127 31ZM123.292 33.6989C122.39 33.6989 121.565 33.9356 120.816 34.4091C120.067 34.8636 119.492 35.4602 119.088 36.1989V40.517C119.492 41.2367 120.067 41.8333 120.816 42.3068C121.584 42.7614 122.409 42.9886 123.292 42.9886C124.597 42.9886 125.682 42.5436 126.545 41.6534C127.409 40.7443 127.841 39.6458 127.841 38.358C127.841 37.0511 127.409 35.9527 126.545 35.0625C125.682 34.1534 124.597 33.6989 123.292 33.6989Z" fill="white"/>
<path d="M140.249 45.3182H137.14V34.0682H132.361V31.3693H145V34.0682H140.249V45.3182Z" fill="white"/>
<defs>
<linearGradient id="paint0_linear_142_465" x1="6" y1="31" x2="23" y2="48" gradientUnits="userSpaceOnUse">
<stop stop-color="#12F10E"/>
<stop offset="1" stop-color="#09E805"/>
</linearGradient>
</defs>
</svg>
