<svg width="33" height="33" viewBox="0 0 33 33" fill="none" xmlns="http://www.w3.org/2000/svg">
<g filter="url(#filter0_d_36_27)">
<path d="M23.8434 16.0191C23.672 15.8214 23.4599 15.6627 23.2215 15.554C22.9832 15.4453 22.7241 15.389 22.462 15.389C22.1999 15.389 21.9409 15.4453 21.7025 15.554C21.4642 15.6627 21.252 15.8214 21.0806 16.0191C20.4352 16.6549 19.7898 17.2986 19.1522 17.9502C19.0922 18.0315 19.0032 18.0867 18.9035 18.1042C18.8038 18.1218 18.7012 18.1004 18.617 18.0444C18.1998 17.8168 17.7511 17.6362 17.3497 17.385C15.5076 16.1943 13.8748 14.7091 12.5168 12.989C11.8078 12.1554 11.222 11.2249 10.7773 10.2258C10.7289 10.143 10.7126 10.0454 10.7315 9.95137C10.7503 9.85737 10.803 9.77351 10.8796 9.71559C11.525 9.0876 12.1547 8.45176 12.7923 7.80806C13.0004 7.63568 13.1678 7.41971 13.2827 7.1755C13.3977 6.93129 13.4573 6.66485 13.4573 6.39508C13.4573 6.12531 13.3977 5.85885 13.2827 5.61463C13.1678 5.37042 13.0004 5.15445 12.7923 4.98207L11.2732 3.46704C10.7537 2.94894 10.2342 2.42299 9.69892 1.89705C9.52608 1.70159 9.31351 1.54506 9.07534 1.43783C8.83717 1.33061 8.57884 1.27515 8.31753 1.27515C8.05622 1.27515 7.79789 1.33061 7.55972 1.43783C7.32155 1.54506 7.10898 1.70159 6.93614 1.89705C6.28283 2.53289 5.66101 3.19228 4.99196 3.82027C4.40293 4.37431 4.05057 5.13338 4.00807 5.93977C3.952 7.26225 4.18849 8.58085 4.70074 9.80195C5.68249 12.3404 7.09645 14.6907 8.88031 16.7491C11.2282 19.561 14.1505 21.8411 17.452 23.4373C18.9191 24.2035 20.5246 24.6705 22.1747 24.8111C22.7275 24.873 23.2871 24.8028 23.8072 24.6062C24.3273 24.4097 24.793 24.0924 25.1658 23.6807C25.7167 23.0605 26.3386 22.4953 26.9289 21.9066C27.133 21.7334 27.297 21.518 27.4094 21.2754C27.5219 21.0328 27.5801 20.7687 27.5801 20.5014C27.5801 20.2341 27.5219 19.9701 27.4094 19.7274C27.297 19.4848 27.133 19.2695 26.9289 19.0963C25.9109 18.0706 24.8824 17.0448 23.8434 16.0191Z" fill="#6EBE81"/>
<path d="M27.9285 11.5369C25.8791 6.76239 22.0532 2.96647 17.2553 0.947282C17.062 0.875345 16.8482 0.881906 16.6598 0.965585C16.4714 1.04926 16.3234 1.20335 16.2477 1.39471C16.2065 1.49047 16.1848 1.59345 16.1839 1.69766C16.183 1.80187 16.2029 1.90521 16.2425 2.00166C16.282 2.09812 16.3405 2.18573 16.4144 2.25943C16.4882 2.33313 16.5761 2.39143 16.6728 2.43091C21.0955 4.29435 24.622 7.79452 26.5117 12.1963C26.5962 12.3829 26.7505 12.5293 26.9417 12.6041C27.1329 12.6789 27.3458 12.6762 27.535 12.5966C27.6319 12.5543 27.7192 12.493 27.7918 12.4163C27.8644 12.3396 27.9208 12.249 27.9575 12.1501C27.9943 12.0512 28.0106 11.9459 28.0056 11.8406C28.0007 11.7352 27.9744 11.6319 27.9285 11.5369Z" fill="#6EBE81"/>
<path d="M16.2635 6.69338C18.9443 7.81953 21.0829 9.93833 22.2298 12.6044C22.2907 12.7359 22.3869 12.8481 22.5078 12.9284C22.6286 13.0088 22.7694 13.0542 22.9146 13.0597C23.0209 13.0589 23.1257 13.0348 23.2216 12.9891C23.4026 12.9006 23.5427 12.7463 23.613 12.5579C23.6833 12.3695 23.6784 12.1613 23.5994 11.9764C22.2994 8.94952 19.8728 6.54354 16.8302 5.26471C16.6428 5.19838 16.4372 5.20522 16.2547 5.28385C16.0722 5.36248 15.9263 5.50707 15.8463 5.68859C15.7723 5.87739 15.7744 6.08741 15.8521 6.2747C15.9299 6.46199 16.0773 6.61202 16.2635 6.69338Z" fill="#6EBE81"/>
</g>
<defs>
<filter id="filter0_d_36_27" x="0" y="0.897705" width="32.0065" height="31.9353" filterUnits="userSpaceOnUse" color-interpolation-filters="sRGB">
<feFlood flood-opacity="0" result="BackgroundImageFix"/>
<feColorMatrix in="SourceAlpha" type="matrix" values="0 0 0 0 0 0 0 0 0 0 0 0 0 0 0 0 0 0 127 0" result="hardAlpha"/>
<feOffset dy="4"/>
<feGaussianBlur stdDeviation="2"/>
<feComposite in2="hardAlpha" operator="out"/>
<feColorMatrix type="matrix" values="0 0 0 0 0 0 0 0 0 0 0 0 0 0 0 0 0 0 0.25 0"/>
<feBlend mode="normal" in2="BackgroundImageFix" result="effect1_dropShadow_36_27"/>
<feBlend mode="normal" in="SourceGraphic" in2="effect1_dropShadow_36_27" result="shape"/>
</filter>
</defs>
</svg>
