<svg width="32" height="32" viewBox="0 0 32 32" fill="none" xmlns="http://www.w3.org/2000/svg">
<path d="M16 3C8.81875 3 3 8.81875 3 16C3 23.1812 8.81875 29 16 29C23.1812 29 29 23.1812 29 16C29 8.81875 23.1812 3 16 3ZM16 27.9188C9.43125 27.9188 4.08125 22.575 4.08125 16C4.08125 9.43125 9.425 4.08125 16 4.08125C22.5688 4.08125 27.9188 9.425 27.9188 16C27.9188 22.5688 22.5688 27.9188 16 27.9188Z" fill="#6EBE81" fill-opacity="0.8"/>
<path d="M16.225 9.125C13.525 9.125 12.0188 10.3937 12 13.0125H13.175C13.1375 11.1125 14.1438 10.1062 16.1688 10.1062C17.6188 10.1062 18.8312 11.1187 18.8312 12.5938C18.8312 13.55 18.3125 14.325 17.6187 14.975C16.2062 16.275 15.8063 17.225 15.7375 19.0063H16.925C16.9937 17.3938 16.9563 17.0875 18.3813 15.675C19.3313 14.7875 20 13.9063 20 12.5375C20 10.4 18.2875 9.125 16.225 9.125ZM16.2687 20.7687C15.6812 20.7687 15.2063 21.2375 15.2063 21.8188C15.2063 22.4 15.6812 22.875 16.2687 22.875C16.8562 22.875 17.3312 22.4062 17.3312 21.8188C17.3312 21.2375 16.8562 20.7687 16.2687 20.7687Z" fill="#7E92FF" fill-opacity="0.8"/>
</svg>
