<svg width="65" height="50" viewBox="0 0 65 50" fill="none" xmlns="http://www.w3.org/2000/svg">
<path d="M25.0117 45.8945L24.2547 45.2412L25.0117 45.8945ZM7.66797 48.9414L7.33411 49.8841L7.34289 49.8871L7.66797 48.9414ZM0.8125 41.5L-0.144327 41.7907L-0.143279 41.7941L0.8125 41.5ZM1.22266 7.83789L0.279166 7.50639L0.276561 7.514L1.22266 7.83789ZM5.70508 2.62305L5.20167 1.75899L5.19839 1.76092L5.70508 2.62305ZM20.8223 2.03711L20.4137 2.94987L20.421 2.95307L20.8223 2.03711ZM27.4727 9.77148L26.4948 9.98103L26.4973 9.9921L27.4727 9.77148ZM15.8125 8.92188L14.8727 9.26362L14.879 9.28106L14.886 9.29825L15.8125 8.92188ZM12.3555 8.98047L11.4363 8.58655L11.4335 8.59311L11.4308 8.59972L12.3555 8.98047ZM12.3262 41.7637L11.4137 42.1727L11.4195 42.1857L11.4256 42.1984L12.3262 41.7637ZM27.0293 17.623V33.4434H29.0293V17.623H27.0293ZM27.0293 33.4434C27.0293 37.0263 26.8323 39.5439 26.4706 41.0633L28.4162 41.5265C28.8357 39.7647 29.0293 37.048 29.0293 33.4434H27.0293ZM26.4706 41.0633C26.1212 42.5306 25.3929 43.9223 24.2547 45.2412L25.7688 46.5479C27.0915 45.0152 27.9843 43.3404 28.4162 41.5265L26.4706 41.0633ZM24.2547 45.2412C23.1344 46.5393 21.7932 47.4641 20.2202 48.0297L20.8969 49.9117C22.8005 49.2273 24.4281 48.1013 25.7688 46.5479L24.2547 45.2412ZM20.2202 48.0297C18.6066 48.6099 16.7801 48.9082 14.7285 48.9082V50.9082C16.9738 50.9082 19.034 50.5815 20.8969 49.9117L20.2202 48.0297ZM14.7285 48.9082C11.9638 48.9082 9.7291 48.5925 7.99305 47.9957L7.34289 49.8871C9.35684 50.5794 11.8292 50.9082 14.7285 50.9082V48.9082ZM8.00182 47.9988C6.28063 47.3892 4.94886 46.4643 3.96534 45.2392L2.40575 46.4913C3.64879 48.0396 5.30531 49.1655 7.33412 49.884L8.00182 47.9988ZM3.96534 45.2392C2.92204 43.9396 2.19581 42.5954 1.76828 41.2059L-0.143279 41.7941C0.366693 43.4515 1.22249 45.0174 2.40575 46.4913L3.96534 45.2392ZM1.76932 41.2093C1.34594 39.8157 1.10938 37.499 1.10938 34.1758H-0.890625C-0.890625 37.5322 -0.658439 40.0984 -0.14432 41.7907L1.76932 41.2093ZM1.10938 34.1758V17.623H-0.890625V34.1758H1.10938ZM1.10938 17.623C1.10938 13.2972 1.48134 10.1697 2.16875 8.16178L0.276561 7.514C-0.520406 9.84199 -0.890625 13.238 -0.890625 17.623H1.10938ZM2.16612 8.16938C2.83976 6.25209 4.16203 4.68985 6.21177 3.48518L5.19839 1.76092C2.795 3.17343 1.12899 5.08775 0.279196 7.5064L2.16612 8.16938ZM6.20848 3.4871C8.27085 2.28554 10.8033 1.66016 13.8496 1.66016V-0.339844C10.5287 -0.339844 7.63149 0.343364 5.20167 1.759L6.20848 3.4871ZM13.8496 1.66016C16.3283 1.66016 18.51 2.09771 20.4137 2.94984L21.2308 1.12438C19.033 0.140576 16.5662 -0.339844 13.8496 -0.339844V1.66016ZM20.421 2.95307C22.3704 3.8071 23.7482 4.82217 24.6319 5.96078L26.2119 4.73453C25.0643 3.25596 23.3757 2.06399 21.2235 1.12115L20.421 2.95307ZM24.6319 5.96078C25.5542 7.14909 26.1744 8.48536 26.4949 9.98101L28.4505 9.56196C28.0678 7.77636 27.3208 6.16341 26.2119 4.73453L24.6319 5.96078ZM26.4973 9.9921C26.8422 11.517 27.0293 14.0394 27.0293 17.623H29.0293C29.0293 14.0191 28.8453 11.3072 28.448 9.55087L26.4973 9.9921ZM17.1934 13.6387C17.1934 12.3658 17.1614 11.3132 17.0949 10.4893C17.0312 9.70092 16.9293 9.014 16.739 8.5455L14.886 9.29825C14.9496 9.45475 15.0381 9.86646 15.1014 10.6503C15.1618 11.3988 15.1934 12.392 15.1934 13.6387H17.1934ZM16.7523 8.58013C16.5586 8.04748 16.2074 7.61265 15.7064 7.32761C15.2261 7.05431 14.6732 6.95508 14.1133 6.95508V8.95508C14.4518 8.95508 14.6313 9.01698 14.7174 9.06594C14.7828 9.10317 14.832 9.15174 14.8727 9.26362L16.7523 8.58013ZM14.1133 6.95508C13.5479 6.95508 12.9955 7.06488 12.5108 7.34765C12.0146 7.63708 11.6587 8.0677 11.4363 8.58655L13.2746 9.37439C13.3452 9.20964 13.4288 9.12756 13.5185 9.0752C13.6197 9.01618 13.7997 8.95508 14.1133 8.95508V6.95508ZM11.4308 8.59972C11.232 9.08245 11.1211 9.76774 11.0517 10.5554C10.9798 11.3724 10.9453 12.4031 10.9453 13.6387H12.9453C12.9453 12.4329 12.9792 11.4665 13.044 10.7308C13.1114 9.96565 13.2055 9.54255 13.2801 9.36122L11.4308 8.59972ZM10.9453 13.6387V36.7832H12.9453V13.6387H10.9453ZM10.9453 36.7832C10.9453 38.1715 10.9772 39.3036 11.0434 40.17C11.1056 40.9835 11.2056 41.7086 11.4137 42.1727L13.2387 41.3546C13.1928 41.2523 13.1024 40.8641 13.0376 40.0175C12.9769 39.2238 12.9453 38.1488 12.9453 36.7832H10.9453ZM11.4256 42.1984C11.9309 43.245 12.9684 43.6133 14.0547 43.6133V41.6133C13.3832 41.6133 13.2683 41.4151 13.2267 41.3289L11.4256 42.1984ZM14.0547 43.6133C14.6147 43.6133 15.1641 43.508 15.6453 43.2307C16.1407 42.9452 16.4941 42.517 16.7079 41.9979L14.8585 41.2364C14.7988 41.3814 14.7275 41.4513 14.6467 41.4978C14.5517 41.5526 14.3735 41.6133 14.0547 41.6133V43.6133ZM16.7079 41.9979C16.9051 41.5189 17.0169 40.8524 17.0867 40.0897C17.1589 39.3006 17.1934 38.3128 17.1934 37.1348H15.1934C15.1934 38.281 15.1595 39.2023 15.095 39.9074C15.0281 40.6388 14.9347 41.0514 14.8585 41.2364L16.7079 41.9979ZM17.1934 37.1348V13.6387H15.1934V37.1348H17.1934ZM63.7949 40.9141H64.7949V39.9141H63.7949V40.9141ZM63.7949 49V50H64.7949V49H63.7949ZM37.75 49H36.75V50H37.75V49ZM37.75 42.2324L36.8968 41.7108L36.75 41.9509V42.2324H37.75ZM51.4902 18.8242L50.5912 18.3864L50.59 18.3888L51.4902 18.8242ZM53.0137 8.92188L52.1816 9.47658L52.1914 9.49122L52.2017 9.50551L53.0137 8.92188ZM49 9.00977L48.1573 8.47138L48.1519 8.47979L48.1467 8.48832L49 9.00977ZM48.3555 17.7109V18.7109H49.3555V17.7109H48.3555ZM37.75 17.7109H36.75V18.7109H37.75V17.7109ZM38.1602 9.71289L39.1444 9.88956L39.1448 9.88739L38.1602 9.71289ZM61.2168 4.17578L60.5184 4.89159L60.5244 4.89728L61.2168 4.17578ZM62.7988 21.6367L61.8874 21.2251L61.8853 21.23L62.7988 21.6367ZM50.8164 40.9141L49.9879 40.3541L48.9334 41.9141H50.8164V40.9141ZM62.7949 40.9141V49H64.7949V40.9141H62.7949ZM63.7949 48H37.75V50H63.7949V48ZM38.75 49V42.2324H36.75V49H38.75ZM38.6032 42.7541C46.3065 30.1556 50.9185 22.303 52.3905 19.2596L50.59 18.3888C49.1713 21.322 44.6231 29.0748 36.8968 41.7108L38.6032 42.7541ZM52.3893 19.2621C53.8673 16.2271 54.6875 13.7114 54.6875 11.793H52.6875C52.6875 13.2339 52.0428 15.4057 50.5912 18.3864L52.3893 19.2621ZM54.6875 11.793C54.6875 10.4222 54.455 9.21382 53.8257 8.33824L52.2017 9.50551C52.4708 9.87993 52.6875 10.5856 52.6875 11.793H54.6875ZM53.8457 8.36717C53.1986 7.39649 52.1922 6.95508 51.0215 6.95508V8.95508C51.6476 8.95508 51.9694 9.15819 52.1816 9.47658L53.8457 8.36717ZM51.0215 6.95508C49.8131 6.95508 48.8065 7.45521 48.1573 8.47138L49.8427 9.54815C50.0919 9.15807 50.433 8.95508 51.0215 8.95508V6.95508ZM48.1467 8.48832C47.8304 9.00599 47.6434 9.68351 47.5282 10.4324C47.4104 11.1986 47.3555 12.1251 47.3555 13.1992H49.3555C49.3555 12.1835 49.408 11.3668 49.505 10.7365C49.6046 10.089 49.74 9.71667 49.8533 9.53122L48.1467 8.48832ZM47.3555 13.1992V17.7109H49.3555V13.1992H47.3555ZM48.3555 16.7109H37.75V18.7109H48.3555V16.7109ZM38.75 17.7109V15.9824H36.75V17.7109H38.75ZM38.75 15.9824C38.75 13.3499 38.8863 11.3278 39.1444 9.88955L37.1759 9.53623C36.8872 11.1448 36.75 13.3025 36.75 15.9824H38.75ZM39.1448 9.88739C39.3878 8.51627 39.9911 7.14081 40.9918 5.75814L39.3715 4.58561C38.2237 6.17169 37.4794 7.82358 37.1755 9.53839L39.1448 9.88739ZM40.9918 5.75814C41.9596 4.42081 43.2147 3.40903 44.7763 2.71697L43.9659 0.888495C42.09 1.71988 40.5522 2.95419 39.3715 4.58561L40.9918 5.75814ZM44.7763 2.71697C46.3372 2.02519 48.2526 1.66016 50.5527 1.66016V-0.339844C48.0481 -0.339844 45.8425 0.0568454 43.9659 0.888495L44.7763 2.71697ZM50.5527 1.66016C55.1049 1.66016 58.3671 2.7927 60.5185 4.89156L61.9151 3.46C59.2618 0.871367 55.4146 -0.339844 50.5527 -0.339844V1.66016ZM60.5244 4.89728C62.736 7.01971 63.8496 9.70188 63.8496 13.0234H65.8496C65.8496 9.19656 64.5414 5.98029 61.9092 3.45428L60.5244 4.89728ZM63.8496 13.0234C63.8496 15.5683 63.209 18.2989 61.8875 21.2251L63.7102 22.0483C65.123 18.9199 65.8496 15.9082 65.8496 13.0234H63.8496ZM61.8853 21.23C60.5808 24.1604 56.6433 30.508 49.9879 40.3541L51.6449 41.4741C58.2708 31.6717 62.3216 25.1677 63.7124 22.0434L61.8853 21.23ZM50.8164 41.9141H63.7949V39.9141H50.8164V41.9141Z" fill="white" fill-opacity="0.8"/>
</svg>
