<svg width="62" height="56" viewBox="0 0 62 56" fill="none" xmlns="http://www.w3.org/2000/svg">
<g opacity="0.7" clip-path="url(#clip0_206_557)">
<path d="M0.793182 33.4017C0.793182 35.3582 1.58638 37.2091 2.90839 38.4782C3.75447 39.3243 4.81207 39.9588 5.97543 40.2761V26.4744C2.96127 27.3734 0.793182 30.1231 0.793182 33.4017Z" fill="#7E92FF"/>
<path d="M60.4419 33.4017C60.4419 35.3582 59.6487 37.2091 58.3267 38.4782C57.4806 39.3243 56.423 39.9588 55.2597 40.2761V26.4744C58.2209 27.3734 60.4419 30.1231 60.4419 33.4017Z" fill="#7E92FF"/>
<path d="M5.97543 26.3686C5.97543 12.7785 17.0274 1.72653 30.6176 1.72653C44.2077 1.72653 55.2597 12.7785 55.2597 26.3686" stroke="white" stroke-opacity="0.8" stroke-width="3" stroke-miterlimit="10"/>
<path d="M54.2021 40.5934H51.5581V26.21H54.2021C57.6393 26.21 60.4419 29.0127 60.4419 32.4499V34.3007C60.4419 37.7907 57.6393 40.5934 54.2021 40.5934Z" stroke="white" stroke-opacity="0.8" stroke-width="3" stroke-miterlimit="10"/>
<path d="M49.6544 43.4489H49.0727C48.0151 43.4489 47.169 42.6028 47.169 41.5452V25.2582C47.169 24.2006 48.0151 23.3545 49.0727 23.3545H49.6544C50.712 23.3545 51.5581 24.2006 51.5581 25.2582V41.5452C51.5581 42.6028 50.6591 43.4489 49.6544 43.4489Z" stroke="white" stroke-opacity="0.8" stroke-width="3" stroke-miterlimit="10"/>
<path d="M11.5807 43.4489H12.1624C13.22 43.4489 14.0661 42.6028 14.0661 41.5452V25.2582C14.0661 24.2006 13.22 23.3545 12.1624 23.3545H11.5807C10.5231 23.3545 9.67703 24.2006 9.67703 25.2582V41.5452C9.67703 42.6028 10.5231 43.4489 11.5807 43.4489Z" stroke="white" stroke-opacity="0.8" stroke-width="3" stroke-miterlimit="10"/>
<path d="M7.03303 40.5934H9.67704V26.21H7.03303C3.59583 26.21 0.793182 29.0127 0.793182 32.4499V34.3007C0.793182 37.7907 3.59583 40.5934 7.03303 40.5934Z" stroke="white" stroke-opacity="0.8" stroke-width="3" stroke-miterlimit="10"/>
<path d="M36.0113 56.1401H38.6024C45.7413 56.1401 51.5581 50.3233 51.5581 43.1845V40.5934" stroke="white" stroke-opacity="0.8" stroke-width="3" stroke-miterlimit="10"/>
<path d="M36.4344 56.1401H33.05C31.9395 56.1401 31.0406 55.2412 31.0406 54.1307V53.549C31.0406 52.4385 31.9395 51.5396 33.05 51.5396H36.4344C37.5448 51.5396 38.4438 52.4385 38.4438 53.549V54.1307C38.4438 55.2412 37.5448 56.1401 36.4344 56.1401Z" stroke="white" stroke-opacity="0.8" stroke-width="3" stroke-miterlimit="10"/>
<path d="M24.3777 33.4017H25.9641" stroke="#344154" stroke-width="3" stroke-miterlimit="10"/>
<path d="M29.8243 33.4017H31.4107" stroke="#344154" stroke-width="3" stroke-miterlimit="10"/>
<path d="M35.2181 33.4017H36.8045" stroke="#344154" stroke-width="3" stroke-miterlimit="10"/>
</g>
<defs>
<clipPath id="clip0_206_557">
<rect width="61.2351" height="56" fill="white"/>
</clipPath>
</defs>
</svg>
