<svg width="51" height="56" viewBox="0 0 51 56" fill="none" xmlns="http://www.w3.org/2000/svg">
<g opacity="0.7" clip-path="url(#clip0_18_370)">
<path d="M37.1875 0.729172H0.729126V50.8472H37.1875V0.729172Z" stroke="#6EBE81" stroke-opacity="0.6" stroke-width="3" stroke-miterlimit="10"/>
<path d="M37.1875 5.10417H41.6111V55.2708H5.10413V50.8472" stroke="#6EBE81" stroke-opacity="0.6" stroke-width="3" stroke-miterlimit="10"/>
<path d="M17.6458 5.10417H5.10413V17.6458H17.6458V5.10417Z" stroke="#6EBE81" stroke-opacity="0.6" stroke-width="3" stroke-miterlimit="10"/>
<path d="M15.0815 15.0695L15.0815 7.72919L7.74126 7.72919L7.74126 15.0695L15.0815 15.0695Z" fill="#7E92FF"/>
<path d="M4.42358 22.1181H33.3958" stroke="#6EBE81" stroke-opacity="0.6" stroke-width="3" stroke-miterlimit="10"/>
<path d="M4.42358 26.7361H33.3958" stroke="#6EBE81" stroke-opacity="0.6" stroke-width="3" stroke-miterlimit="10"/>
<path d="M4.42358 31.3542H33.3958" stroke="#6EBE81" stroke-opacity="0.6" stroke-width="3" stroke-miterlimit="10"/>
<path d="M21.632 5.10417H33.3958" stroke="#6EBE81" stroke-opacity="0.6" stroke-width="3" stroke-miterlimit="10"/>
<path d="M21.632 9.72223H33.3958" stroke="#6EBE81" stroke-opacity="0.6" stroke-width="3" stroke-miterlimit="10"/>
<path d="M4.42358 35.9236H33.3958" stroke="#6EBE81" stroke-opacity="0.6" stroke-width="3" stroke-miterlimit="10"/>
<path d="M33.3958 46.2292H23.382" stroke="#6EBE81" stroke-opacity="0.6" stroke-width="3" stroke-miterlimit="10"/>
<path d="M33.3958 40.7847H23.382V43.7986H33.3958V40.7847Z" fill="#89ABE3"/>
<path d="M46.877 46.6294H50.0367V27.7197H46.877V46.6294Z" stroke="#6EBE81" stroke-opacity="0.6" stroke-width="3" stroke-miterlimit="10"/>
<path d="M48.2222 52.1111H48.6111C49.3889 52.1111 49.9722 51.4792 49.9722 50.75V46.6667H46.8125V50.75C46.8611 51.4792 47.4931 52.1111 48.2222 52.1111Z" stroke="#6EBE81" stroke-opacity="0.6" stroke-width="3" stroke-miterlimit="10"/>
<path d="M48.4653 52.1111V55.2708" stroke="#6EBE81" stroke-opacity="0.6" stroke-width="3" stroke-miterlimit="10"/>
<path d="M48.6597 24.5972H48.2708C47.493 24.5972 46.9097 25.2292 46.9097 25.9583V27.7083H50.0694V25.9583C50.0208 25.2292 49.3888 24.5972 48.6597 24.5972Z" stroke="#6EBE81" stroke-opacity="0.6" stroke-width="3" stroke-miterlimit="10"/>
</g>
<defs>
<clipPath id="clip0_18_370">
<rect width="50.75" height="56" fill="white"/>
</clipPath>
</defs>
</svg>
