<svg width="29" height="32" viewBox="0 0 29 32" fill="none" xmlns="http://www.w3.org/2000/svg">
<g clip-path="url(#clip0_142_453)">
<path fill-rule="evenodd" clip-rule="evenodd" d="M25.5937 0.221679C25.5937 0.221679 24.0878 -0.516303 24.1099 0.701474C24.132 1.91925 26.8787 1.34694 27.537 4.6926C27.537 4.6926 28.5634 1.84395 25.5937 0.221679Z" fill="#D507D3"/>
<path fill-rule="evenodd" clip-rule="evenodd" d="M10.1815 10.8439C10.5121 10.8197 10.84 10.9192 11.1042 11.1238C11.3685 11.3284 11.551 11.6242 11.618 11.9563C11.6955 12.3227 11.6286 12.7057 11.4317 13.0219C11.2348 13.3382 10.9238 13.5622 10.5664 13.6452C10.3741 13.6873 10.1752 13.686 9.98343 13.6415C9.79167 13.597 9.61169 13.5103 9.45598 13.3875C9.30027 13.2646 9.17258 13.1086 9.08177 12.9302C8.99096 12.7517 8.93921 12.5552 8.93013 12.3543C8.90518 11.9854 9.02202 11.621 9.25576 11.3389C9.4895 11.0568 9.82167 10.8792 10.1815 10.8439Z" fill="#7C06EC"/>
<path fill-rule="evenodd" clip-rule="evenodd" d="M1.30818 7.5789C1.57 8.2137 1.97249 8.77754 2.48386 9.22591C3.46914 10.0657 4.71161 10.5246 5.99408 10.5222C6.95214 10.5371 7.89648 10.2881 8.72822 9.80145C9.54005 9.32094 10.117 8.57507 10.4591 7.56384C10.7241 6.76777 10.8142 5.782 10.7294 4.60653H6.02352V6.8506H8.14564C7.91779 7.31677 7.63737 7.6395 7.30436 7.8188C6.97136 7.99809 6.5346 8.0881 5.99408 8.08882C5.23413 8.08882 4.62876 7.8378 4.17798 7.33578C3.72719 6.83375 3.50145 6.15242 3.50075 5.2918C3.50075 4.48569 3.72158 3.81046 4.16325 3.26612C4.60492 2.72178 5.2152 2.44961 5.99408 2.44961C6.41746 2.43386 6.83825 2.52357 7.22024 2.71102C7.56694 2.91098 7.84907 3.21007 8.03207 3.57164H10.5675C10.422 2.86321 10.1062 2.20304 9.64861 1.65083C9.19107 1.09861 8.6062 0.67176 7.94689 0.408861C7.32192 0.172688 6.66031 0.0542347 5.99408 0.0592339C5.14625 0.0536253 4.30831 0.245669 3.54387 0.620788C2.78461 0.995875 2.14875 1.59078 1.63627 2.4055C1.1238 3.22022 0.867209 4.18842 0.866507 5.31009C0.856438 6.08969 1.00692 6.86273 1.30818 7.5789ZM18.8298 10.3759V9.02151C18.6885 9.03368 18.5474 8.99569 18.4302 8.91394C18.352 8.85339 18.2988 8.76515 18.2809 8.66651C18.2639 8.51404 18.2569 8.36058 18.2599 8.20715V5.94803C18.2599 4.96692 17.9465 4.26014 17.3197 3.82767C16.693 3.39521 15.8668 3.18006 14.8411 3.18221C13.8442 3.18221 12.9753 3.35218 12.2342 3.69213L12.5192 5.45532C13.003 5.20359 13.6339 5.07737 14.4121 5.07665C15.3992 5.07665 15.8931 5.3438 15.8938 5.8781V6.09326C15.4963 5.8322 14.9838 5.70167 14.3564 5.70167C13.5305 5.70167 12.8705 5.92257 12.3762 6.36435C11.882 6.80614 11.6541 7.45447 11.6927 8.30935C11.6938 8.61798 11.7629 8.92237 11.8949 9.19989C12.0269 9.47741 12.2184 9.7209 12.4551 9.91226C12.9429 10.3198 13.5563 10.5367 14.186 10.5244C14.6385 10.527 15.0868 10.4355 15.5036 10.2554C15.8915 10.0985 16.2085 9.79988 16.3933 9.4174C16.5076 10.4215 17.3197 10.742 18.8298 10.3791V10.3759ZM15.5036 8.39111C15.2615 8.54392 14.9826 8.62475 14.6981 8.62455C14.309 8.62455 14.0956 8.4596 14.0577 8.1297C14.01 7.8794 14.0563 7.67967 14.1965 7.53049C14.3611 7.37346 14.5772 7.28518 14.8022 7.28306C15.1891 7.25766 15.5724 7.37187 15.8854 7.60579V7.75103C15.8856 7.88335 15.8501 8.01317 15.7827 8.12613C15.7154 8.2391 15.6188 8.3308 15.5036 8.39111ZM22.9458 10.5954C23.7913 10.5954 24.5228 10.3888 25.1404 9.97573C25.4324 9.79376 25.6735 9.53789 25.8406 9.23281C26.0076 8.92773 26.095 8.58374 26.0942 8.23405C26.111 7.91369 26.0526 7.59388 25.9239 7.30135C25.8199 7.06609 25.6666 6.85711 25.4749 6.68924C25.2537 6.52054 25.0042 6.39474 24.7387 6.31809C24.4708 6.22721 24.1971 6.15532 23.9195 6.10294C23.6914 6.06421 23.3822 6.02441 22.9931 5.98568C22.955 5.98366 22.917 5.97899 22.8795 5.97169L22.7512 5.9491C22.7228 5.9491 22.6818 5.93942 22.6303 5.93512C22.5886 5.93312 22.5476 5.92328 22.5094 5.90607C22.4754 5.8888 22.4402 5.87406 22.4042 5.86196C22.3684 5.85232 22.3363 5.83211 22.3117 5.80387L22.2475 5.72319C22.2235 5.69468 22.2085 5.65944 22.2044 5.62207C22.1992 5.57853 22.1971 5.53467 22.1981 5.49082C22.2005 5.42239 22.2215 5.35599 22.2586 5.29901C22.2957 5.24203 22.3476 5.19671 22.4084 5.16809C22.5679 5.07926 22.7463 5.03163 22.9279 5.02931C23.123 5.02013 23.3167 5.06669 23.4873 5.16379C23.5633 5.19974 23.6292 5.25464 23.679 5.32344C23.7288 5.39223 23.7609 5.47272 23.7723 5.55752H25.8944C25.9323 4.82958 25.6477 4.24902 25.0405 3.81584C24.4334 3.38266 23.7068 3.16751 22.8606 3.17038C22.0249 3.17038 21.3056 3.37692 20.7027 3.79002C20.0998 4.20312 19.7984 4.79336 19.7984 5.56075C19.7926 5.86367 19.8652 6.16277 20.0087 6.42782C20.1278 6.6531 20.2902 6.85142 20.4861 7.01089C20.7129 7.17538 20.9659 7.2984 21.2338 7.3745C21.4995 7.46436 21.7707 7.53624 22.0456 7.58966C22.2685 7.62839 22.5511 7.66711 22.8932 7.70584C23.0203 7.71959 23.1463 7.7415 23.2707 7.77146C23.3674 7.79948 23.4557 7.85203 23.5273 7.92423C23.5687 7.96615 23.6009 8.01661 23.6218 8.07226C23.6426 8.12791 23.6516 8.18746 23.6482 8.24696C23.6496 8.33056 23.6285 8.41294 23.5871 8.48505C23.5457 8.55717 23.4858 8.61623 23.4137 8.65575C23.2429 8.75627 23.0482 8.80653 22.8511 8.80098C22.6531 8.80686 22.4576 8.75379 22.2885 8.64822C22.2115 8.59804 22.149 8.52767 22.1076 8.44443C22.0662 8.36119 22.0473 8.26811 22.053 8.17488H19.6837C19.7216 9.79715 20.8082 10.6083 22.9437 10.6083L22.9458 10.5954ZM4.28524 21.9534V16.6746H6.28327V14.9286H4.28524V14.2444C4.28524 13.2239 4.98315 12.9273 6.37896 13.3547L6.60716 11.5195C6.03944 11.3632 5.45636 11.2726 4.86887 11.2494C4.36432 11.2303 3.86046 11.3031 3.38087 11.4646C2.91745 11.6269 2.5293 11.9592 2.29142 12.3973C2.02571 12.8613 1.89286 13.4573 1.89286 14.1852L1.87919 14.9286H0.681427V16.6746H1.84975V21.9459L4.28524 21.9534ZM10.5391 14.7102C9.59649 14.6932 8.68263 15.0422 7.98159 15.687C7.26511 16.3382 6.90686 17.2465 6.90686 18.412C6.8898 19.1324 7.07758 19.8425 7.44738 20.4559C7.7737 21.0042 8.24562 21.4463 8.80814 21.7307C9.36211 21.9988 9.96953 22.131 10.5822 22.1169C11.5241 22.1241 12.4351 21.7734 13.1386 21.1326C13.8558 20.4871 14.2144 19.5813 14.2144 18.4152C14.2144 17.249 13.8509 16.3397 13.1239 15.687C12.4124 15.0415 11.4899 14.6928 10.5391 14.7102ZM10.5822 16.8811C10.746 16.8857 10.9071 16.925 11.0553 16.9965C11.2036 17.0679 11.3357 17.1701 11.4434 17.2964C11.6853 17.5642 11.8073 17.9354 11.8062 18.412C11.8052 18.8885 11.6853 19.2597 11.4434 19.5265C11.3357 19.6528 11.2036 19.7549 11.0553 19.8264C10.9071 19.8978 10.746 19.9371 10.5822 19.9417C10.4156 19.9477 10.2497 19.9154 10.0969 19.8473C9.94401 19.7792 9.80801 19.6769 9.69884 19.548C9.45137 19.2762 9.32763 18.8975 9.32763 18.412C9.32763 17.9264 9.45137 17.5474 9.69884 17.2749C9.80801 17.1459 9.94401 17.0437 10.0969 16.9755C10.2497 16.9074 10.4156 16.8751 10.5822 16.8811ZM17.6973 15.1104C17.4675 14.9258 17.1901 14.8137 16.8991 14.7877C16.5967 14.749 16.2913 14.7414 15.9874 14.7651C15.7029 14.7875 15.4206 14.8324 15.1429 14.8996V16.255C15.2907 16.2454 15.4377 16.283 15.5636 16.3626C15.6457 16.4187 15.7042 16.5043 15.7276 16.6025C15.7508 16.7544 15.7603 16.9082 15.756 17.0619V21.9588H18.1347V18.4259C18.1347 17.9239 18.277 17.5295 18.5617 17.2426C18.854 16.9575 19.241 16.7961 19.6448 16.7908C20.0647 16.7694 20.4794 16.8937 20.8216 17.1436L21.3063 15.133C20.9042 14.8279 20.4095 14.6781 19.9098 14.7102C19.5107 14.705 19.1173 14.8082 18.7699 15.0093C18.4393 15.1954 18.1862 15.4982 18.058 15.8613C18.0516 15.717 18.016 15.5755 17.9536 15.4459C17.8912 15.3163 17.8032 15.2014 17.6952 15.1083L17.6973 15.1104ZM23.1025 12.7577L22.8322 14.9286H21.6208V16.5175L22.8322 16.6746V19.1811C22.8322 19.8897 22.9675 20.4749 23.2381 20.9368C23.4838 21.3771 23.8755 21.713 24.3423 21.8835C24.8325 22.0591 25.35 22.1418 25.8692 22.1277C26.4622 22.1113 27.0509 22.0184 27.6212 21.8512L27.4224 19.9998C27.1118 20.1204 26.7854 20.1929 26.4539 20.215C26.1515 20.2377 25.8504 20.1558 25.5989 19.9826C25.3424 19.8076 25.2141 19.5207 25.2141 19.122V16.6746H27.3078V14.9286H25.2109V12.7577H23.1025Z" fill="white"/>
<path fill-rule="evenodd" clip-rule="evenodd" d="M25.5011 29.3224C14.0661 26.9331 15.7297 24.4922 8.87439 27.5646C1.34182 30.9393 0.750824 25.2861 0.750824 25.2861C0.750824 25.2861 3.42187 28.592 8.10462 26.3124C10.0311 25.3754 12.5076 22.8248 15.614 22.8215C20.1958 22.8215 20.1212 28.2897 25.0342 26.7384C27.1963 26.0553 29.5782 25.4755 28.556 28.1918" fill="#FAE925"/>
<path fill-rule="evenodd" clip-rule="evenodd" d="M19.649 26.875L15.2008 26.5609L11.4708 27.2978C11.4708 27.2978 4.45665 31.0296 1.1294 25.8917C1.00111 25.6927 0.626742 25.6766 0.517377 25.5464C0.201899 25.1699 0.055727 24.5944 0.0294371 24.7751C-0.157747 26.0337 0.542615 28.4983 2.46808 29.9442C2.46808 29.9442 5.68912 32.4819 9.7714 29.9743C13.3121 27.7991 14.8948 28.2896 16.4385 28.7458C19.608 29.6817 21.564 33.3426 25.8902 31.4793" fill="#F613D8"/>
<path fill-rule="evenodd" clip-rule="evenodd" d="M28.6707 28.2466C28.412 29.9119 27.1984 31.7816 23.9385 31.8322C20.9393 31.8784 19.5071 27.1396 16.2618 26.904C13.5067 26.704 12.291 27.088 8.30233 28.7329C3.64167 30.6596 1.34183 27.4161 1.34183 27.4161C0.74768 26.7825 0.197696 25.3721 0.197696 25.3721C0.197696 25.3721 -0.23556 24.1888 0.375416 24.8138C2.52382 27.0127 5.04765 29.2847 10.9713 26.563C21.5366 21.7134 18.4376 30.0926 25.8713 27.7077C27.8168 27.0837 28.8957 26.8029 28.6707 28.2466Z" fill="url(#paint0_linear_142_453)"/>
<path fill-rule="evenodd" clip-rule="evenodd" d="M25.0048 23.4132C25.4811 23.3917 25.8776 23.7843 25.9365 24.2835C25.9954 24.7827 25.7083 25.2668 25.2561 25.3959C24.7482 25.5411 24.2213 25.1872 24.1372 24.5804C24.0531 23.9737 24.4685 23.4379 25.0048 23.4132Z" fill="#FADD2E"/>
<path fill-rule="evenodd" clip-rule="evenodd" d="M11.8126 30.2809C11.8126 30.2809 10.6379 31.5267 11.9177 31.8946C13.3069 32.2926 14.0672 29.6247 18.1516 31.787C18.1526 31.7827 14.6024 27.7776 11.8126 30.2809Z" fill="#8006EC"/>
</g>
<defs>
<linearGradient id="paint0_linear_142_453" x1="0.0252349" y1="29.5365" x2="28.6909" y2="26.591" gradientUnits="userSpaceOnUse">
<stop stop-color="#5209EA"/>
<stop offset="1" stop-color="#F000EE"/>
</linearGradient>
<clipPath id="clip0_142_453">
<rect width="28.8" height="32" fill="white"/>
</clipPath>
</defs>
</svg>
