<svg width="36" height="36" viewBox="0 0 36 36" fill="none" xmlns="http://www.w3.org/2000/svg">
<rect width="36" height="36" rx="18" fill="url(#paint0_linear_7_482)"/>
<path fill-rule="evenodd" clip-rule="evenodd" d="M8.14808 17.81C13.3955 15.5238 16.8945 14.0166 18.6453 13.2884C23.6441 11.2093 24.6828 10.8481 25.3598 10.8362C25.5087 10.8335 25.8416 10.8704 26.0573 11.0454C26.2394 11.1932 26.2895 11.3928 26.3135 11.5329C26.3375 11.673 26.3673 11.9921 26.3436 12.2415C26.0727 15.0877 24.9006 21.9947 24.3043 25.1826C24.0519 26.5314 23.5551 26.9837 23.0741 27.028C22.0288 27.1242 21.2351 26.3372 20.2227 25.6735C18.6384 24.635 17.7434 23.9886 16.2057 22.9752C14.4285 21.8041 15.5806 21.1604 16.5934 20.1085C16.8584 19.8332 21.464 15.6441 21.5531 15.264C21.5643 15.2165 21.5746 15.0393 21.4694 14.9458C21.3641 14.8523 21.2088 14.8842 21.0967 14.9097C20.9378 14.9457 18.407 16.6185 13.5042 19.928C12.7858 20.4213 12.1352 20.6617 11.5522 20.6491C10.9095 20.6352 9.6732 20.2857 8.75415 19.9869C7.6269 19.6205 6.73098 19.4268 6.809 18.8045C6.84963 18.4804 7.29599 18.1489 8.14808 17.81Z" fill="white"/>
<defs>
<linearGradient id="paint0_linear_7_482" x1="18" y1="0" x2="18" y2="35.733" gradientUnits="userSpaceOnUse">
<stop stop-color="#2AABEE"/>
<stop offset="1" stop-color="#229ED9"/>
</linearGradient>
</defs>
</svg>
