<svg width="36" height="36" viewBox="0 0 36 36" fill="none" xmlns="http://www.w3.org/2000/svg">
<rect width="36" height="36" rx="18" fill="url(#paint0_linear_7_467)"/>
<path d="M7.08148 28.4722L8.62488 22.8676C7.67069 21.2226 7.17012 19.3596 7.17534 17.4551C7.17534 11.4873 12.0558 6.63516 18.0469 6.63516C20.9564 6.63516 23.6887 7.76126 25.7379 9.80589C27.7922 11.8505 28.9237 14.5698 28.9185 17.4603C28.9185 23.4281 24.038 28.2802 18.0417 28.2802H18.0365C16.2167 28.2802 14.4283 27.8235 12.8379 26.9621L7.08148 28.4722ZM13.1143 25.0057L13.4428 25.2029C14.8298 26.0228 16.4201 26.4535 18.0417 26.4587H18.0469C23.0265 26.4587 27.0831 22.4265 27.0831 17.4655C27.0831 15.0628 26.1446 12.8054 24.4395 11.1032C22.7345 9.40112 20.4611 8.46703 18.0469 8.46703C13.0674 8.46184 9.01073 12.494 9.01073 17.4551C9.01073 19.152 9.48522 20.8075 10.3925 22.2397L10.6063 22.5822L9.69379 25.8983L13.1143 25.0057Z" fill="white"/>
<path d="M7.46214 28.0934L8.9534 22.6808C8.03049 21.098 7.54557 19.2973 7.54557 17.4603C7.55078 11.7 12.2592 7.01398 18.047 7.01398C20.8574 7.01398 23.4906 8.10375 25.472 10.0757C27.4534 12.0477 28.5431 14.6736 28.5431 17.4655C28.5431 23.2257 23.8295 27.9117 18.047 27.9117H18.0417C16.2846 27.9117 14.5587 27.4706 13.0257 26.6403L7.46214 28.0934Z" fill="url(#paint1_linear_7_467)"/>
<path d="M7.08148 28.4722L8.62488 22.8676C7.67069 21.2226 7.17012 19.3596 7.17534 17.4551C7.17534 11.4873 12.0558 6.63516 18.0469 6.63516C20.9564 6.63516 23.6887 7.76126 25.7379 9.80589C27.7922 11.8505 28.9237 14.5698 28.9185 17.4603C28.9185 23.4281 24.038 28.2802 18.0417 28.2802H18.0365C16.2167 28.2802 14.4283 27.8235 12.8379 26.9621L7.08148 28.4722ZM13.1143 25.0057L13.4428 25.2029C14.8298 26.0228 16.4201 26.4535 18.0417 26.4587H18.0469C23.0265 26.4587 27.0831 22.4265 27.0831 17.4655C27.0831 15.0628 26.1446 12.8054 24.4395 11.1032C22.7345 9.40112 20.4611 8.46703 18.0469 8.46703C13.0674 8.46184 9.01073 12.494 9.01073 17.4551C9.01073 19.152 9.48522 20.8075 10.3925 22.2397L10.6063 22.5822L9.69379 25.8983L13.1143 25.0057Z" fill="url(#paint2_linear_7_467)"/>
<path fill-rule="evenodd" clip-rule="evenodd" d="M15.3303 12.9299C15.1269 12.4784 14.9131 12.4681 14.7202 12.4629C14.5638 12.4577 14.3813 12.4577 14.1988 12.4577C14.0163 12.4577 13.7243 12.5251 13.474 12.795C13.2237 13.0648 12.525 13.7187 12.525 15.0524C12.525 16.3809 13.5001 17.6678 13.6356 17.8495C13.7712 18.0311 15.518 20.849 18.2763 21.9335C20.5705 22.8365 21.0398 22.6549 21.5351 22.6082C22.0305 22.5615 23.1411 21.9543 23.3705 21.3212C23.5948 20.6881 23.5948 20.1484 23.527 20.0342C23.4592 19.92 23.2767 19.8526 23.0055 19.7177C22.7344 19.5827 21.3996 18.9289 21.1493 18.8355C20.899 18.7472 20.7165 18.7005 20.5392 18.9704C20.3567 19.2402 19.8353 19.8474 19.6789 20.029C19.5225 20.2107 19.3608 20.2314 19.0897 20.0965C18.8186 19.9616 17.9426 19.6761 16.9049 18.7524C16.0967 18.0363 15.5493 17.1489 15.3928 16.8791C15.2364 16.6092 15.3772 16.4639 15.5128 16.329C15.6327 16.2096 15.7839 16.0124 15.9195 15.8567C16.055 15.7011 16.102 15.5869 16.1906 15.4053C16.2792 15.2236 16.2375 15.0679 16.1697 14.933C16.102 14.8033 15.5701 13.4644 15.3303 12.9299Z" fill="white"/>
<defs>
<linearGradient id="paint0_linear_7_467" x1="17.9991" y1="35.9982" x2="17.9991" y2="-0.00125955" gradientUnits="userSpaceOnUse">
<stop stop-color="#20B038"/>
<stop offset="1" stop-color="#60D66A"/>
</linearGradient>
<linearGradient id="paint1_linear_7_467" x1="18.0021" y1="28.0923" x2="18.0021" y2="7.01324" gradientUnits="userSpaceOnUse">
<stop stop-color="#20B038"/>
<stop offset="1" stop-color="#60D66A"/>
</linearGradient>
<linearGradient id="paint2_linear_7_467" x1="18.0021" y1="28.4701" x2="18.0021" y2="6.63516" gradientUnits="userSpaceOnUse">
<stop stop-color="#F9F9F9"/>
<stop offset="1" stop-color="white"/>
</linearGradient>
</defs>
</svg>
